<svg xmlns="http://www.w3.org/2000/svg" viewBox="0 0 409.6 409.6"><defs><style>.cls-211{fill:#fefefe;}.cls-212{fill:#ccdeec;}.cls-213{fill:#4cb9d7;}.cls-214{fill:#fbdfa1;}.cls-215{fill:#f8a058;}.cls-216{fill:#e7f4fd;}.cls-217{fill:#f1c990;}.cls-218{fill:#ee8d43;}.cls-219{fill:#2295bc;}.cls-2110{fill:#38a6c4;}.cls-2111{fill:#2396bd;}.cls-2112{fill:#f2ca91;}.cls-2113{fill:#fb6262;}</style></defs><g id="Layer_2" data-name="Layer 2"><g id="Layer_1-2" data-name="Layer 1"><path class="cls-211" d="M318.68,409.6H0V0H409.6V409.6h-75c1.9-.41,3.79-.85,5.69-1.23,16.94-3.46,31.22-11.45,42.37-24.81,14.36-17.19,19.89-36.91,16.33-58.93-2.88-17.79-11.4-32.55-25.34-44.19-12.91-10.78-27.67-16.62-44.43-16.88-6.18-.1-12.38,1-18.56,1.5l-9.08,2.51-38.89-12c-6.65-2.13-13.34-4.17-20-6.43-3.36-1.16-6.44-1.2-9.41.88-6.23-4.31-8.93-10.21-8.27-17.78a50.25,50.25,0,0,0,0-8.76c-.24-2.95,1-4.38,3.55-5.77,20.47-10.93,34.27-27.61,41.71-49.53,2.52-7.42,2.36-7.47,10.39-7.78,7.73-.29,13.12-5.76,13.24-13.54.07-4.78.21-9.58-.06-14.34-.15-2.72-1.07-5.39-1.64-8.08,0-12.23,0-24.46.08-36.69a76.82,76.82,0,0,0-5.78-29.88C274.16,27.71,252.12,8.26,219.83,2.6,205.74.12,191,1.31,176.55.83c-25.93-.38-48.08,8.59-66.22,27.11C95.55,43,87.05,61.26,85.63,82.26c-.93,13.76-.25,27.63-.3,41.46C82,131.59,82.68,139.9,83.51,148c.87,8.44,6.23,12.42,14.71,12.46l7.17.05c5,22.24,17.23,39.55,35.77,52.56,3.73,2.62,9.08,4.28,10.93,7.83s.39,9.07.49,13.71c.16,6.88-2.7,12-8.7,15.36-2.71-1.85-5.49-1.89-8.6-.84-7,2.36-14,4.46-21,6.66-17.46,5.49-35.08,10.52-52.34,16.58-27.4,9.62-45.44,28.86-49.59,57.57-2.93,20.34-1.52,41.31-1.75,62-.05,4.36,2.9,6.61,7.39,6.63,10.77.06,21.53,0,32.29-.08l12.84,0c1.6,0,3.19.1,4.78.1q106.26,0,212.52,0c2.24,0,4.49.26,6.74.4,1.85.66,3.72,1.27,5.55,2,6,2.31,12,4.66,18,7Z"/><path class="cls-212" d="M310.71,265.06c6.18-.53,12.38-1.6,18.56-1.5,16.76.26,31.52,6.1,44.43,16.88,13.94,11.64,22.46,26.4,25.34,44.19,3.56,22-2,41.74-16.33,58.93-11.15,13.36-25.43,21.35-42.37,24.81-1.9.38-3.79.82-5.69,1.23h-16l-8-1.61a36.31,36.31,0,0,1,4.76-2.45,72.71,72.71,0,0,0,33.3-23.63,71.85,71.85,0,0,0,15.41-37.72c1.79-1,4.09-1.61,5.26-3.11,3-3.79.69-7.76-5.24-9.73-1.3-6.43-1.87-13.13-4.06-19.25-7.51-21.08-21.87-35.8-42.85-43.93C315,267.3,312.9,266.11,310.71,265.06Z"/><path class="cls-213" d="M287.14,399c-2.25-.14-4.5-.4-6.74-.4q-106.26,0-212.52,0c-1.59,0-3.18-.07-4.78-.1,0-1.46,0-2.92,0-4.38Q63,366,63,338c0-5.2-2.66-7.92-7.06-7.41-3.79.43-5.65,3-5.66,8.18q-.06,29.86-.06,59.75c-10.76,0-21.52.14-32.29.08-4.49,0-7.44-2.27-7.39-6.63.23-20.7-1.18-41.67,1.75-62,4.15-28.71,22.19-47.95,49.59-57.57,17.26-6.06,34.88-11.09,52.34-16.58.18.49.21,1.12.55,1.45q22.55,22.62,45.19,45.14a6.55,6.55,0,0,0,9.15.52c6.62-5.48,12.92-11.35,19.35-17.06l.73,0c5.06,4.65,10.19,9.23,15.16,14,6.28,6,10,6,16.19-.12q11.46-11.36,23-22.65c3.3.8,6.62,1.56,9.91,2.42,7.1,1.84,14.18,3.74,21.27,5.61-.58.72-1.13,1.47-1.75,2.14-11,11.95-17.58,26-18.83,42.12-2.17,27.65,8.05,50.05,30.33,66.8A19.63,19.63,0,0,1,287.14,399Z"/><path class="cls-214" d="M189.23,285.79l-.73,0Q166.18,267.9,143.88,250c6-3.36,8.86-8.48,8.7-15.36-.1-4.64,1.42-10.05-.49-13.71s-7.2-5.21-10.93-7.83c-18.54-13-30.79-30.32-35.77-52.56-.8-7.16-1.88-14.29-2.3-21.47-.4-7-.11-14-.13-21,1.51-8.84,3-17.69,4.53-26.53.41-2.38,1.82-3.33,4.29-3.87,14.29-3.12,28.25-1.16,42,2.59,16.38,4.45,32.59,9.52,49,13.8a91.1,91.1,0,0,0,35.12,2.27,65.43,65.43,0,0,1,.82,7.07c.1,8.64.17,17.28,0,25.92-.12,6.08,0,12.26-1.1,18.2a85.08,85.08,0,0,1-49.12,62.39c-5,2.14-10.16,3.87-15.25,5.79a56.45,56.45,0,0,0,13.25,1.76c2.83,0,3.67,1,3.58,3.71-.18,5.18-.11,10.37,0,15.55,0,2.5-.08,5.13.64,7.46,2.22,7.11,7.77,10.26,14.71,11.68,1.88.38,3.61,1.54,5.41,2.34Z"/><path class="cls-215" d="M237.94,106.3A91.1,91.1,0,0,1,202.82,104c-16.41-4.28-32.62-9.35-49-13.8-13.79-3.75-27.75-5.71-42-2.59-2.47.54-3.88,1.49-4.29,3.87-1.53,8.84-3,17.69-4.53,26.53-6.66-.57-12.92.14-17.63,5.68,0-13.83-.63-27.7.3-41.46,1.42-21,9.92-39.23,24.7-54.32C128.47,9.42,150.62.45,176.55.83c.34.2.66.55,1,.59a85.92,85.92,0,0,1,32.38,10C229.18,21.54,242.41,37,250.75,56.85c5.39,12.85,6.68,26.33,6.46,40.08a30.56,30.56,0,0,0,.85,5.31Z"/><path class="cls-216" d="M287.14,399a19.63,19.63,0,0,0-2.64-2.95c-22.28-16.75-32.5-39.15-30.33-66.8,1.25-16.07,7.87-30.17,18.83-42.12.62-.67,1.17-1.42,1.75-2.14a89.9,89.9,0,0,1,26.88-17.45l9.08-2.51c2.19,1.05,4.33,2.24,6.59,3.11,21,8.13,35.34,22.85,42.85,43.93,2.19,6.12,2.76,12.82,4.06,19.25H333.06V326.1c0-8.51.07-17-.05-25.55-.05-3.73-2.5-6.28-5.77-6.49s-5.82,2.16-6.38,5.83a27.58,27.58,0,0,0-.25,4c0,7.72,0,15.43,0,23.15,0,1.4-.14,2.8-.23,4.49-10.14,0-19.84-.07-29.53,0-4.81.05-7.71,2.59-7.64,6.33s3,6.15,7.79,6.18c8.38.05,16.77,0,25.15,0h4.47c0,5.55,0,10.46,0,15.38.05,5.45,0,10.91.33,16.34.25,3.69,3.17,6.12,6.36,5.73,3.51-.43,5.56-2.58,5.69-6.11.17-4.39.07-8.78.07-13.17v-18h31.13a71.85,71.85,0,0,1-15.41,37.72,72.71,72.71,0,0,1-33.3,23.63,36.31,36.31,0,0,0-4.76,2.45c-6-2.33-12-4.68-18-7C290.86,400.3,289,399.69,287.14,399Z"/><path class="cls-217" d="M237.94,106.3l20.11-4.06L272,96.93c.67,6.06,1.5,11.93,1.89,17.82.17,2.56.87,3.7,3.48,3.36,6.22-.81,11.08,1.59,14.93,6.36.57,2.69,1.49,5.36,1.64,8.08.27,4.76.13,9.56.06,14.34-.12,7.78-5.51,13.25-13.24,13.54-8,.31-7.87.36-10.39,7.78-7.44,21.92-21.24,38.6-41.71,49.53-2.6,1.39-3.79,2.82-3.55,5.77a50.25,50.25,0,0,1,0,8.76c-.66,7.57,2,13.47,8.27,17.78l-22.53,18.12c-1.8-.8-3.53-2-5.41-2.34-6.94-1.42-12.49-4.57-14.71-11.68-.72-2.33-.6-5-.64-7.46-.08-5.18-.15-10.37,0-15.55.09-2.74-.75-3.68-3.58-3.71a56.45,56.45,0,0,1-13.25-1.76c5.09-1.92,10.26-3.65,15.25-5.79a85.08,85.08,0,0,0,49.12-62.39c1.06-5.94,1-12.12,1.1-18.2.17-8.64.1-17.28,0-25.92A65.43,65.43,0,0,0,237.94,106.3Z"/><path class="cls-218" d="M292.29,124.47c-3.85-4.77-8.71-7.17-14.93-6.36-2.61.34-3.31-.8-3.48-3.36-.39-5.89-1.22-11.76-1.89-17.82l-13.94,5.31a31.52,31.52,0,0,1-.84-5.31c.22-13.75-1.07-27.23-6.46-40.08C242.41,37,229.18,21.54,209.94,11.37a85.92,85.92,0,0,0-32.38-9.95c-.35,0-.67-.39-1-.59C191,1.31,205.74.12,219.83,2.6c32.29,5.66,54.33,25.11,66.76,55.3a76.82,76.82,0,0,1,5.78,29.88C292.3,100,292.32,112.24,292.29,124.47Z"/><path class="cls-219" d="M210.85,268.17l22.53-18.12c3-2.08,6.05-2,9.41-.88,6.61,2.26,13.3,4.3,20,6.43-.8,1.43-1.36,3.11-2.46,4.26-5.49,5.78-11.12,11.43-16.71,17.13q-11.5,11.33-23,22.65c-6.19,6.12-9.91,6.11-16.19.12-5-4.74-10.1-9.32-15.16-14Z"/><path class="cls-219" d="M143.88,250q22.31,17.94,44.62,35.87c-6.43,5.71-12.73,11.58-19.35,17.06a6.55,6.55,0,0,1-9.15-.52q-22.71-22.46-45.19-45.14c-.34-.33-.37-1-.55-1.45,7-2.2,14.06-4.3,21-6.66C138.39,248.06,141.17,248.1,143.88,250Z"/><path class="cls-2110" d="M243.57,277c5.59-5.7,11.22-11.35,16.71-17.13,1.1-1.15,1.66-2.83,2.46-4.26l38.89,12A89.9,89.9,0,0,0,274.75,285c-7.09-1.87-14.17-3.77-21.27-5.61C250.19,278.55,246.87,277.79,243.57,277Z"/><path class="cls-2111" d="M50.26,398.48q0-29.88.06-59.75c0-5.14,1.87-7.75,5.66-8.18C60.38,330,63,332.76,63,338q0,28.08,0,56.17c0,1.46,0,2.92,0,4.38Z"/><path class="cls-2112" d="M85.33,123.72c4.71-5.54,11-6.25,17.63-5.68,0,7-.27,14,.13,21,.42,7.18,1.5,14.31,2.3,21.47l-7.17-.05c-8.48,0-13.84-4-14.71-12.46C82.68,139.9,82,131.59,85.33,123.72Z"/><path class="cls-2113" d="M364.19,344.19H333.06v18c0,4.39.1,8.78-.07,13.17-.13,3.53-2.18,5.68-5.69,6.11-3.19.39-6.11-2-6.36-5.73-.37-5.43-.28-10.89-.33-16.34,0-4.92,0-9.83,0-15.38h-4.47c-8.38,0-16.77,0-25.15,0-4.82,0-7.73-2.41-7.79-6.18s2.83-6.28,7.64-6.33c9.69-.09,19.39,0,29.53,0,.09-1.69.23-3.09.23-4.49,0-7.72,0-15.43,0-23.15a27.58,27.58,0,0,1,.25-4c.56-3.67,3.21-6.05,6.38-5.83s5.72,2.76,5.77,6.49c.12,8.52.05,17,.05,25.55v5.25h31.15c5.93,2,8.21,5.94,5.24,9.73C368.28,342.58,366,343.18,364.19,344.19Z"/></g></g></svg>