<svg xmlns="http://www.w3.org/2000/svg" viewBox="0 0 384 384"><defs><style>.cls-1{fill:#cbd5f9;}.cls-2{fill:#fefefe;}.cls-3{fill:#d2dbf9;}.cls-4{fill:#bec8f6;}.cls-5{fill:#3c58a0;}.cls-6{fill:#a1b1ec;}.cls-7{fill:#49b0f6;}.cls-8{fill:#e7eefe;}.cls-9{fill:#1f9ef3;}.cls-10{fill:#e8eefd;}.cls-11{fill:#73c2f8;}.cls-12{fill:#fddb41;}.cls-13{fill:#2c438c;}.cls-14{fill:#e38b6c;}.cls-15{fill:#d1714b;}.cls-16{fill:#6f5e77;}.cls-17{fill:#57425e;}.cls-18{fill:#fec6aa;}.cls-19{fill:#fda97b;}.cls-20{fill:#fc758a;}.cls-21{fill:#fd465a;}.cls-22{fill:#5071b4;}.cls-23{fill:#6288ca;}.cls-24{fill:#fa9360;}.cls-25{fill:#fea97b;}.cls-26{fill:#f19f8b;}.cls-27{fill:#bc6342;}.cls-28{fill:#5b7dbf;}</style></defs><g id="Layer_2" data-name="Layer 2"><g id="Layer_1-2" data-name="Layer 1"><path class="cls-1" d="M202.49,384H177a7.53,7.53,0,0,0-1.69-.67c-7.62-1.06-15.33-1.66-22.85-3.19a154.68,154.68,0,0,1-37.81-12.49c.53-1.55,1.51-3.08,1.52-4.63.14-18.52.15-37,.19-55.58,5.53,3.35,10.92,6.5,18,6.21a23.92,23.92,0,0,0,23.1-20.94c1.54-11.39-6.36-23-17.61-25.78-9-2.24-16.72.15-23.58,6.07-.36-17,9.72-25.7,24.7-30.54-2.43-.27-4.68-.16-6.9-.29-3.37-.19-5.16-2-5-5.27s.75-6.4,1-9.61c.65-7.28,1.23-14.57,1.85-21.86,5.22-4.26,10.41-8.56,15.71-12.73.77-.6,2.07-.53,3.12-.78,2,4.78,3.74,9.65,6,14.3,4.11,8.58,8.48,17,12.74,25.53l8.83,15.06q5.73,9.84,11.45,19.7c-1.43,8.12-2.87,16.24-4.32,24.47,1.06.06,1.23.12,1.3.06a4.31,4.31,0,0,0,.75-.79c9.95-14.54,23.51-24.18,40.21-29.55,2.9-.93,3.82-3,3.11-5.88-.59-2.42-1.36-4.8-1.87-7.24-.77-3.59.54-5.23,4.16-5.31,3.25-.07,6.5,0,9.75,0,7,0,8.45-2,7.57-8.93-1.2-9.49-2-19-2.93-28.54,10.67,4.06,21.25,8.42,32.06,12.07,6.68,2.26,13.12,4.58,18.17,9.71,2,4.27,4.65,8.36,5.85,12.84a483.09,483.09,0,0,1,13.08,72.5c.26,3.18.45,6.37.8,9.55.37,3.38.88,6.75,1.32,10.12-2.17,2-4.19,4.22-6.53,6-8.27,6.31-16.65,12.47-25,18.69,0-16.6.05-33.2,0-49.8a31.45,31.45,0,0,0-6.5-19.12,9.75,9.75,0,0,0-5.24-3.7c-5.15-1-7.72,1.84-7.72,7.78q0,37.62,0,75.25a170.82,170.82,0,0,1-53.9,15.81Q208.16,383.23,202.49,384Z"/><path class="cls-2" d="M114.64,367.65a154.68,154.68,0,0,0,37.81,12.49c7.52,1.53,15.23,2.13,22.85,3.19A7.53,7.53,0,0,1,177,384H0V0H310.51c-.8.26-1.59.57-2.4.77-8.52,2.1-16,5.85-20.91,13.47-2.12,0-4.23-.05-6.34,0a11.63,11.63,0,0,0-11.24,14.3c.42,2.06.65,4.15,1,6.23-4.94-2.1-9.8-4.38-14.82-6.27A182.38,182.38,0,0,0,163,18.6a177.07,177.07,0,0,0-56,18c-6.44-13-27.12-25-42.48-24.66a62.91,62.91,0,0,0-6.6.54C48,14.32,39.66,19.53,31.55,25.18A22.94,22.94,0,0,0,21.29,45.66c.28,9.46,1.23,18.9,1.89,28.35-2.7,2.41-2.78,5.37-1.78,8.54,1.1,3.55,2.19,7.1,3.38,10.62.93,2.77,2.78,4.36,5.89,4l.2,1.71,1.35,8c-3.61,7-7.7,13.73-10.72,20.94-3.2,7.66-5.38,15.75-8,23.65l0-.05-.54.65a172.74,172.74,0,0,0-6.33,48.12,178.59,178.59,0,0,0,17.88,79.23A174.51,174.51,0,0,0,62.24,331.7a4.24,4.24,0,0,0,.58.94C78.23,347.07,95.32,359,114.64,367.65Z"/><path class="cls-2" d="M202.49,384q5.67-.76,11.35-1.51a170.82,170.82,0,0,0,53.9-15.81l19.52-10.41c8.33-6.22,16.71-12.38,25-18.69,2.34-1.79,4.36-4,6.53-6,10.45-10.13,19.82-21.21,27.11-33.78,5.49-9.45,9.93-19.5,14.83-29.28.38-.78.83-1.53,1.14-2.34a184.18,184.18,0,0,0,12.27-62.44c.42-17.43-2-34.56-6.23-51.46a25.88,25.88,0,0,0,4.64-14.63c.1-4.07,1.5-8.11,2.44-12.14.66-2.86,1.52-5.67,2.29-8.5.42-5.39-1.84-9.69-5.56-13.35a13.36,13.36,0,0,1-3.62-14.41,24.31,24.31,0,0,0-2.56-20.51q-4.31-7.23-8.6-14.48c1.37-8.69,2.63-17.4,4.12-26.07,1.07-6.2-1.82-11.66-7.92-13.23-3.06-.78-6.4-.5-9.61-.7-3.61-3.19-6.88-6.91-10.92-9.41-3.68-2.3-8.19-3.28-12.33-4.84H384V384Z"/><path class="cls-3" d="M320.26,0c4.14,1.56,8.65,2.54,12.33,4.84,4,2.5,7.31,6.22,10.92,9.41h-24c-6,0-6.8,1-5.24,6.88-4.13,1.81-3.67,5.44-3.56,8.94-1.49.07-3,0-4.48.24-2.63.37-4.58,1.78-4.59,4.57s1.94,4.21,4.56,4.59a44.5,44.5,0,0,0,4.48.23c-.07,3.73-.56,7.66,4.29,9q-.36,3.69-.74,7.36l-8.85.76-20.71,5.49c-6.65,1.75-8.67.45-10.66-6.89q-1.73-10.33-3.46-20.67c-.32-2.08-.55-4.17-1-6.23a11.63,11.63,0,0,1,11.24-14.3c2.11-.08,4.22,0,6.34,0H314c-1.09-2.46-2.18-4.22-2.65-6.14-.87-3.54,1.8-5.69,3.69-8.1Z"/><path class="cls-4" d="M315,0c-1.89,2.41-4.56,4.56-3.69,8.1.47,1.92,1.56,3.68,2.65,6.14H287.2C292.15,6.62,299.59,2.87,308.11.77c.81-.2,1.6-.51,2.4-.77Z"/><path class="cls-5" d="M62.24,331.7a174.51,174.51,0,0,1-37.71-52.19A178.59,178.59,0,0,1,6.65,200.28c.19-.17.44-.29.55-.5,6.9-12.86,17.74-19.28,32.24-19.87,1.12,0,2.2-.93,3.3-1.43.23,0,.46,0,.7,0,5.28,8.24,12.49,14.6,20.26,20.34.9.66,3.46.15,4.53-.71A74.46,74.46,0,0,0,75,191.28c5.07-5.9,10.86-11.35,15-17.83,5.4-8.38,9.51-17.6,14.17-26.45,9.61,3.69,19.15,7.6,28.85,11,7.31,2.58,12.06,7.22,13.91,14.71,1.49,6,2.81,12.09,4.21,18.14l-.41,1.06c-1.05.25-2.35.18-3.12.78-5.3,4.17-10.49,8.47-15.71,12.73-13,4.76-26,9.31-38.91,14.34a24.49,24.49,0,0,0-15.53,18c-3.63,16.15-7.25,32.34-9.91,48.67C65.16,301.43,64,316.61,62.24,331.7Z"/><path class="cls-6" d="M62.24,331.7c1.74-15.09,2.92-30.27,5.36-45.25,2.66-16.33,6.28-32.52,9.91-48.67a24.49,24.49,0,0,1,15.53-18c12.87-5,25.93-9.58,38.91-14.34-.62,7.29-1.2,14.58-1.85,21.86-.29,3.21-.84,6.4-1,9.61s1.59,5.08,5,5.27c2.22.13,4.47,0,6.9.29-15,4.84-25.06,13.51-24.7,30.54-4.92,5.54-7.39,12-6.7,19.42.53,5.77,3.5,10.49,6.83,15,0,18.53,0,37.06-.19,55.58,0,1.55-1,3.08-1.52,4.63-19.32-8.64-36.41-20.58-51.82-35A4.24,4.24,0,0,1,62.24,331.7Z"/><path class="cls-7" d="M297.72,226.56c-5.05-5.13-11.49-7.45-18.17-9.71-10.81-3.65-21.39-8-32.06-12.07l-17.9-13.15a2.73,2.73,0,0,0-.2-.69c1.26-5.44,2.67-10.85,3.75-16.33,1.81-9.12,7.22-14.6,16.09-17.16,4.86-1.41,9.53-3.46,14.29-5.22l19.05-9.06c.87,4.63,1.67,9.28,2.62,13.9,1.35,6.52,2.81,13,4.22,19.53l4.17,25Z"/><path class="cls-8" d="M229.59,191.63l17.9,13.15c.95,9.51,1.73,19.05,2.93,28.54.88,7-.56,8.92-7.57,8.93-3.25,0-6.5-.05-9.75,0-3.62.08-4.93,1.72-4.16,5.31.51,2.44,1.28,4.82,1.87,7.24.71,2.86-.21,4.95-3.11,5.88-16.7,5.37-30.26,15-40.21,29.55a4.31,4.31,0,0,1-.75.79c-.07.06-.24,0-1.3-.06,1.45-8.23,2.89-16.35,4.32-24.47L202,245.9l8.18-14c5.46-12,10.88-24,16.4-35.93A30.58,30.58,0,0,1,229.59,191.63Z"/><path class="cls-9" d="M297.72,226.56l-4.14-25-4.17-25L309,180.75a4,4,0,0,0,.16.45c.71,5.91.88,12,2.24,17.7,2.44,10.26,5.21,20.48,8.64,30.44,1.59,4.63,4.91,8.79,10.78,9.15l0,2.28c-.4,1.77-.87,3.54-1.21,5.32-2.39,12.71-4.69,25.44-7.17,38.13-1.81,9.25-3.85,18.45-5.79,27.68a483.09,483.09,0,0,0-13.08-72.5C302.37,234.92,299.71,230.83,297.72,226.56Z"/><path class="cls-7" d="M316.65,311.9c1.94-9.23,4-18.43,5.79-27.68,2.48-12.69,4.78-25.42,7.17-38.13.34-1.78.81-3.55,1.21-5.32.25.8.54,1.59.74,2.41,2.69,11.27,6.78,21.51,19.58,24.63,3.07.75,6.37.5,9.57.7-4.9,9.78-9.34,19.83-14.83,29.28-7.29,12.57-16.66,23.65-27.11,33.78-.44-3.37-.95-6.74-1.32-10.12C317.1,318.27,316.91,315.08,316.65,311.9Z"/><path class="cls-4" d="M287.26,356.27l-19.52,10.41q0-37.62,0-75.25c0-5.94,2.57-8.74,7.72-7.78a9.75,9.75,0,0,1,5.24,3.7,31.45,31.45,0,0,1,6.5,19.12C287.31,323.07,287.26,339.67,287.26,356.27Z"/><path class="cls-10" d="M116.35,307.44c-3.33-4.53-6.3-9.25-6.83-15-.69-7.45,1.78-13.88,6.7-19.42,6.86-5.92,14.63-8.31,23.58-6.07,11.25,2.8,19.15,14.39,17.61,25.78a23.92,23.92,0,0,1-23.1,20.94C127.27,313.94,121.88,310.79,116.35,307.44ZM129,285c-1.48.12-3,.18-4.43.37-2.8.35-4.69,1.71-4.6,4.78s2.2,4.2,4.94,4.44c1.36.12,2.72.16,4.07.23,0,1.36,0,2.72,0,4.09.07,2.81,1.65,4.54,4.32,4.62,2.9.1,4.5-1.75,4.68-4.67.08-1.35,0-2.72,0-4.08,1.62-.1,3.26-.09,4.85-.33,2.52-.38,4.14-1.83,4.14-4.5s-1.68-4.07-4.17-4.49c-1.59-.26-3.22-.28-4.83-.41,0-1.37.07-2.75,0-4.12-.19-2.76-1.74-4.53-4.49-4.54s-4.34,1.68-4.48,4.49C128.89,282.22,129,283.6,129,285Z"/><path class="cls-11" d="M150.78,191.92c.14-.35.27-.71.41-1.07l6.27-2.53c1.22,1,2.54,2,3.64,3.12,6.54,6.78,13,13.61,19.53,20.42,1.28,4.75-2.1,8.26-3.27,12.36l-7.88,7.53c-4.26-8.5-8.63-16.95-12.74-25.53C154.52,201.57,152.75,196.7,150.78,191.92Z"/><path class="cls-5" d="M202,245.9l-12.23,20.61q-5.72-9.86-11.45-19.7l4.8-15.05c4.77-.64,9.54-1.4,14.17.72Z"/><path class="cls-7" d="M183.11,231.76l-4.8,15.05q-4.41-7.53-8.83-15.06l7.88-7.53Z"/><path class="cls-12" d="M157.46,188.32l-6.27,2.53c-1.4-6-2.72-12.11-4.21-18.13-1.85-7.49-6.6-12.13-13.91-14.71-9.7-3.41-19.24-7.32-28.85-11-.1-1.07.14-2.88-.34-3.1-4-1.82-8.17-3.35-12.28-5-3.83-2.82-5.53-6.81-6.26-11.33l2.59-3.17C93.88,117,97.71,108.64,98.26,99L99,97.35c3.26.17,5-1.69,5.9-4.54,1-3.28,2-6.61,3.11-9.85s1.08-6.27-1.58-8.83c.17-2,.48-4,.5-5.95.11-10.53,2.8-21.06.09-31.6a177.07,177.07,0,0,1,56-18,182.38,182.38,0,0,1,92.76,9.93c5,1.89,9.88,4.17,14.82,6.27q1.73,10.34,3.46,20.67l-7.62,12.9c-3.88,6.56-5.18,13.4-2.72,20.83,1.81,5.48.39,10.25-3.61,14.44-6.64,6.93-7.3,13.66-3.18,22.24a23.85,23.85,0,0,1,2.41,10.36c-.11,5.85.92,11.15,4.19,16-4.76,1.76-9.43,3.81-14.29,5.22-8.87,2.56-14.28,8-16.09,17.16-1.08,5.48-2.49,10.89-3.75,16.33l-6.49-2.48q-2.33-5.75-4.66-11.48c5.86-6.95,11.61-14.06,14.32-22.87,1.92-6.24,3-12.74,4.45-19.13,3.65.36,6.48-1.08,7.72-4.48,2.07-5.68,4-11.44,5.55-17.28,1.51-5.66-.45-9.3-5.06-10.59.69-8.18,1.43-16.36,2.07-24.55,1.22-15.54-3.49-28.84-15.56-39-11.21-9.45-24.61-13.3-39-14.19-11.26-.29-22.18,1.2-32.24,6.61C152,36,146.71,42.77,146.05,52.75A6.16,6.16,0,0,1,143.64,57a16.43,16.43,0,0,0-7.39,10.41,47.7,47.7,0,0,0-1.86,12.14c.13,7.71,1,15.41,1.54,23.11-4.85.88-7.24,4.49-5.85,9.62s3.45,9.87,4.74,14.91c1.46,5.69,3.34,7.59,9.11,7.87.44,12.75,4.86,24.09,12.3,34.32,1.9,2.6,3.91,5.11,5.87,7.66Q159.78,182.67,157.46,188.32Z"/><path class="cls-5" d="M107,36.58c2.71,10.54,0,21.07-.09,31.6,0,2-.33,4-.5,5.95l-5.92.2q-2.27-5.23-4.54-10.47c-.42-4.82-1.87-9.2-5.39-12.71-7.43-7.4-16.7-9.78-26.82-9.89a11.77,11.77,0,0,0-1.45-2.5c-4.33-4.42-5.85-9.66-3.72-15.4,1.48-4,3.93-7.64,6-11.44C79.87,11.56,100.55,23.57,107,36.58Z"/><path class="cls-13" d="M64.51,11.92c-2,3.8-4.47,7.44-6,11.44-2.13,5.74-.61,11,3.72,15.4a11.77,11.77,0,0,1,1.45,2.5c-4.58,1-9.32,1.55-13.72,3.09-8.91,3.13-15.15,8.89-16.13,18.94l-4.68,11-6-.3c-.66-9.45-1.61-18.89-1.89-28.35A22.94,22.94,0,0,1,31.55,25.18C39.66,19.53,48,14.32,57.91,12.46A62.91,62.91,0,0,1,64.51,11.92Z"/><path class="cls-3" d="M32.22,107q-.67-4-1.36-8A21.5,21.5,0,0,0,35,97.57c5.35-2.95,10.62-6,15.92-9.08l.76.15c.76,4.78,1.1,9.67,2.36,14.31,3.61,13.33,9.91,24.8,23.38,30.7l-11.52,3.71c-8.74.21-15.63-3.74-21.65-9.63A58.75,58.75,0,0,1,32.22,107Z"/><path class="cls-13" d="M42.74,178.48c-1.1.5-2.18,1.39-3.3,1.43-14.5.59-25.34,7-32.24,19.87-.11.21-.36.33-.55.5A172.74,172.74,0,0,1,13,152.16l.54-.65,0,.05,11.93-4.62A131.81,131.81,0,0,0,42.74,178.48Z"/><path class="cls-14" d="M51,88.49c-5.3,3-10.57,6.13-15.92,9.08a21.5,21.5,0,0,1-4.18,1.35c-.06-.57-.13-1.14-.19-1.72L29.2,74.31l4.68-11c2.38-2.79,4.29-6.28,7.23-8.22,7-4.6,15-6,23.34-6.07-1.7,1-3.41,2-5.08,3.12-6.21,4-9.76,9.31-9.19,17C50.64,75.59,50.71,82.05,51,88.49Z"/><path class="cls-12" d="M25.42,146.94l-11.93,4.62c2.63-7.9,4.81-16,8-23.65,3-7.21,7.11-14,10.72-20.94a58.75,58.75,0,0,0,12.07,20.76L38,139.07c-1.16.05-2.44-.2-3.46.2-2.42,1-4.67,2.37-7.09,3.34C25.25,143.48,24.6,144.8,25.42,146.94Z"/><path class="cls-15" d="M29.2,74.31,30.67,97.2c-3.11.33-5-1.26-5.89-4-1.19-3.52-2.28-7.07-3.38-10.62-1-3.17-.92-6.13,1.78-8.54Z"/><path class="cls-12" d="M13.52,151.51l-.54.65Z"/><path class="cls-11" d="M360.71,268.51c-3.2-.2-6.5.05-9.57-.7-12.8-3.12-16.89-13.36-19.58-24.63-.2-.82-.49-1.61-.74-2.41,0-.76,0-1.52,0-2.28a3.38,3.38,0,0,0,.57-1q5.69-30.47,11.33-61l6.45-33.39,18.74,9.08c4.21,16.9,6.65,34,6.23,51.46a184.18,184.18,0,0,1-12.27,62.44C361.54,267,361.09,267.73,360.71,268.51Z"/><path class="cls-10" d="M314.27,56.11q.38-3.68.74-7.36c4.66-1.51,4.82-1.82,4.75-8.82,1.6-.15,3.22-.22,4.81-.48,2.67-.42,4.81-2.11,4.21-4.71-.38-1.7-2.55-3.29-4.29-4.31-1.27-.74-3.14-.45-4.74-.61.1-7.19-.24-7.73-5.43-8.69-1.57-5.87-.81-6.87,5.23-6.88h24c3.21.2,6.55-.08,9.61.7,6.1,1.57,9,7,7.92,13.23-1.49,8.67-2.75,17.38-4.12,26.07a16.71,16.71,0,0,0-.66,2c-1.07,5.36-2.89,6.85-8.33,6.75A76.55,76.55,0,0,0,314.27,56.11Z"/><path class="cls-16" d="M347.93,63c5.44.1,7.26-1.39,8.33-6.75a16.71,16.71,0,0,1,.66-2q4.31,7.24,8.6,14.48a24.31,24.31,0,0,1,2.56,20.51,13.36,13.36,0,0,0,3.62,14.41c3.72,3.66,6,8,5.56,13.35-1.1.54-2.2,1.07-3.29,1.62-6.67,3.36-13.51,4.72-20,.08-2.84-2-4.93-5.09-7.35-7.68l5.13-15.89c2.93.09,5.16-1.2,6.11-3.91,1.39-4,2.9-8,3.43-12.08a10.42,10.42,0,0,0-2.1-7.31c-1.94-2.27-5-1.4-7.46.19Q349.81,67.54,347.93,63Z"/><path class="cls-17" d="M346.59,111c2.42,2.59,4.51,5.67,7.35,7.68,6.52,4.64,13.36,3.28,20-.08,1.09-.55,2.19-1.08,3.29-1.62-.77,2.83-1.63,5.64-2.29,8.5-.94,4-2.34,8.07-2.44,12.14a25.88,25.88,0,0,1-4.64,14.63l-18.74-9.08c-5.55-3.59-10.62-7.61-12.66-14.31Z"/><path class="cls-18" d="M346.59,111l-10.1,17.86c-2.6,1.91-5.14,3.9-7.83,5.66a3.25,3.25,0,0,1-2.88.27c-3.46-2.6-7.18-5-10-8.25-8.77-9.92-13.16-22.07-15.34-34.83-1.16-6.77-2-14.19,1.33-20.62a31.75,31.75,0,0,0,3.66-14.24l8.85-.76A76.55,76.55,0,0,1,347.93,63q1.89,4.49,3.77,9,0,11.55,0,23.11Z"/><path class="cls-19" d="M305.42,56.87a31.75,31.75,0,0,1-3.66,14.24c-3.31,6.43-2.49,13.85-1.33,20.62,2.18,12.76,6.57,24.91,15.34,34.83,2.83,3.21,6.55,5.65,10,8.25a3.25,3.25,0,0,0,2.88-.27c2.69-1.76,5.23-3.75,7.83-5.66,2,6.7,7.11,10.72,12.66,14.31l-6.45,33.39a81.7,81.7,0,0,1-33.56,4.62,4,4,0,0,1-.16-.45c5.18-12.25,6.43-25.19,6.71-38.29,0-1-.78-2.64-1.5-2.83-7.37-2-13-6.65-18.64-11.4-3.86-7.5-7.89-14.92-11.52-22.54-1.59-3.33-2.36-7-3.5-10.58q0-11.55,0-23.12l4.17-9.63Z"/><path class="cls-17" d="M284.71,62.36,280.54,72c-2.51-1.6-5.58-2.41-7.49-.08a10.65,10.65,0,0,0-2,7.41c.51,4,2,7.93,3.36,11.8.95,2.76,3.14,4.07,6.1,4,1.14,3.54,1.91,7.25,3.5,10.58,3.63,7.62,7.66,15,11.52,22.54-2.11,6.91-7,11.37-13,14.94l-19.05,9.06c-3.27-4.84-4.3-10.14-4.19-16a23.85,23.85,0,0,0-2.41-10.36c-4.12-8.58-3.46-15.31,3.18-22.24,4-4.19,5.42-9,3.61-14.44-2.46-7.43-1.16-14.27,2.72-20.83l7.62-12.9C276,62.81,278.06,64.11,284.71,62.36Z"/><path class="cls-20" d="M319.75,29.82c1.6.16,3.47-.13,4.74.61,1.74,1,3.91,2.61,4.29,4.31.6,2.6-1.54,4.29-4.21,4.71-1.59.26-3.21.33-4.81.48l-9-.23a44.5,44.5,0,0,1-4.48-.23c-2.62-.38-4.57-1.8-4.56-4.59s2-4.2,4.59-4.57c1.48-.2,3-.17,4.48-.24Z"/><path class="cls-21" d="M310.72,39.7l9,.23c.07,7-.09,7.31-4.75,8.82C310.16,47.36,310.65,43.43,310.72,39.7Z"/><path class="cls-21" d="M319.75,29.82l-9,.25c-.11-3.5-.57-7.13,3.56-8.94C319.51,22.09,319.85,22.63,319.75,29.82Z"/><path class="cls-22" d="M91.6,138.93c4.11,1.62,8.26,3.15,12.28,5,.48.22.24,2,.34,3.1-4.66,8.85-8.77,18.07-14.17,26.45-4.18,6.48-10,11.93-15,17.83a32.9,32.9,0,0,0-2.41-3.07c-2.41-2.4-4.91-4.72-7.38-7.07C77.35,169.16,86.52,155.32,91.6,138.93Z"/><path class="cls-22" d="M25.42,146.94c-.82-2.14-.17-3.46,2-4.33,2.42-1,4.67-2.38,7.09-3.34,1-.4,2.3-.15,3.46-.2,3.26,11.45,9.3,21.45,16.21,31-6.78.48-9,1.83-10,6.08-.19.8-.53,1.57-.8,2.36-.24,0-.47,0-.7,0A131.81,131.81,0,0,1,25.42,146.94Z"/><path class="cls-23" d="M43.44,178.51c.27-.79.61-1.56.8-2.36,1-4.25,3.18-5.6,10-6.08l.52,0,10.5,11c2.47,2.35,5,4.67,7.38,7.07A32.9,32.9,0,0,1,75,191.28a74.46,74.46,0,0,1-6.78,6.86c-1.07.86-3.63,1.37-4.53.71C55.93,193.11,48.72,186.75,43.44,178.51Z"/><path class="cls-24" d="M282.57,143.17c5.95-3.57,10.87-8,13-14.94,5.63,4.75,11.27,9.43,18.64,11.4.72.19,1.52,1.86,1.5,2.83-.28,13.1-1.53,26-6.71,38.29l-19.57-4.14c-1.41-6.52-2.87-13-4.22-19.54C284.24,152.45,283.44,147.8,282.57,143.17Z"/><path class="cls-11" d="M222.9,188.46l6.49,2.48a2.73,2.73,0,0,1,.2.69,30.58,30.58,0,0,0-3,4.39C221.05,208,215.63,220,210.17,232l-6.74-7.77q-1.59-6.17-3.17-12.35Z"/><path class="cls-7" d="M203.43,224.18l6.74,7.77-8.18,14-4.71-13.42Z"/><path class="cls-7" d="M309.14,181.2a81.7,81.7,0,0,0,33.56-4.62q-5.65,30.48-11.33,61a3.38,3.38,0,0,1-.57,1c-5.87-.36-9.19-4.52-10.78-9.15-3.43-10-6.2-20.18-8.64-30.44C310,193.15,309.85,187.11,309.14,181.2Z"/><path class="cls-20" d="M128.94,294.79c-1.35-.07-2.71-.11-4.07-.23-2.74-.24-4.84-1.33-4.94-4.44s1.8-4.43,4.6-4.78c1.47-.19,3-.25,4.43-.37l9,0c1.61.13,3.24.15,4.83.41,2.49.42,4.18,1.8,4.17,4.49s-1.62,4.12-4.14,4.5c-1.59.24-3.23.23-4.85.33Z"/><path class="cls-21" d="M128.94,294.79l9,0c0,1.36.05,2.73,0,4.08-.18,2.92-1.78,4.77-4.68,4.67-2.67-.08-4.25-1.81-4.32-4.62C128.92,297.51,129,296.15,128.94,294.79Z"/><path class="cls-21" d="M138,285l-9,0c0-1.37-.07-2.75,0-4.12.14-2.81,1.75-4.5,4.48-4.49s4.3,1.78,4.49,4.54C138,282.27,138,283.65,138,285Z"/><path class="cls-24" d="M157.46,188.32q2.31-5.64,4.64-11.29c6.78,5.65,13.58,11.38,22.8,12.4,3.44.38,3.85,2.22,3.15,4.78-1.59,5.82-3.37,11.58-5.08,17.37l-2.34.28c-6.5-6.81-13-13.64-19.53-20.42C160,190.3,158.68,189.36,157.46,188.32Z"/><path class="cls-22" d="M180.63,211.86l2.34-.28,17.29.25q1.58,6.18,3.17,12.35l-6.15,8.3c-4.63-2.12-9.4-1.36-14.17-.72l-5.75-7.54C178.53,220.12,181.91,216.61,180.63,211.86Z"/><path class="cls-18" d="M237,135c-1.46,6.39-2.53,12.89-4.45,19.13-2.71,8.81-8.46,15.92-14.32,22.88-2.28,1.91-4.7,3.69-6.82,5.77-3,3-5.68,2.31-8.34-.32-3.8-3.75-7.92-7.24-11.25-11.37a61.34,61.34,0,0,1-13.37-32.33c-.87-7.77-2.07-15.51-2.75-23.29-.53-6.19-1.32-12.64,1.95-18.31,2.77-4.8,3.33-9.75,3.13-15.08-.31-8.07,1.57-15.57,6.7-22,4-.63,8.06-1.34,12.1-1.88,5.28-.71,10.58-1.79,15.87-1.78,9,0,15.09,4.94,17,13.86,1.09,5,.91,10.37,1.52,15.54A45.77,45.77,0,0,0,235.74,94c1,3.19,2.37,6.25,3.59,9.37a68.71,68.71,0,0,1,.12,7.31C238.73,118.81,237.83,126.9,237,135Z"/><path class="cls-25" d="M187.49,60c-5.13,6.46-7,14-6.7,22,.2,5.33-.36,10.28-3.13,15.08-3.27,5.67-2.48,12.12-1.95,18.31.68,7.78,1.88,15.52,2.75,23.29a61.34,61.34,0,0,0,13.37,32.33c3.33,4.13,7.45,7.62,11.25,11.37,2.66,2.63,5.33,3.29,8.34.32,2.12-2.08,4.54-3.86,6.82-5.77q2.32,5.73,4.66,11.47l-22.64,23.37L183,211.58c1.71-5.79,3.49-11.55,5.08-17.37.7-2.56.29-4.4-3.15-4.78-9.22-1-16-6.75-22.8-12.4-2-2.55-4-5.06-5.87-7.66-7.44-10.23-11.86-21.57-12.3-34.32-.41-3.42-.9-6.82-1.19-10.25-.61-7.22-1.12-14.46-1.66-21.69.86-2.33,1.38-4.88,2.67-7a21.62,21.62,0,0,0,3.12-13.22,66.72,66.72,0,0,1,.11-7.48c.62-11,7.37-18.69,17.3-19.08,4.67-.18,9.4.63,14.08,1.2,3.07.38,6.09,1.15,9.13,1.74Z"/><path class="cls-15" d="M187.49,60v-.71c-.63-1.07-1.23-2.16-1.89-3.21-6.89-10.92-5.35-22.32,5.5-29.34a8.88,8.88,0,0,0,1.62-1.9c14.4.89,27.8,4.74,39,14.19,12.07,10.18,16.78,23.48,15.56,39-.64,8.19-1.38,16.37-2.07,24.55l-5.89.78c-1.22-3.12-2.6-6.18-3.59-9.37A45.77,45.77,0,0,1,234,85.77c-.61-5.17-.43-10.49-1.52-15.54-1.91-8.92-8-13.84-17-13.86-5.29,0-10.59,1.07-15.87,1.78C195.55,58.69,191.52,59.4,187.49,60Z"/><path class="cls-26" d="M51,88.49c-.25-6.44-.32-12.9-.78-19.33-.57-7.73,3-13.07,9.19-17C61,51.05,62.75,50,64.45,49a77.57,77.57,0,0,1,7.79.52c9.78,1.62,19.1,4.12,23.7,14.34q2.28,5.24,4.54,10.47-.75,11.51-1.51,23c-.24.54-.48,1.09-.71,1.63-3.72-2-7.56-3.87-11.12-6.14-11.17-7.13-23-8.35-35.42-4.2Z"/><path class="cls-27" d="M192.72,24.87a8.88,8.88,0,0,1-1.62,1.9c-10.85,7-12.39,18.42-5.5,29.34.66,1,1.26,2.14,1.89,3.21-3-.59-6.06-1.36-9.13-1.74-4.68-.57-9.41-1.38-14.08-1.2-9.93.39-16.68,8.09-17.3,19.08a66.72,66.72,0,0,0-.11,7.48,21.62,21.62,0,0,1-3.12,13.22c-1.29,2.07-1.81,4.62-2.67,6.94l-5.15-.45c-.55-7.7-1.41-15.4-1.54-23.11a47.7,47.7,0,0,1,1.86-12.14A16.43,16.43,0,0,1,143.64,57a6.16,6.16,0,0,0,2.41-4.24c.66-10,6-16.72,14.43-21.27C170.54,26.07,181.46,24.58,192.72,24.87Z"/><path class="cls-10" d="M51.72,88.64c12.46-4.15,24.25-2.93,35.42,4.2C90.7,95.11,94.54,97,98.26,99c-.55,9.66-4.38,18-10.33,25.45l-2.59,3.17-7.88,6.05C64,127.75,57.69,116.28,54.08,103,52.82,98.31,52.48,93.42,51.72,88.64Z"/><path class="cls-14" d="M77.46,133.65l7.88-6.05c.73,4.52,2.43,8.51,6.26,11.33-5.08,16.39-14.25,30.23-26.38,42.21l-10.5-11a14.19,14.19,0,0,1,1-1.94c6.66-9.19,9.7-19.58,10.22-30.81Z"/><path class="cls-24" d="M135.93,102.65l5.15.45c.54,7.24,1,14.48,1.66,21.7.29,3.43.78,6.83,1.19,10.25-5.77-.28-7.65-2.18-9.11-7.87-1.29-5-3.38-9.88-4.74-14.91S131.08,103.53,135.93,102.65Z"/><path class="cls-25" d="M239.33,103.41l5.89-.78c4.61,1.29,6.57,4.93,5.06,10.59-1.56,5.84-3.48,11.6-5.55,17.28-1.24,3.4-4.07,4.84-7.72,4.48.82-8.08,1.72-16.17,2.44-24.26A68.71,68.71,0,0,0,239.33,103.41Z"/><path class="cls-14" d="M99,97.35q.75-11.5,1.51-23l5.92-.2c2.66,2.56,2.77,5.52,1.58,8.83s-2.06,6.57-3.11,9.85C104,95.66,102.23,97.52,99,97.35Z"/><path class="cls-28" d="M95.94,63.86C91.34,53.64,82,51.14,72.24,49.52A77.57,77.57,0,0,0,64.45,49c-8.31,0-16.37,1.47-23.34,6.07-2.94,1.94-4.85,5.43-7.23,8.22,1-10,7.22-15.81,16.13-18.94,4.4-1.54,9.14-2.09,13.72-3.09,10.12.11,19.39,2.49,26.82,9.89C94.07,54.66,95.52,59,95.94,63.86Z"/><path class="cls-15" d="M65.94,137.36c-.52,11.23-3.56,21.62-10.22,30.81a14.19,14.19,0,0,0-1,1.94l-.52,0c-6.91-9.55-13-19.55-16.21-31l6.3-11.34C50.31,133.62,57.2,137.57,65.94,137.36Z"/><path class="cls-19" d="M351.72,95.13q0-11.55,0-23.11c2.48-1.59,5.52-2.46,7.46-.19a10.42,10.42,0,0,1,2.1,7.31c-.53,4.11-2,8.13-3.43,12.08C356.88,93.93,354.65,95.22,351.72,95.13Z"/><path class="cls-24" d="M280.53,95.11c-3,.08-5.15-1.23-6.1-4-1.33-3.87-2.85-7.79-3.36-11.8a10.65,10.65,0,0,1,2-7.41c1.91-2.33,5-1.52,7.49.08Q280.54,83.56,280.53,95.11Z"/></g></g></svg>