<svg xmlns="http://www.w3.org/2000/svg" viewBox="0 0 384 384"><defs><style>.clas-11{fill:#fdfdfd;}.clas-12{fill:#e3e7ea;}.clas-13{fill:#f66c82;}.clas-14{fill:#c9cfd6;}.clas-15{fill:#636d77;}.clas-16{fill:#a8afba;}.clas-17{fill:#51c0e7;}.clas-18{fill:#4fbfe7;}.clas-19{fill:#fefdfd;}.clas-110{fill:#3cadd8;}.clas-111{fill:#3badd8;}.clas-112{fill:#66d3f0;}</style></defs><g id="Layer_2" data-name="Layer 2"><g id="Layer_1-2" data-name="Layer 1"><path class="clas-11" d="M384,384H0V0H384ZM12.68,351.78c-3.37.87-6.15,2.38-6.22,6.39-.07,4.5-.14,9,0,13.49.14,3.48,2.23,5.44,5.7,5.8a35.79,35.79,0,0,0,3.74.09H368c1.13,0,2.26,0,3.37-.05,3.8-.3,5.95-2.38,6.12-6.21.16-3.62.08-7.24.07-10.87,0-5.72-.86-6.84-6.28-8.64V181.59c0-6.65-2.41-9.09-9-9.09q-33.74,0-67.46,0a23.58,23.58,0,0,1-.76-4.25q-.07-38.91,0-77.82c0-5.24-2-7.26-7.18-7.29-6,0-12,0-18,0-.07-1.49-.19-3-.19-4.48,0-19.76,0-39.51,0-59.27,0-7.71-5-12.91-12.54-12.93q-64.12-.11-128.25,0c-7.56,0-12.5,5.22-12.53,12.93-.07,16,0,32,0,48,0,5.25-.12,10.49-.19,15.74l-17.21,0c-6.17,0-7.93,1.78-7.93,8q0,38.53,0,77.08a23.58,23.58,0,0,1-.76,4.25L22,172.5c-7.1,0-9.36,2.28-9.36,9.46Z"/><path class="clas-12" d="M89.13,172.52a23.58,23.58,0,0,0,.76-4.25q.08-38.53,0-77.08c0-6.25,1.76-8,7.93-8l17.21,0q.12,12.18.23,24.36c.08,9.1,4.83,14,13.83,14q62.82,0,125.64,0c9,0,13.77-4.86,13.85-14q.09-12.18.23-24.36c6,0,12,0,18,0,5.16,0,7.18,2,7.18,7.29q0,38.91,0,77.82a23.32,23.32,0,0,0,.76,4.24c0,1.38-.07,2.75-.07,4.13V351.73l-32.24,0q0-44.62,0-89.25c5.36-1.78,6-2.63,6-7.93q0-18.18,0-36.38c0-4.84-1.95-6.79-6.82-6.79H122.21c-4.86,0-6.8,1.94-6.81,6.79q0,18.2,0,36.38c0,5.3.68,6.15,6,7.93q0,44.63,0,89.25l-32.24,0q0-30,0-60Q89.17,232.13,89.13,172.52Zm102.76-18.89c-3.87,0-7.74,0-11.62,0-5,0-7.45,2.28-7.65,7.17-.15,3.75-.16,7.51,0,11.25.2,4.65,2.76,7.08,7.4,7.12q12,.08,24,0c4.44,0,7-2.43,7.27-6.86.19-3.87.18-7.76,0-11.62-.21-4.69-2.73-7-7.4-7C199.89,153.6,195.89,153.63,191.89,153.63Zm-60.55,0c-3.13,0-6.25-.06-9.38,0-4.26.1-6.51,2.26-6.61,6.45s-.09,8.25,0,12.37,2.22,6.55,6.46,6.66q9.36.24,18.75,0c4.18-.11,6.38-2.51,6.46-6.69q.12-6,0-12c-.08-4.47-2.26-6.67-6.67-6.78C137.34,153.57,134.34,153.63,131.34,153.63Zm121.41,0c-3,0-6,0-9,0-4.5.09-6.74,2.23-6.84,6.63q-.14,6.18,0,12.37c.09,4,2.29,6.36,6.28,6.48,6.37.18,12.76.18,19.13,0,4-.12,6.14-2.45,6.24-6.48s.1-8.25,0-12.37c-.1-4.41-2.32-6.54-6.83-6.63C258.75,153.58,255.75,153.63,252.75,153.63Z"/><path class="clas-13" d="M268.85,83.14q-.12,12.18-.23,24.36c-.08,9.1-4.84,14-13.85,14q-62.82,0-125.64,0c-9,0-13.75-4.86-13.83-14q-.09-12.18-.23-24.36c.07-5.25.19-10.49.19-15.74,0-16,0-32,0-48,0-7.71,5-12.91,12.53-12.93q64.13-.11,128.25,0c7.56,0,12.51,5.22,12.54,12.93.07,19.76,0,39.51,0,59.27C268.66,80.15,268.78,81.65,268.85,83.14ZM179.19,51c-4.34,0-8.19-.09-12,0-4.68.14-7.13,2.57-7.29,7.23-.12,3.37-.05,6.74,0,10.12,0,6,2.15,8.16,8.06,8.2,3.69,0,7.39,0,11.29,0,0,4.46-.05,8.32,0,12.18.07,4.67,2.5,7.07,7.2,7.14,3.5.06,7,0,10.49,0,5.6,0,7.81-2.31,7.84-8,0-3.69,0-7.37,0-10.86a9.35,9.35,0,0,1,1.3-.39c3.5,0,7,0,10.48-.07,5.2-.08,7.46-2.34,7.55-7.58q.09-5.07,0-10.12c-.1-5.35-2.5-7.77-7.81-7.86-3.71-.06-7.42,0-11.53,0,0-4.26.05-8.1,0-11.94-.07-4.67-2.26-6.94-6.84-7-4-.08-8-.09-12,0-4.37.1-6.61,2.38-6.7,6.79C179.13,42.67,179.19,46.53,179.19,51Z"/><path class="clas-14" d="M294.72,351.73V176.64c0-1.38,0-2.75.07-4.13q33.73,0,67.46,0c6.58,0,9,2.44,9,9.09V351.78c-7.34,0-14.68.11-22,.1Q322,351.84,294.72,351.73Zm25.42-140.62c0,1.87,0,3.74,0,5.62.07,4.74,2.38,7.23,7,7.36,3.86.11,7.74.17,11.61,0,4.41-.21,6.82-2.81,6.91-7.22.08-3.62.07-7.24,0-10.86-.08-5-2.24-7.45-7.18-7.78a79.42,79.42,0,0,0-11.23,0c-5.29.39-7.1,2.59-7.13,8C320.13,207.86,320.14,209.48,320.14,211.11Zm0,51.15c0,2,0,4,0,6,.11,4.65,2.28,6.88,6.88,7,3.86.07,7.73.08,11.59,0,4.21-.09,6.89-2.59,7-6.66s.15-8.23,0-12.34-2.7-6.39-6.68-6.51c-2.12-.07-4.24,0-6.36,0C320.34,249.67,320.14,249.88,320.14,262.26Zm12.73,64.05h4.87c5.58,0,7.9-2.33,7.94-7.92,0-3.49.07-7,0-10.48-.11-4.42-2.61-7-6.95-7.12-4-.11-8-.1-12,0-4.22.1-6.44,2.33-6.6,6.48-.08,2.12,0,4.24,0,6.36C320.14,326.16,320.29,326.31,332.87,326.31Z"/><path class="clas-14" d="M89.13,172.52q0,59.61.07,119.22,0,30,0,60l-76.52,0V182c0-7.18,2.26-9.46,9.36-9.46ZM63.78,211.24c0-1.87,0-3.75,0-5.62-.07-4.63-1.68-6.78-6.28-7.21a72.79,72.79,0,0,0-12.7-.09c-4.56.38-6.47,2.85-6.55,7.55q-.11,5.44,0,10.87c.08,4.6,2.53,7.17,7.18,7.34,3.87.15,7.75.15,11.61,0,4.42-.16,6.61-2.48,6.73-6.84C63.82,215.24,63.78,213.24,63.78,211.24ZM51,249.67H46.17c-5.58,0-7.89,2.34-7.93,7.94,0,3.49-.07,7,0,10.47.11,4.42,2.62,7,7,7.12q6,.15,12,0c4.2-.1,6.42-2.33,6.58-6.5.08-2.11,0-4.24,0-6.36C63.79,249.82,63.64,249.67,51,249.67Zm12.75,64c0-2,0-4,0-6-.11-4.65-2.28-6.87-6.89-7-4-.07-8-.11-12,0a6.42,6.42,0,0,0-6.61,6.28c-.19,4.35-.22,8.73,0,13.08.19,3.78,2.81,6,6.66,6.14,2.12.06,4.24,0,6.36,0C63.56,326.31,63.79,326.09,63.78,313.71Z"/><path class="clas-15" d="M12.68,351.78l76.52,0,32.24,0H147l38.31.06h13.34l38.31-.06h25.54l32.24,0q27.25.07,54.5.15c7.34,0,14.68-.06,22-.1,5.42,1.8,6.25,2.92,6.28,8.64,0,3.63.09,7.25-.07,10.87-.17,3.83-2.32,5.91-6.12,6.21-1.11.09-2.24.05-3.37.05H16a35.79,35.79,0,0,1-3.74-.09c-3.47-.36-5.56-2.32-5.7-5.8-.19-4.49-.12-9,0-13.49C6.53,354.16,9.31,352.65,12.68,351.78Z"/><path class="clas-16" d="M121.42,262.51c-5.35-1.78-6-2.63-6-7.93q0-18.18,0-36.38c0-4.85,1.95-6.79,6.81-6.79H261.7c4.87,0,6.81,2,6.82,6.79q0,18.2,0,36.38c0,5.3-.67,6.15-6,7.93l-25.65,0-38.17.05H185.24l-38.17-.05Z"/><path class="clas-14" d="M121.42,262.51l25.65,0q0,6.74,0,13.47v2.21L147,351.76H121.44Q121.44,307.14,121.42,262.51Z"/><path class="clas-14" d="M236.85,262.53l25.65,0q0,44.63,0,89.25H236.94q-.06-12.76-.13-25.54Q236.83,294.38,236.85,262.53Z"/><path class="clas-17" d="M191.89,153.63c4,0,8,0,12,0,4.67,0,7.19,2.35,7.4,7,.18,3.86.19,7.75,0,11.62-.23,4.43-2.83,6.83-7.27,6.86q-12,.1-24,0c-4.64,0-7.2-2.47-7.4-7.12-.16-3.74-.15-7.5,0-11.25.2-4.89,2.68-7.13,7.65-7.17C184.15,153.6,188,153.63,191.89,153.63Z"/><path class="clas-18" d="M131.34,153.63c3,0,6-.06,9,0,4.41.11,6.59,2.31,6.67,6.78q.12,6,0,12c-.08,4.18-2.28,6.58-6.46,6.69q-9.37.24-18.75,0c-4.24-.11-6.37-2.43-6.46-6.66s-.09-8.25,0-12.37,2.35-6.35,6.61-6.45C125.09,153.57,128.21,153.63,131.34,153.63Z"/><path class="clas-18" d="M252.75,153.63c3,0,6,0,9,0,4.51.09,6.73,2.22,6.83,6.63q.14,6.18,0,12.37c-.1,4-2.21,6.36-6.24,6.48-6.37.18-12.76.18-19.13,0-4-.12-6.19-2.53-6.28-6.48q-.15-6.18,0-12.37c.1-4.4,2.34-6.54,6.84-6.63C246.75,153.58,249.75,153.63,252.75,153.63Z"/><path class="clas-19" d="M179.19,51c0-4.47-.06-8.33,0-12.18.09-4.41,2.33-6.69,6.7-6.79,4-.1,8-.09,12,0,4.58.1,6.77,2.37,6.84,7,.06,3.84,0,7.68,0,11.94,4.11,0,7.82,0,11.53,0,5.31.09,7.71,2.51,7.81,7.86q.09,5.06,0,10.12c-.09,5.24-2.35,7.5-7.55,7.58-3.49.05-7,0-10.48.07a9.35,9.35,0,0,0-1.3.39c0,3.49,0,7.17,0,10.86,0,5.71-2.24,8-7.84,8-3.5,0-7,0-10.49,0-4.7-.07-7.13-2.47-7.2-7.14-.06-3.86,0-7.72,0-12.18-3.9,0-7.6,0-11.29,0-5.91,0-8-2.19-8.06-8.2,0-3.38-.09-6.75,0-10.12.16-4.66,2.61-7.09,7.29-7.23C171,50.91,174.85,51,179.19,51Z"/><path class="clas-110" d="M320.14,211.11c0-1.63,0-3.25,0-4.87,0-5.42,1.84-7.62,7.13-8a79.42,79.42,0,0,1,11.23,0c4.94.33,7.1,2.8,7.18,7.78.06,3.62.07,7.24,0,10.86-.09,4.41-2.5,7-6.91,7.22-3.87.19-7.75.13-11.61,0-4.63-.13-6.94-2.62-7-7.36C320.12,214.85,320.14,213,320.14,211.11Z"/><path class="clas-111" d="M320.14,262.26c0-12.38.2-12.59,12.46-12.59,2.12,0,4.24,0,6.36,0,4,.12,6.52,2.48,6.68,6.51s.15,8.23,0,12.34-2.82,6.57-7,6.66c-3.86.09-7.73.08-11.59,0-4.6-.09-6.77-2.32-6.88-7C320.1,266.25,320.14,264.25,320.14,262.26Z"/><path class="clas-111" d="M332.87,326.31c-12.58,0-12.73-.15-12.73-12.69,0-2.12-.06-4.24,0-6.36.16-4.15,2.38-6.38,6.6-6.48,4-.09,8-.1,12,0,4.34.11,6.84,2.7,6.95,7.12.08,3.49,0,7,0,10.48,0,5.59-2.36,7.88-7.94,7.92Z"/><path class="clas-110" d="M63.78,211.24c0,2,0,4,0,6-.12,4.36-2.31,6.68-6.73,6.84-3.86.15-7.74.15-11.61,0-4.65-.17-7.1-2.74-7.18-7.34q-.11-5.43,0-10.87c.08-4.7,2-7.17,6.55-7.55a72.79,72.79,0,0,1,12.7.09c4.6.43,6.21,2.58,6.28,7.21C63.81,207.49,63.78,209.37,63.78,211.24Z"/><path class="clas-111" d="M51,249.67c12.61,0,12.76.15,12.75,12.67,0,2.12.06,4.25,0,6.36-.16,4.17-2.38,6.4-6.58,6.5q-6,.15-12,0c-4.34-.11-6.85-2.7-7-7.12-.08-3.49,0-7,0-10.47,0-5.6,2.35-7.9,7.93-7.94Z"/><path class="clas-111" d="M63.78,313.71c0,12.38-.22,12.6-12.45,12.6-2.12,0-4.24.05-6.36,0-3.85-.12-6.47-2.36-6.66-6.14-.23-4.35-.2-8.73,0-13.08a6.42,6.42,0,0,1,6.61-6.28c4-.13,8-.09,12,0,4.61.08,6.78,2.3,6.89,7C63.82,309.72,63.78,311.72,63.78,313.71Z"/><path class="clas-112" d="M147,351.76l.12-73.55a15.12,15.12,0,0,1,2,2.41c4.6,8.51,8.63,17.37,13.83,25.49A42.78,42.78,0,0,0,185.21,324q0,13.9.08,27.81Z"/><path class="clas-112" d="M236.81,326.22q.06,12.78.13,25.54l-38.31.06q0-29.67,0-59.34c3.52,5.26,6.7,10.8,10.63,15.73C216.43,317.17,225.07,324.15,236.81,326.22Z"/><path class="clas-111" d="M198.67,292.48q0,29.67,0,59.34H185.29q0-13.9-.08-27.81l0-61.43h13.44Q198.68,277.54,198.67,292.48Z"/><path class="clas-18" d="M198.67,292.48q0-15,0-29.9l38.17-.05q0,31.85,0,63.69c-11.74-2.07-20.38-9.05-27.51-18C205.37,303.28,202.19,297.74,198.67,292.48Z"/><path class="clas-18" d="M185.24,262.58l0,61.43a42.78,42.78,0,0,1-22.27-17.9c-5.2-8.12-9.23-17-13.83-25.49a15.12,15.12,0,0,0-2-2.41v-1.47c.07-.07.23-.16.22-.22a3.33,3.33,0,0,0-.21-.52q0-6.74,0-13.47Z"/><path class="clas-112" d="M147.11,276a3.33,3.33,0,0,1,.21.52c0,.06-.15.15-.22.22C147.1,276.49,147.11,276.24,147.11,276Z"/></g></g></svg>