<svg id="svg" version="1.1" xmlns="http://www.w3.org/2000/svg" xmlns:xlink="http://www.w3.org/1999/xlink" width="250" height="200" viewBox="0, 0, 400,400"><g id="svgg"><path id="path0" d="M18.800 137.600 L 18.800 231.200 112.400 231.200 L 206.000 231.200 206.000 175.000 L 206.000 118.800 212.400 118.800 L 218.800 118.800 218.800 176.625 L 218.800 234.450 217.716 236.663 C 216.357 239.440,213.430 242.107,210.566 243.178 C 208.379 243.997,208.054 244.000,132.385 244.000 L 56.400 244.000 56.400 312.600 L 56.400 381.200 168.800 381.200 L 281.200 381.200 281.200 212.600 L 281.200 44.000 237.600 44.000 L 194.000 44.000 194.000 68.800 L 194.000 93.600 199.996 93.600 L 205.992 93.600 206.096 74.900 L 206.200 56.200 212.400 56.200 L 218.600 56.200 218.705 76.400 C 218.825 99.608,218.891 99.108,215.236 102.527 C 211.372 106.142,210.400 106.388,200.000 106.388 C 191.830 106.388,189.803 106.166,188.118 105.084 C 187.750 104.848,187.608 106.434,187.518 111.788 L 187.400 118.801 190.700 118.800 L 194.000 118.800 194.000 168.800 L 194.000 218.800 112.599 218.800 L 31.198 218.800 31.299 137.500 L 31.400 56.200 106.300 56.099 L 181.200 55.998 181.200 49.999 L 181.200 44.000 100.000 44.000 L 18.800 44.000 18.800 137.600 M294.000 123.392 L 294.000 193.600 306.400 193.600 L 318.800 193.600 318.800 136.174 C 318.800 95.431,318.673 78.510,318.363 77.931 C 318.123 77.482,312.543 71.731,305.963 65.150 L 294.000 53.185 294.000 123.392 M96.593 103.855 C 92.201 106.764,89.170 111.329,88.044 116.731 C 87.450 119.582,87.457 138.187,88.053 140.694 C 89.885 148.392,94.707 153.464,102.052 155.419 C 105.143 156.242,119.893 156.226,123.080 155.396 C 132.833 152.859,137.186 146.100,137.195 133.480 C 137.201 125.226,135.867 122.853,131.195 122.806 C 124.650 122.741,109.805 114.277,101.542 105.900 C 99.861 104.195,98.418 102.800,98.335 102.800 C 98.253 102.800,97.469 103.275,96.593 103.855 M101.870 169.500 C 100.609 174.291,100.622 173.929,101.660 175.389 C 106.781 182.586,118.141 182.771,123.109 175.738 C 124.137 174.282,124.178 173.790,123.509 170.912 L 123.018 168.800 112.536 168.800 C 102.890 168.800,102.039 168.856,101.870 169.500 M93.910 262.500 L 94.020 268.800 81.410 268.800 L 68.800 268.800 68.800 262.394 L 68.800 255.989 81.300 256.094 L 93.800 256.200 93.910 262.500 M131.408 256.900 C 131.530 257.395,131.579 260.230,131.515 263.200 L 131.400 268.600 118.800 268.600 L 106.200 268.600 106.089 262.818 C 106.027 259.639,106.067 256.804,106.176 256.518 C 106.333 256.109,108.990 256.000,118.780 256.000 L 131.185 256.000 131.408 256.900 M261.686 257.322 C 264.111 258.513,266.630 261.038,267.859 263.510 C 268.566 264.931,268.605 267.172,268.705 312.078 L 268.810 359.155 267.866 361.278 C 266.662 363.987,263.987 366.662,261.278 367.866 L 259.155 368.810 212.078 368.705 C 167.172 368.605,164.931 368.566,163.510 367.859 C 161.038 366.630,158.513 364.111,157.322 361.686 L 156.200 359.400 156.200 312.600 L 156.200 265.800 157.289 263.600 C 159.080 259.983,161.298 258.001,164.992 256.717 C 166.863 256.067,170.149 256.025,213.200 256.110 L 259.400 256.200 261.686 257.322 M169.200 312.600 L 169.200 356.000 212.600 356.000 L 256.000 356.000 256.000 312.600 L 256.000 269.200 212.600 269.200 L 169.200 269.200 169.200 312.600 M131.400 287.600 L 131.400 293.800 100.100 293.902 L 68.800 294.005 68.800 287.600 L 68.800 281.195 100.100 281.298 L 131.400 281.400 131.400 287.600 M224.327 282.163 C 228.209 284.130,231.600 288.815,231.600 292.212 C 231.600 293.553,231.651 293.600,233.125 293.600 C 236.736 293.600,241.060 296.933,243.110 301.296 C 244.061 303.322,244.505 321.018,243.647 322.705 C 243.452 323.087,243.047 323.940,242.747 324.600 C 241.168 328.066,236.126 331.575,232.700 331.594 C 231.770 331.599,231.599 331.770,231.594 332.700 C 231.575 336.126,228.066 341.168,224.600 342.747 C 223.940 343.047,223.087 343.452,222.705 343.647 C 221.018 344.505,203.322 344.061,201.296 343.110 C 196.894 341.042,193.600 336.768,193.600 333.125 C 193.600 331.651,193.553 331.600,192.212 331.600 C 188.877 331.600,184.103 328.156,182.182 324.365 C 181.218 322.462,181.200 322.247,181.200 312.519 L 181.200 302.611 182.287 300.463 C 183.410 298.244,185.834 295.796,187.848 294.849 C 188.481 294.551,189.313 294.148,189.695 293.953 C 190.077 293.759,191.112 293.600,191.995 293.600 L 193.600 293.600 193.600 291.995 C 193.600 291.112,193.759 290.077,193.953 289.695 C 194.148 289.313,194.553 288.474,194.853 287.832 C 195.720 285.979,198.427 283.314,200.560 282.212 C 203.540 280.673,221.313 280.636,224.327 282.163 M131.408 306.900 C 131.530 307.395,131.579 310.230,131.515 313.200 L 131.400 318.600 100.100 318.702 L 68.800 318.805 68.800 312.402 L 68.800 306.000 99.992 306.000 L 131.185 306.000 131.408 306.900 M106.310 337.500 L 106.200 343.800 87.500 343.904 L 68.800 344.008 68.800 337.604 L 68.800 331.200 87.610 331.200 L 106.420 331.200 106.310 337.500 M81.408 356.900 C 81.530 357.395,81.579 360.230,81.515 363.200 L 81.400 368.600 75.100 368.710 L 68.800 368.820 68.800 362.410 L 68.800 356.000 74.992 356.000 C 81.081 356.000,81.188 356.015,81.408 356.900 M106.310 362.500 L 106.420 368.800 100.010 368.800 L 93.600 368.800 93.600 362.667 C 93.600 359.293,93.725 356.409,93.877 356.257 C 94.029 356.104,96.864 356.029,100.177 356.090 L 106.200 356.200 106.310 362.500 M131.408 356.900 C 131.530 357.395,131.579 360.230,131.515 363.200 L 131.400 368.600 125.100 368.710 L 118.800 368.820 118.800 362.410 L 118.800 356.000 124.992 356.000 C 131.081 356.000,131.188 356.015,131.408 356.900 " stroke="none" fill="#fbde9b" fill-rule="evenodd"></path><path id="path1" d="M188.800 6.400 C 188.800 6.620,188.440 6.800,188.000 6.800 C 187.560 6.800,187.200 6.980,187.200 7.200 C 187.200 7.420,186.906 7.600,186.547 7.600 C 185.813 7.600,182.400 10.848,182.400 11.547 C 182.400 11.796,182.220 12.000,182.000 12.000 C 181.780 12.000,181.600 12.349,181.600 12.776 C 181.600 13.203,181.420 13.664,181.200 13.800 C 180.954 13.952,180.800 17.271,180.800 22.424 L 180.800 30.800 97.424 30.800 C 42.271 30.800,13.964 30.935,13.800 31.200 C 13.664 31.420,13.203 31.600,12.776 31.600 C 12.349 31.600,12.000 31.780,12.000 32.000 C 12.000 32.220,11.796 32.400,11.547 32.400 C 10.848 32.400,7.600 35.813,7.600 36.547 C 7.600 36.906,7.420 37.200,7.200 37.200 C 6.980 37.200,6.800 37.560,6.800 38.000 C 6.800 38.440,6.620 38.800,6.400 38.800 C 6.134 38.800,6.000 72.000,6.000 137.600 C 6.000 203.200,6.134 236.400,6.400 236.400 C 6.620 236.400,6.800 236.760,6.800 237.200 C 6.800 237.640,6.980 238.000,7.200 238.000 C 7.420 238.000,7.600 238.270,7.600 238.600 C 7.600 238.930,7.780 239.200,8.000 239.200 C 8.220 239.200,8.400 239.430,8.400 239.712 C 8.400 239.993,8.782 240.488,9.249 240.812 C 9.716 241.135,10.333 241.625,10.620 241.900 C 10.908 242.175,11.336 242.400,11.571 242.400 C 11.807 242.400,12.000 242.580,12.000 242.800 C 12.000 243.020,12.360 243.200,12.800 243.200 C 13.240 243.200,13.600 243.380,13.600 243.600 C 13.600 243.859,18.800 244.000,28.400 244.000 L 43.200 244.000 43.200 314.604 L 43.200 385.209 44.069 387.057 C 45.101 389.252,47.958 392.400,48.919 392.400 C 49.294 392.400,49.600 392.580,49.600 392.800 C 49.600 393.020,49.960 393.200,50.400 393.200 C 50.840 393.200,51.200 393.380,51.200 393.600 C 51.200 393.866,90.667 394.000,168.800 394.000 C 246.933 394.000,286.400 393.866,286.400 393.600 C 286.400 393.380,286.760 393.200,287.200 393.200 C 287.640 393.200,288.000 393.020,288.000 392.800 C 288.000 392.580,288.270 392.400,288.600 392.400 C 288.930 392.400,289.200 392.263,289.200 392.095 C 289.200 391.927,289.605 391.612,290.100 391.395 C 290.595 391.178,291.178 390.595,291.395 390.100 C 291.612 389.605,291.927 389.200,292.095 389.200 C 292.263 389.200,292.400 388.930,292.400 388.600 C 292.400 388.270,292.580 388.000,292.800 388.000 C 293.020 388.000,293.200 387.640,293.200 387.200 C 293.200 386.760,293.380 386.400,293.600 386.400 C 293.863 386.400,294.000 374.933,294.000 352.800 L 294.000 319.200 339.976 319.200 C 370.196 319.200,386.038 319.063,386.200 318.800 C 386.336 318.580,386.797 318.400,387.224 318.400 C 387.651 318.400,388.000 318.220,388.000 318.000 C 388.000 317.780,388.204 317.600,388.453 317.600 C 389.152 317.600,392.400 314.187,392.400 313.453 C 392.400 313.094,392.580 312.800,392.800 312.800 C 393.020 312.800,393.200 312.440,393.200 312.000 C 393.200 311.560,393.380 311.200,393.600 311.200 C 393.866 311.200,394.000 261.333,394.000 162.400 C 394.000 63.467,393.866 13.600,393.600 13.600 C 393.380 13.600,393.200 13.240,393.200 12.800 C 393.200 12.360,393.020 12.000,392.800 12.000 C 392.580 12.000,392.400 11.730,392.400 11.400 C 392.400 11.070,392.220 10.800,392.000 10.800 C 391.780 10.800,391.600 10.570,391.600 10.289 C 391.600 9.715,390.204 8.400,389.595 8.400 C 389.378 8.400,389.200 8.220,389.200 8.000 C 389.200 7.780,388.930 7.600,388.600 7.600 C 388.270 7.600,388.000 7.420,388.000 7.200 C 388.000 6.980,387.640 6.800,387.200 6.800 C 386.760 6.800,386.400 6.620,386.400 6.400 C 386.400 6.135,361.533 6.000,312.600 6.000 C 263.667 6.000,238.800 6.135,238.800 6.400 C 238.800 6.620,238.440 6.800,238.000 6.800 C 237.560 6.800,237.200 6.980,237.200 7.200 C 237.200 7.420,236.906 7.600,236.547 7.600 C 235.813 7.600,232.400 10.848,232.400 11.547 C 232.400 11.796,232.220 12.000,232.000 12.000 C 231.780 12.000,231.600 12.349,231.600 12.776 C 231.600 13.203,231.420 13.664,231.200 13.800 C 230.954 13.952,230.800 17.271,230.800 22.424 L 230.800 30.800 225.000 30.800 L 219.200 30.800 219.200 22.424 C 219.200 17.271,219.046 13.952,218.800 13.800 C 218.580 13.664,218.400 13.203,218.400 12.776 C 218.400 12.349,218.220 12.000,218.000 12.000 C 217.780 12.000,217.600 11.796,217.600 11.547 C 217.600 10.848,214.187 7.600,213.453 7.600 C 213.094 7.600,212.800 7.420,212.800 7.200 C 212.800 6.980,212.440 6.800,212.000 6.800 C 211.560 6.800,211.200 6.620,211.200 6.400 C 211.200 6.143,207.200 6.000,200.000 6.000 C 192.800 6.000,188.800 6.143,188.800 6.400 M381.101 18.730 C 381.500 18.984,381.581 48.027,381.501 162.624 L 381.400 306.200 337.500 306.302 L 293.600 306.404 293.600 300.002 L 293.600 293.600 306.000 293.600 L 318.400 293.600 318.400 287.606 L 318.400 281.612 306.100 281.506 L 293.800 281.400 293.800 275.000 L 293.800 268.600 331.100 268.498 L 368.400 268.396 368.400 262.398 L 368.400 256.400 331.000 256.400 L 293.600 256.400 293.600 250.000 L 293.600 243.600 331.000 243.600 L 368.400 243.600 368.400 237.602 L 368.400 231.604 331.100 231.502 L 293.800 231.400 293.800 218.800 L 293.800 206.200 307.800 206.000 C 324.681 205.759,326.780 205.132,329.482 199.519 C 331.229 195.893,331.200 196.961,331.200 135.659 C 331.200 71.282,331.327 74.631,328.748 70.800 C 326.285 67.142,293.028 34.312,290.400 32.945 L 288.200 31.800 266.000 31.600 L 243.800 31.400 243.689 25.418 C 243.628 22.127,243.667 19.202,243.776 18.918 C 244.003 18.326,380.171 18.140,381.101 18.730 M206.000 25.000 L 206.000 30.800 200.000 30.800 L 194.000 30.800 194.000 25.000 L 194.000 19.200 200.000 19.200 L 206.000 19.200 206.000 25.000 M181.400 50.000 L 181.400 56.200 106.500 56.301 L 31.600 56.402 31.600 137.601 L 31.600 218.800 112.600 218.800 L 193.600 218.800 193.600 168.800 L 193.600 118.800 187.600 118.800 L 181.600 118.800 181.600 154.576 C 181.600 180.178,181.475 190.430,181.160 190.625 C 180.916 190.776,179.878 190.029,178.829 188.948 C 174.626 184.616,168.049 179.873,162.000 176.813 C 158.164 174.872,156.526 174.170,153.800 173.296 C 149.765 172.003,146.884 171.299,143.600 170.803 C 136.569 169.741,136.006 169.572,135.755 168.444 C 135.627 167.870,135.361 166.770,135.163 166.000 C 134.966 165.230,134.803 164.492,134.802 164.359 C 134.801 164.226,135.923 163.236,137.294 162.159 C 140.147 159.919,142.163 157.890,143.114 156.300 C 143.476 155.695,143.914 155.200,144.086 155.200 C 144.259 155.200,144.400 154.945,144.400 154.633 C 144.400 154.322,144.541 154.007,144.714 153.933 C 144.886 153.860,145.728 152.360,146.584 150.600 C 147.830 148.041,148.898 146.638,151.916 143.600 C 153.992 141.510,156.522 138.630,157.538 137.200 C 158.554 135.770,159.523 134.540,159.693 134.467 C 159.862 134.393,160.000 134.156,160.000 133.939 C 160.000 133.722,160.507 132.792,161.127 131.872 C 168.862 120.393,170.811 97.207,165.188 83.570 C 163.006 78.279,161.070 75.188,157.705 71.621 C 155.317 69.089,155.273 68.981,156.500 68.652 C 157.820 68.298,180.516 68.359,181.080 68.718 C 181.435 68.943,181.592 72.674,181.680 83.011 C 181.816 98.816,181.821 98.845,185.179 102.237 C 188.510 105.601,189.337 105.800,200.000 105.800 L 209.400 105.800 211.746 104.611 C 218.353 101.263,218.868 99.046,218.714 74.600 L 218.600 56.600 212.500 56.490 L 206.400 56.379 206.400 75.200 L 206.400 94.020 200.100 93.910 L 193.800 93.800 193.697 68.698 L 193.594 43.596 237.497 43.698 L 281.400 43.800 281.400 212.600 L 281.400 381.400 168.800 381.400 L 56.200 381.400 56.200 312.600 L 56.200 243.800 132.400 243.581 C 174.310 243.461,209.140 243.208,209.800 243.019 C 212.510 242.242,215.324 239.912,216.950 237.097 C 218.822 233.859,218.847 232.939,218.720 174.200 L 218.600 119.000 212.501 118.890 L 206.403 118.779 206.301 175.090 L 206.200 231.400 112.600 231.400 L 19.000 231.400 18.899 137.499 L 18.798 43.598 100.099 43.699 L 181.400 43.800 181.400 50.000 M318.800 135.703 L 318.800 194.011 306.300 193.906 L 293.800 193.800 293.697 123.800 C 293.641 85.300,293.694 53.539,293.815 53.220 C 293.965 52.828,298.040 56.644,306.418 65.018 L 318.800 77.395 318.800 135.703 M68.893 68.731 C 69.482 68.965,69.313 69.302,67.755 71.003 C 57.135 82.593,53.907 99.185,58.457 118.800 C 58.686 119.790,59.019 120.960,59.197 121.400 C 59.374 121.840,59.739 122.830,60.007 123.600 C 62.443 130.595,67.054 137.533,73.660 144.142 C 75.827 146.309,77.600 148.316,77.600 148.601 C 77.600 151.442,84.335 159.980,88.974 163.019 C 92.289 165.192,89.081 170.270,84.331 170.369 C 82.873 170.400,80.075 170.894,77.000 171.665 C 73.337 172.583,72.159 172.908,71.400 173.207 C 70.960 173.380,69.520 173.937,68.200 174.445 C 65.907 175.326,62.037 177.233,58.600 179.174 C 55.949 180.672,49.975 185.315,47.062 188.142 C 45.556 189.604,44.161 190.800,43.962 190.800 C 43.545 190.800,43.450 69.083,43.867 68.667 C 44.218 68.315,67.997 68.376,68.893 68.731 M130.400 69.382 C 135.040 70.420,135.869 70.677,138.252 71.822 C 155.638 80.172,161.693 102.841,151.938 123.067 C 150.314 126.434,150.211 126.443,149.205 123.302 C 146.952 116.264,142.927 112.650,135.072 110.609 C 120.772 106.893,111.130 99.852,103.400 87.480 C 101.846 84.992,101.988 84.950,94.000 90.210 C 79.506 99.753,74.874 107.653,74.780 122.990 L 74.761 126.200 73.383 123.516 C 68.429 113.866,67.247 99.527,70.604 89.800 C 74.179 79.440,82.761 71.959,94.000 69.404 C 97.411 68.629,126.954 68.611,130.400 69.382 M101.011 104.593 C 107.886 112.639,118.987 119.124,131.200 122.228 C 134.503 123.067,135.170 123.386,136.300 124.663 L 137.600 126.133 137.600 133.568 C 137.600 146.469,134.042 152.265,123.972 155.771 C 121.748 156.546,103.941 156.683,101.628 155.943 C 90.266 152.307,87.206 146.507,87.206 128.600 C 87.206 113.044,88.552 109.173,95.800 103.880 C 98.431 101.959,98.805 102.010,101.011 104.593 M110.800 168.671 C 114.650 168.780,118.875 168.694,120.189 168.481 C 123.056 168.016,123.455 168.133,123.726 169.527 C 123.841 170.117,124.134 171.381,124.377 172.336 C 125.081 175.096,122.786 178.042,118.232 180.225 C 110.650 183.860,99.304 178.477,100.769 171.940 C 101.529 168.548,101.911 167.878,102.907 168.192 C 103.398 168.347,106.950 168.563,110.800 168.671 M93.289 185.013 C 104.153 196.645,122.026 196.365,132.434 184.398 C 134.760 181.725,135.509 181.529,140.080 182.407 C 141.246 182.630,143.190 183.006,144.400 183.241 C 149.796 184.289,157.014 187.308,161.800 190.518 C 164.490 192.323,170.660 197.424,171.108 198.215 C 171.269 198.498,172.033 199.421,172.807 200.265 C 174.919 202.571,177.217 205.850,176.925 206.142 C 176.539 206.528,48.480 206.454,48.242 206.068 C 47.837 205.413,51.005 201.330,54.967 197.400 C 62.270 190.157,71.169 185.245,80.600 183.252 C 85.425 182.232,86.318 182.093,88.338 182.048 L 90.476 182.000 93.289 185.013 M344.000 212.400 L 344.000 218.400 356.200 218.400 L 368.400 218.400 368.400 212.400 L 368.400 206.400 356.200 206.400 L 344.000 206.400 344.000 212.400 M68.890 262.500 L 69.000 268.600 81.300 268.706 L 93.600 268.812 93.600 262.606 L 93.600 256.400 81.190 256.400 L 68.779 256.400 68.890 262.500 M106.490 262.500 L 106.600 268.600 118.800 268.600 L 131.000 268.600 131.110 262.500 L 131.221 256.400 118.800 256.400 L 106.379 256.400 106.490 262.500 M165.800 256.902 C 160.684 258.680,158.487 260.921,156.856 266.028 C 155.951 268.863,156.235 357.361,157.158 359.885 C 159.002 364.931,162.243 367.570,167.600 368.390 C 173.522 369.296,257.720 368.773,260.377 367.814 C 263.394 366.725,266.765 363.367,267.819 360.400 C 268.774 357.711,269.292 273.498,268.390 267.600 C 267.570 262.243,264.931 259.002,259.885 257.158 C 257.460 256.272,168.311 256.029,165.800 256.902 M256.400 312.600 L 256.400 356.400 212.600 356.400 L 168.800 356.400 168.800 312.600 L 168.800 268.800 212.600 268.800 L 256.400 268.800 256.400 312.600 M203.800 281.764 C 198.420 283.097,194.982 286.748,194.068 292.098 C 193.795 293.699,193.699 293.795,192.098 294.068 C 184.119 295.431,181.200 300.393,181.200 312.600 C 181.200 324.538,183.698 328.906,191.697 330.953 C 193.704 331.467,193.805 331.557,194.065 333.082 C 194.849 337.675,198.070 341.361,202.800 343.079 C 205.318 343.994,220.278 343.784,222.917 342.797 C 226.998 341.270,229.840 337.962,230.840 333.574 L 231.348 331.348 233.574 330.840 C 237.962 329.840,241.270 326.998,242.797 322.917 C 243.784 320.278,243.994 305.318,243.079 302.800 C 241.361 298.070,237.675 294.849,233.082 294.065 C 231.557 293.805,231.467 293.704,230.953 291.697 C 229.548 286.208,226.046 282.711,220.880 281.640 C 218.044 281.051,206.331 281.136,203.800 281.764 M68.800 287.600 L 68.800 293.600 100.000 293.600 L 131.200 293.600 131.200 287.600 L 131.200 281.600 100.000 281.600 L 68.800 281.600 68.800 287.600 M331.600 287.600 L 331.600 293.600 350.000 293.600 L 368.400 293.600 368.400 287.600 L 368.400 281.600 350.000 281.600 L 331.600 281.600 331.600 287.600 M218.800 299.790 L 218.800 305.980 225.100 306.090 L 231.400 306.200 231.400 312.400 L 231.400 318.600 225.200 318.800 L 219.000 319.000 218.800 325.200 L 218.600 331.400 212.400 331.400 L 206.200 331.400 206.090 325.100 L 205.980 318.800 199.780 318.800 L 193.580 318.800 193.690 312.500 L 193.800 306.200 199.900 306.090 L 206.000 305.979 206.000 300.056 C 206.000 296.799,206.120 294.013,206.267 293.867 C 206.413 293.720,209.293 293.600,212.667 293.600 L 218.800 293.600 218.800 299.790 M68.890 312.500 L 69.000 318.600 100.000 318.600 L 131.000 318.600 131.110 312.500 L 131.221 306.400 100.000 306.400 L 68.779 306.400 68.890 312.500 M68.800 337.600 L 68.800 343.600 87.400 343.600 L 106.000 343.600 106.000 337.600 L 106.000 331.600 87.400 331.600 L 68.800 331.600 68.800 337.600 M68.890 362.500 L 69.000 368.600 75.000 368.600 L 81.000 368.600 81.110 362.500 L 81.221 356.400 75.000 356.400 L 68.779 356.400 68.890 362.500 M94.000 362.600 L 94.000 368.800 100.000 368.800 L 106.000 368.800 106.000 362.600 L 106.000 356.400 100.000 356.400 L 94.000 356.400 94.000 362.600 M118.890 362.500 L 119.000 368.600 125.000 368.600 L 131.000 368.600 131.110 362.500 L 131.221 356.400 125.000 356.400 L 118.779 356.400 118.890 362.500 " stroke="none" fill="#040404" fill-rule="evenodd"></path><path id="path2" d="M244.000 24.999 L 244.000 31.200 266.051 31.200 L 288.101 31.200 290.551 32.444 C 293.188 33.783,327.648 67.776,329.713 71.075 C 331.638 74.151,331.600 72.845,331.600 135.905 C 331.600 201.314,331.736 197.636,329.187 201.155 C 325.665 206.017,324.147 206.387,307.700 206.394 L 294.000 206.400 294.000 218.800 L 294.000 231.200 331.400 231.200 L 368.800 231.200 368.800 237.600 L 368.800 244.000 331.400 244.000 L 294.000 244.000 294.000 250.000 L 294.000 256.000 331.400 256.000 L 368.800 256.000 368.800 262.400 L 368.800 268.800 331.400 268.800 L 294.000 268.800 294.000 275.000 L 294.000 281.200 306.400 281.200 L 318.800 281.200 318.800 287.600 L 318.800 294.000 306.400 294.000 L 294.000 294.000 294.000 300.000 L 294.000 306.000 337.601 306.000 L 381.201 306.000 381.101 162.500 L 381.000 19.000 312.500 18.899 L 244.000 18.798 244.000 24.999 M44.000 129.586 L 44.000 190.372 46.900 187.557 C 52.098 182.510,57.160 179.021,64.200 175.636 C 70.926 172.401,74.235 171.370,81.600 170.213 C 88.895 169.068,88.442 169.264,89.039 166.995 C 89.773 164.210,89.776 164.223,88.060 163.087 C 83.912 160.342,77.200 151.631,77.200 148.993 C 77.200 148.703,75.614 146.877,73.675 144.933 C 67.550 138.795,64.626 134.831,61.623 128.600 C 59.500 124.195,59.050 123.074,58.331 120.400 C 58.124 119.630,57.781 118.370,57.569 117.600 C 56.605 114.097,56.000 108.220,56.000 102.355 C 56.000 96.436,56.156 94.844,57.232 89.800 C 58.514 83.791,62.122 76.727,66.662 71.336 C 67.618 70.201,68.400 69.166,68.400 69.036 C 68.400 68.906,62.910 68.800,56.200 68.800 L 44.000 68.800 44.000 129.586 M156.400 68.998 C 156.400 69.113,156.836 69.700,157.368 70.303 C 160.212 73.523,160.788 74.224,160.794 74.471 C 160.797 74.621,161.053 74.996,161.362 75.305 C 168.547 82.490,171.304 106.894,166.541 121.142 C 164.954 125.888,163.173 129.630,160.204 134.457 C 158.207 137.703,155.614 140.758,151.341 144.899 C 149.476 146.706,148.448 148.172,147.089 150.964 C 146.104 152.989,145.051 154.905,144.749 155.223 C 144.447 155.540,143.583 156.618,142.828 157.618 C 142.073 158.618,140.143 160.508,138.538 161.818 C 135.476 164.317,135.402 164.466,135.978 166.949 C 136.477 169.098,136.376 169.050,142.400 170.002 C 145.370 170.471,148.340 171.023,149.000 171.228 C 153.291 172.559,156.793 173.744,158.000 174.272 C 161.448 175.782,164.732 177.453,166.272 178.483 C 167.192 179.097,168.122 179.600,168.339 179.600 C 168.556 179.600,168.793 179.738,168.867 179.907 C 168.940 180.077,170.205 181.069,171.679 182.113 C 173.152 183.156,175.896 185.467,177.777 187.247 L 181.196 190.483 181.298 154.542 L 181.400 118.600 184.500 118.483 L 187.600 118.366 187.600 111.583 C 187.600 107.852,187.453 104.800,187.274 104.800 C 186.554 104.800,183.044 100.888,182.248 99.200 C 181.447 97.500,181.389 96.610,181.200 83.200 L 181.000 69.000 168.700 68.894 C 161.935 68.836,156.400 68.883,156.400 68.998 M368.800 212.400 L 368.800 218.800 356.200 218.800 L 343.600 218.800 343.600 212.667 C 343.600 209.293,343.720 206.413,343.867 206.267 C 344.013 206.120,349.683 206.000,356.467 206.000 L 368.800 206.000 368.800 212.400 M368.800 287.600 L 368.800 294.000 350.000 294.000 L 331.200 294.000 331.200 287.600 L 331.200 281.200 350.000 281.200 L 368.800 281.200 368.800 287.600 M206.400 300.200 L 206.400 306.400 200.200 306.400 L 194.000 306.400 194.000 312.390 L 194.000 318.379 200.100 318.490 L 206.200 318.600 206.310 324.900 L 206.420 331.200 212.410 331.200 L 218.400 331.200 218.400 325.280 C 218.400 317.894,217.894 318.400,225.280 318.400 L 231.200 318.400 231.200 312.410 L 231.200 306.420 224.900 306.310 L 218.600 306.200 218.490 300.100 L 218.379 294.000 212.390 294.000 L 206.400 294.000 206.400 300.200 " stroke="none" fill="#e3ebeb" fill-rule="evenodd"></path><path id="path3" d="M297.000 38.000 C 298.528 39.540,299.869 40.800,299.979 40.800 C 300.089 40.800,298.928 39.540,297.400 38.000 C 295.872 36.460,294.531 35.200,294.421 35.200 C 294.311 35.200,295.472 36.460,297.000 38.000 M313.800 54.800 C 315.550 56.560,317.071 58.000,317.181 58.000 C 317.291 58.000,315.950 56.560,314.200 54.800 C 312.450 53.040,310.929 51.600,310.819 51.600 C 310.709 51.600,312.050 53.040,313.800 54.800 M331.301 77.000 C 331.305 77.880,331.387 78.193,331.483 77.695 C 331.579 77.198,331.575 76.478,331.475 76.095 C 331.375 75.713,331.296 76.120,331.301 77.000 M182.900 118.691 C 183.725 118.778,185.075 118.778,185.900 118.691 C 186.725 118.605,186.050 118.534,184.400 118.534 C 182.750 118.534,182.075 118.605,182.900 118.691 M83.177 183.218 C 69.859 185.539,58.234 192.681,50.122 203.526 L 48.422 205.800 112.276 205.901 C 147.396 205.957,176.217 205.916,176.322 205.811 C 176.923 205.210,167.837 195.257,164.800 193.191 C 164.030 192.667,163.310 192.131,163.200 192.000 C 160.818 189.160,148.515 184.245,140.704 183.014 C 134.683 182.065,134.863 182.022,132.400 185.000 C 131.217 186.430,130.137 187.600,130.000 187.600 C 129.863 187.600,129.368 187.957,128.899 188.394 C 127.500 189.697,124.003 191.554,120.600 192.800 C 118.456 193.586,115.672 194.000,112.541 194.000 C 109.311 194.000,108.246 193.832,104.200 192.682 C 100.270 191.565,95.221 188.157,92.120 184.527 C 90.003 182.049,89.941 182.040,83.177 183.218 M331.293 194.800 C 331.293 195.570,331.375 195.885,331.476 195.500 C 331.576 195.115,331.576 194.485,331.476 194.100 C 331.375 193.715,331.293 194.030,331.293 194.800 M218.561 300.000 C 218.561 303.410,218.622 304.805,218.697 303.100 C 218.772 301.395,218.772 298.605,218.697 296.900 C 218.622 295.195,218.561 296.590,218.561 300.000 M196.900 318.697 C 198.605 318.772,201.395 318.772,203.100 318.697 C 204.805 318.622,203.410 318.561,200.000 318.561 C 196.590 318.561,195.195 318.622,196.900 318.697 M222.118 318.698 C 223.833 318.773,226.533 318.772,228.118 318.697 C 229.703 318.621,228.300 318.559,225.000 318.560 C 221.700 318.561,220.403 318.622,222.118 318.698 M218.560 325.000 C 218.561 328.300,218.622 329.597,218.698 327.882 C 218.773 326.167,218.772 323.467,218.697 321.882 C 218.621 320.297,218.559 321.700,218.560 325.000 " stroke="none" fill="#5bd2b3" fill-rule="evenodd"></path><path id="path4" d="M243.776 18.918 C 243.667 19.202,243.628 22.127,243.689 25.418 L 243.800 31.400 266.000 31.600 L 288.200 31.800 290.400 32.945 C 292.105 33.832,296.498 37.970,309.933 51.345 C 327.378 68.711,330.004 71.664,330.615 74.600 C 330.875 75.854,330.982 75.999,331.106 75.269 C 331.539 72.717,329.808 70.711,310.843 51.782 C 300.755 41.713,291.984 33.194,291.351 32.851 C 288.363 31.229,288.098 31.212,265.700 31.206 L 244.000 31.200 244.000 25.001 L 244.000 18.802 312.500 18.700 L 381.000 18.598 312.487 18.499 C 256.735 18.418,243.938 18.496,243.776 18.918 M381.299 162.300 L 381.200 306.000 337.600 306.000 L 294.000 306.000 294.000 300.000 L 294.000 294.000 306.400 294.000 L 318.800 294.000 318.800 287.600 L 318.800 281.200 306.400 281.200 L 294.000 281.200 294.000 275.000 L 294.000 268.800 331.410 268.800 L 368.820 268.800 368.710 262.500 L 368.600 256.200 331.300 256.098 L 294.000 255.996 294.000 249.998 L 294.000 244.000 331.400 244.000 L 368.800 244.000 368.800 237.600 L 368.800 231.200 331.400 231.200 L 294.000 231.200 294.000 218.815 L 294.000 206.429 308.100 206.315 C 321.604 206.205,322.276 206.163,324.000 205.335 C 327.537 203.637,331.258 198.782,331.155 196.000 C 331.124 195.160,331.054 195.225,330.718 196.400 C 329.563 200.435,327.186 203.310,323.649 204.945 C 321.902 205.753,321.026 205.811,307.800 206.000 L 293.800 206.200 293.800 218.800 L 293.800 231.400 331.100 231.502 L 368.400 231.604 368.400 237.602 L 368.400 243.600 331.000 243.600 L 293.600 243.600 293.600 250.000 L 293.600 256.400 331.000 256.400 L 368.400 256.400 368.400 262.398 L 368.400 268.396 331.100 268.498 L 293.800 268.600 293.800 275.000 L 293.800 281.400 306.100 281.506 L 318.400 281.612 318.400 287.606 L 318.400 293.600 306.000 293.600 L 293.600 293.600 293.600 300.000 L 293.600 306.400 337.413 306.400 C 372.095 306.400,381.265 306.296,381.415 305.900 C 381.519 305.625,381.558 240.870,381.502 162.000 L 381.399 18.600 381.299 162.300 M99.900 43.900 L 181.200 44.002 181.200 50.000 L 181.200 55.998 106.300 56.099 L 31.400 56.200 31.399 137.500 L 31.397 218.800 31.500 137.601 L 31.602 56.402 106.501 56.301 L 181.400 56.200 181.400 50.000 L 181.400 43.800 100.000 43.799 L 18.600 43.797 99.900 43.900 M193.697 68.698 L 193.800 93.800 200.100 93.910 L 206.400 94.020 206.400 75.191 L 206.400 56.361 212.581 56.480 C 215.981 56.546,218.622 56.460,218.450 56.289 C 218.278 56.118,215.452 56.028,212.169 56.089 L 206.200 56.200 206.096 74.900 L 205.992 93.600 199.996 93.600 L 194.000 93.600 194.000 68.800 L 194.000 44.000 237.600 44.000 L 281.200 44.000 281.200 212.600 L 281.200 381.200 168.800 381.200 L 56.400 381.200 56.400 312.600 L 56.400 244.000 132.385 244.000 C 208.054 244.000,208.379 243.997,210.566 243.178 C 214.968 241.531,218.848 236.582,218.761 232.725 C 218.722 231.031,218.713 231.043,218.244 233.419 C 217.353 237.925,213.909 241.842,209.800 243.019 C 209.140 243.208,174.310 243.461,132.400 243.581 L 56.200 243.800 56.200 312.600 L 56.200 381.400 168.800 381.400 L 281.400 381.400 281.400 212.600 L 281.400 43.800 237.497 43.698 L 193.594 43.596 193.697 68.698 M293.815 53.220 C 293.694 53.539,293.641 85.300,293.697 123.800 L 293.800 193.800 306.300 193.809 L 318.800 193.817 306.400 193.703 L 294.000 193.589 294.000 123.387 L 294.000 53.185 305.948 65.134 C 312.519 71.707,318.093 77.425,318.336 77.842 C 318.662 78.405,318.779 78.445,318.788 77.998 C 318.807 77.058,294.080 52.525,293.815 53.220 M43.867 68.667 C 43.450 69.083,43.545 190.800,43.962 190.800 C 44.161 190.800,45.556 189.604,47.062 188.142 C 49.975 185.315,55.949 180.672,58.600 179.174 C 62.037 177.233,65.907 175.326,68.200 174.445 C 69.520 173.937,70.960 173.380,71.400 173.207 C 71.840 173.033,73.010 172.678,74.000 172.418 C 74.990 172.159,76.340 171.794,77.000 171.609 C 77.660 171.425,79.100 171.137,80.200 170.970 C 81.300 170.803,81.873 170.591,81.474 170.499 C 81.075 170.407,79.423 170.626,77.805 170.986 C 71.044 172.490,65.244 174.760,59.659 178.086 C 58.262 178.919,56.972 179.600,56.792 179.600 C 56.613 179.600,56.407 179.747,56.333 179.928 C 56.260 180.108,55.120 180.990,53.800 181.888 C 51.130 183.704,50.574 184.179,46.700 187.950 L 44.000 190.579 44.000 129.695 L 44.000 68.812 56.300 68.700 L 68.600 68.588 56.367 68.494 C 49.638 68.442,44.013 68.520,43.867 68.667 M162.700 68.699 C 166.055 68.766,171.545 68.766,174.900 68.699 C 178.255 68.632,175.510 68.578,168.800 68.578 C 162.090 68.578,159.345 68.632,162.700 68.699 M68.582 69.315 C 65.366 73.049,63.222 75.815,62.435 77.246 C 59.751 82.129,58.557 85.006,57.392 89.400 C 56.767 91.760,56.225 97.143,56.768 95.600 C 56.962 95.050,57.138 93.983,57.160 93.228 C 57.182 92.474,57.367 91.304,57.571 90.628 C 59.353 84.727,59.967 83.038,61.220 80.582 C 62.914 77.264,65.379 73.586,67.284 71.534 C 69.324 69.337,69.733 68.798,69.349 68.815 C 69.157 68.824,68.812 69.049,68.582 69.315 M94.000 69.404 C 82.761 71.959,74.179 79.440,70.604 89.800 C 67.247 99.527,68.429 113.866,73.383 123.516 L 74.761 126.200 74.780 122.990 C 74.874 107.653,79.506 99.753,94.000 90.210 C 101.988 84.950,101.846 84.992,103.400 87.480 C 111.130 99.852,120.772 106.893,135.072 110.609 C 142.927 112.650,146.952 116.264,149.205 123.302 C 150.211 126.443,150.314 126.434,151.938 123.067 C 161.693 102.841,155.638 80.172,138.252 71.822 C 135.869 70.677,135.040 70.420,130.400 69.382 C 126.954 68.611,97.411 68.629,94.000 69.404 M155.605 69.100 C 155.608 69.265,156.553 70.397,157.705 71.615 C 167.070 81.519,170.519 97.411,167.338 116.000 C 167.206 116.770,167.215 117.291,167.357 117.158 C 168.729 115.880,169.353 97.639,168.212 92.200 C 166.457 83.840,163.522 77.690,158.251 71.324 C 156.332 69.006,155.593 68.385,155.605 69.100 M181.292 82.400 C 181.210 96.634,181.259 97.191,182.889 100.230 C 184.071 102.435,187.081 104.827,190.000 105.882 C 191.922 106.577,208.038 106.586,210.000 105.894 C 214.800 104.200,218.858 99.281,218.766 95.267 C 218.736 93.934,218.688 94.002,218.248 96.000 C 217.368 99.987,215.197 102.863,211.746 104.611 L 209.400 105.800 200.000 105.800 C 189.337 105.800,188.510 105.601,185.179 102.237 C 181.834 98.858,181.828 98.825,181.586 82.800 L 181.371 68.600 181.292 82.400 M331.395 136.000 C 331.395 167.790,331.442 180.795,331.500 164.900 C 331.558 149.005,331.558 122.995,331.500 107.100 C 331.442 91.205,331.395 104.210,331.395 136.000 M56.159 102.400 C 56.159 105.590,56.221 106.895,56.297 105.300 C 56.373 103.705,56.373 101.095,56.297 99.500 C 56.221 97.905,56.159 99.210,56.159 102.400 M95.800 103.880 C 88.449 109.249,87.160 113.081,87.285 129.200 L 87.365 139.400 87.626 128.200 C 87.770 122.040,88.016 116.460,88.174 115.800 C 89.277 111.181,92.661 106.415,96.694 103.800 L 98.389 102.701 101.494 105.851 C 109.458 113.927,116.708 118.369,127.595 121.844 C 129.242 122.370,130.862 122.803,131.195 122.806 C 135.867 122.853,137.201 125.226,137.195 133.480 C 137.188 142.489,136.199 145.647,131.970 150.169 C 127.470 154.979,124.048 156.002,112.480 155.995 C 99.512 155.988,93.428 153.329,90.056 146.197 C 89.537 145.098,88.952 143.887,88.756 143.505 C 88.560 143.123,88.387 142.403,88.372 141.905 C 88.356 141.407,88.173 140.640,87.965 140.200 C 87.690 139.621,87.641 139.929,87.787 141.313 C 88.432 147.440,94.240 153.579,101.628 155.943 C 103.941 156.683,121.748 156.546,123.972 155.771 C 134.042 152.265,137.600 146.469,137.600 133.568 L 137.600 126.133 136.300 124.663 C 135.170 123.386,134.503 123.067,131.200 122.228 C 118.987 119.124,107.886 112.639,101.011 104.593 C 98.805 102.010,98.431 101.959,95.800 103.880 M56.615 111.079 C 57.362 122.590,63.122 134.147,73.160 144.278 C 75.382 146.520,77.200 148.624,77.200 148.953 C 77.200 151.607,83.342 159.454,88.378 163.235 L 89.757 164.269 89.251 166.528 C 88.653 169.199,88.621 169.224,85.010 169.829 C 82.510 170.247,82.398 170.301,84.000 170.319 C 88.983 170.373,92.444 165.294,88.974 163.019 C 84.335 159.980,77.600 151.442,77.600 148.601 C 77.600 148.316,75.827 146.309,73.660 144.142 C 67.054 137.533,62.443 130.595,60.007 123.600 C 59.739 122.830,59.370 121.840,59.187 121.400 C 59.005 120.960,58.641 119.610,58.378 118.400 C 58.115 117.190,57.743 115.678,57.550 115.040 C 57.358 114.402,57.179 113.142,57.153 112.240 C 57.127 111.338,56.953 110.060,56.766 109.400 C 56.535 108.580,56.487 109.111,56.615 111.079 M166.216 120.062 C 164.846 124.648,162.809 129.375,161.127 131.872 C 160.507 132.792,160.000 133.722,160.000 133.939 C 160.000 134.156,159.862 134.393,159.693 134.467 C 159.523 134.540,158.554 135.770,157.538 137.200 C 156.522 138.630,153.992 141.510,151.916 143.600 C 148.898 146.638,147.830 148.041,146.584 150.600 C 145.728 152.360,144.886 153.860,144.714 153.933 C 144.541 154.007,144.400 154.322,144.400 154.633 C 144.400 154.945,144.259 155.200,144.086 155.200 C 143.914 155.200,143.476 155.695,143.114 156.300 C 142.163 157.890,140.147 159.919,137.294 162.159 C 135.923 163.236,134.801 164.226,134.802 164.359 C 134.803 164.492,134.966 165.230,135.163 166.000 C 135.361 166.770,135.627 167.870,135.755 168.444 C 136.006 169.573,136.618 169.756,143.600 170.797 C 145.250 171.043,147.140 171.390,147.800 171.568 C 152.229 172.763,154.236 173.376,155.900 174.040 C 156.395 174.238,157.205 174.556,157.700 174.746 C 164.033 177.184,173.757 183.720,178.829 188.948 C 179.878 190.029,180.916 190.776,181.160 190.625 C 181.476 190.429,181.573 180.246,181.503 154.476 L 181.406 118.600 181.203 154.542 L 181.000 190.484 180.200 189.587 C 179.471 188.769,174.483 184.331,172.508 182.743 C 163.822 175.759,153.767 171.895,137.703 169.369 C 136.693 169.210,136.354 168.925,136.170 168.082 C 136.040 167.487,135.761 166.460,135.549 165.800 C 135.202 164.718,135.294 164.490,136.482 163.477 C 141.317 159.355,142.658 157.982,144.468 155.299 C 145.587 153.641,146.888 151.338,147.358 150.180 C 147.995 148.616,149.347 146.908,152.628 143.524 C 157.388 138.615,161.510 132.852,163.748 127.975 C 165.371 124.439,167.338 118.614,167.125 117.976 C 167.042 117.727,166.633 118.665,166.216 120.062 M193.794 168.800 C 193.794 196.410,193.842 207.705,193.900 193.900 C 193.958 180.095,193.958 157.505,193.900 143.700 C 193.842 129.895,193.794 141.190,193.794 168.800 M206.099 174.899 L 206.000 231.198 112.500 231.300 L 19.000 231.402 112.513 231.501 C 187.028 231.580,206.064 231.498,206.215 231.100 C 206.320 230.825,206.359 205.400,206.301 174.600 L 206.197 118.600 206.099 174.899 M101.578 169.059 C 99.537 174.426,100.920 177.364,106.790 180.137 C 114.320 183.693,125.957 178.531,124.377 172.336 C 124.134 171.381,123.841 170.117,123.726 169.527 C 123.466 168.192,123.060 168.036,120.800 168.406 L 119.000 168.700 121.009 168.750 L 123.018 168.800 123.509 170.912 C 124.178 173.790,124.137 174.282,123.109 175.738 C 118.141 182.771,106.781 182.586,101.660 175.389 C 100.622 173.929,100.609 174.291,101.870 169.500 C 102.015 168.949,102.488 168.800,104.094 168.800 C 106.552 168.800,106.475 168.601,103.888 168.262 C 102.092 168.027,101.951 168.076,101.578 169.059 M84.400 182.467 C 83.410 182.672,81.610 183.039,80.400 183.284 C 79.190 183.529,77.930 183.893,77.600 184.092 C 77.180 184.346,77.300 184.385,78.000 184.222 C 80.212 183.707,88.267 182.404,89.251 182.402 C 90.028 182.401,90.777 182.955,92.120 184.527 C 94.287 187.064,97.383 189.515,100.400 191.084 C 102.484 192.167,103.592 192.558,107.446 193.568 C 109.601 194.133,115.480 194.121,117.894 193.547 C 119.742 193.107,120.380 192.895,122.700 191.953 C 124.991 191.023,127.821 189.398,128.899 188.394 C 129.368 187.957,129.863 187.600,130.000 187.600 C 130.137 187.600,131.217 186.430,132.400 185.000 C 134.863 182.022,134.683 182.065,140.704 183.014 C 148.515 184.245,160.818 189.160,163.200 192.000 C 163.310 192.131,164.030 192.667,164.800 193.191 C 167.837 195.257,176.923 205.210,176.322 205.811 C 176.217 205.916,147.396 205.957,112.276 205.901 L 48.422 205.800 50.122 203.526 C 56.339 195.215,65.723 188.303,74.782 185.363 C 75.982 184.973,76.739 184.580,76.464 184.488 C 75.296 184.099,67.348 187.860,62.400 191.144 C 56.957 194.756,47.446 204.781,48.242 206.068 C 48.480 206.454,176.539 206.528,176.925 206.142 C 177.217 205.850,174.919 202.571,172.807 200.265 C 172.033 199.421,171.269 198.498,171.108 198.215 C 170.660 197.424,164.490 192.323,161.800 190.518 C 157.014 187.308,149.796 184.289,144.400 183.241 C 134.880 181.391,135.065 181.373,132.434 184.398 C 122.026 196.365,104.153 196.645,93.289 185.013 L 90.476 182.000 88.338 182.048 C 87.162 182.074,85.390 182.263,84.400 182.467 M343.872 206.261 C 343.723 206.411,343.600 209.293,343.600 212.667 L 343.600 218.800 356.210 218.800 L 368.820 218.800 368.710 212.500 L 368.600 206.200 356.372 206.094 C 349.647 206.036,344.022 206.111,343.872 206.261 M368.400 212.400 L 368.400 218.400 356.200 218.400 L 344.000 218.400 344.000 212.400 L 344.000 206.400 356.200 206.400 L 368.400 206.400 368.400 212.400 M81.190 256.297 L 93.580 256.411 93.706 262.606 L 93.831 268.801 93.816 262.500 L 93.800 256.200 81.300 256.191 L 68.800 256.183 81.190 256.297 M106.267 256.267 C 105.898 256.636,105.929 268.309,106.300 268.539 C 106.465 268.641,106.546 265.955,106.480 262.568 L 106.361 256.411 118.880 256.300 L 131.400 256.188 118.967 256.094 C 112.128 256.042,106.413 256.120,106.267 256.267 M164.992 256.717 C 161.298 258.001,159.080 259.983,157.289 263.600 L 156.200 265.800 156.200 312.600 L 156.200 359.400 157.322 361.686 C 159.239 365.588,163.171 368.421,167.000 368.659 L 169.000 368.782 166.581 368.274 C 161.919 367.294,158.876 364.585,157.158 359.885 C 156.235 357.361,155.951 268.863,156.856 266.028 C 158.514 260.836,160.801 258.550,166.028 256.861 C 168.846 255.951,257.348 256.231,259.885 257.158 C 264.585 258.876,267.294 261.919,268.274 266.581 L 268.782 269.000 268.659 267.000 C 268.421 263.171,265.588 259.239,261.686 257.322 L 259.400 256.200 213.200 256.110 C 170.149 256.025,166.863 256.067,164.992 256.717 M131.199 262.681 C 131.089 266.026,131.140 268.622,131.311 268.450 C 131.483 268.278,131.572 265.541,131.510 262.369 L 131.397 256.600 131.199 262.681 M168.800 312.600 L 168.800 356.400 212.600 356.400 L 256.400 356.400 256.400 312.600 L 256.400 268.800 212.600 268.800 L 168.800 268.800 168.800 312.600 M256.000 312.600 L 256.000 356.000 212.600 356.000 L 169.200 356.000 169.200 312.600 L 169.200 269.200 212.600 269.200 L 256.000 269.200 256.000 312.600 M100.100 281.499 L 131.200 281.605 131.200 287.600 L 131.200 293.595 99.900 293.701 L 68.600 293.807 100.000 293.804 L 131.400 293.800 131.400 287.600 L 131.400 281.400 100.200 281.396 L 69.000 281.393 100.100 281.499 M200.560 282.212 C 198.427 283.314,195.720 285.979,194.853 287.832 C 194.553 288.474,194.148 289.313,193.953 289.695 C 193.759 290.077,193.600 291.112,193.600 291.995 L 193.600 293.600 191.995 293.600 C 191.112 293.600,190.077 293.759,189.695 293.953 C 189.313 294.148,188.481 294.551,187.848 294.849 C 184.448 296.449,181.168 301.090,181.234 304.206 L 181.268 305.800 181.764 303.800 C 183.097 298.420,186.748 294.982,192.098 294.068 C 193.699 293.795,193.795 293.699,194.068 292.098 C 194.982 286.748,198.420 283.097,203.800 281.764 L 205.800 281.268 204.160 281.234 C 203.132 281.213,201.787 281.578,200.560 282.212 M221.491 281.775 C 226.281 282.935,229.602 286.418,230.953 291.697 C 231.467 293.704,231.557 293.805,233.082 294.065 C 237.675 294.849,241.361 298.070,243.079 302.800 C 243.994 305.318,243.784 320.278,242.797 322.917 C 241.270 326.998,237.962 329.840,233.574 330.840 L 231.348 331.348 230.840 333.574 C 229.840 337.962,226.998 341.270,222.917 342.797 C 220.278 343.784,205.318 343.994,202.800 343.079 C 198.070 341.361,194.849 337.675,194.065 333.082 C 193.805 331.557,193.704 331.467,191.697 330.953 C 186.418 329.602,182.935 326.281,181.775 321.491 C 181.279 319.447,181.267 319.434,181.234 320.913 C 181.134 325.379,187.524 331.600,192.212 331.600 C 193.553 331.600,193.600 331.651,193.600 333.125 C 193.600 336.768,196.894 341.042,201.296 343.110 C 203.322 344.061,221.018 344.505,222.705 343.647 C 223.087 343.452,223.940 343.047,224.600 342.747 C 228.066 341.168,231.575 336.126,231.594 332.700 C 231.599 331.770,231.770 331.599,232.700 331.594 C 236.126 331.575,241.168 328.066,242.747 324.600 C 243.047 323.940,243.452 323.087,243.647 322.705 C 244.505 321.018,244.061 303.322,243.110 301.296 C 241.060 296.933,236.736 293.600,233.125 293.600 C 231.651 293.600,231.600 293.553,231.600 292.212 C 231.600 287.495,225.407 281.133,220.913 281.234 C 219.434 281.267,219.447 281.279,221.491 281.775 M331.290 287.500 L 331.400 293.800 350.100 293.904 L 368.800 294.008 368.800 287.604 L 368.800 281.200 349.990 281.200 L 331.180 281.200 331.290 287.500 M368.400 287.600 L 368.400 293.600 350.000 293.600 L 331.600 293.600 331.600 287.600 L 331.600 281.600 350.000 281.600 L 368.400 281.600 368.400 287.600 M206.267 293.867 C 206.120 294.013,206.000 296.799,206.000 300.056 L 206.000 305.979 199.900 306.090 L 193.800 306.200 193.784 312.500 L 193.769 318.801 193.894 312.600 L 194.020 306.400 200.210 306.400 L 206.400 306.400 206.400 300.210 L 206.400 294.020 212.700 293.899 L 219.000 293.778 212.767 293.689 C 209.338 293.640,206.413 293.720,206.267 293.867 M84.300 306.300 C 92.935 306.360,107.065 306.360,115.700 306.300 C 124.335 306.240,117.270 306.190,100.000 306.190 C 82.730 306.190,75.665 306.240,84.300 306.300 M225.019 306.295 L 231.239 306.421 231.119 312.591 C 231.054 315.985,231.140 318.622,231.311 318.450 C 231.482 318.278,231.572 315.452,231.511 312.169 L 231.400 306.200 225.100 306.184 L 218.799 306.169 225.019 306.295 M131.199 312.681 C 131.089 316.026,131.140 318.622,131.311 318.450 C 131.483 318.278,131.572 315.541,131.510 312.369 L 131.397 306.600 131.199 312.681 M206.184 325.100 L 206.200 331.400 212.169 331.511 C 215.452 331.572,218.278 331.482,218.450 331.311 C 218.622 331.140,215.985 331.054,212.591 331.119 L 206.421 331.239 206.295 325.019 L 206.169 318.799 206.184 325.100 M87.300 331.500 L 106.000 331.608 106.000 337.600 L 106.000 343.592 87.500 343.702 L 69.000 343.812 87.600 343.806 L 106.200 343.800 106.310 337.500 L 106.420 331.200 87.510 331.296 L 68.600 331.392 87.300 331.500 M71.919 356.298 C 73.744 356.372,76.624 356.372,78.319 356.297 C 80.014 356.222,78.520 356.161,75.000 356.162 C 71.480 356.162,70.094 356.224,71.919 356.298 M93.780 356.507 C 93.669 356.798,93.633 359.727,93.700 363.018 L 93.823 369.000 93.912 362.700 L 94.000 356.400 99.990 356.400 L 105.980 356.400 106.106 362.600 L 106.231 368.801 106.216 362.500 L 106.200 356.200 100.091 356.090 C 95.321 356.003,93.939 356.095,93.780 356.507 M121.919 356.298 C 123.744 356.372,126.624 356.372,128.319 356.297 C 130.014 356.222,128.520 356.161,125.000 356.162 C 121.480 356.162,120.094 356.224,121.919 356.298 M268.467 357.254 C 268.127 362.589,264.167 366.905,258.400 368.228 C 256.355 368.697,256.305 368.735,257.689 368.766 C 262.634 368.878,269.179 362.258,268.688 357.642 C 268.580 356.624,268.515 356.510,268.467 357.254 M81.199 362.681 C 81.089 366.026,81.140 368.622,81.311 368.450 C 81.483 368.278,81.572 365.541,81.510 362.369 L 81.397 356.600 81.199 362.681 M131.199 362.681 C 131.089 366.026,131.140 368.622,131.311 368.450 C 131.483 368.278,131.572 365.541,131.510 362.369 L 131.397 356.600 131.199 362.681 " stroke="none" fill="#646c7c" fill-rule="evenodd"></path></g></svg>