<svg id="svg" version="1.1" xmlns="http://www.w3.org/2000/svg" xmlns:xlink="http://www.w3.org/1999/xlink" width="250" height="200" viewBox="0, 0, 400,400"><g id="svgg"><path id="path0" d="M69.558 162.650 C 69.120 163.178,68.514 163.259,66.346 163.077 C 62.754 162.776,62.766 162.656,65.153 174.693 C 66.234 180.142,67.205 185.050,67.310 185.600 C 67.415 186.150,67.793 188.040,68.149 189.800 C 68.506 191.560,68.993 193.990,69.231 195.200 C 69.470 196.410,69.821 198.120,70.012 199.000 C 70.384 200.715,70.969 203.657,71.642 207.200 C 71.872 208.410,72.217 210.030,72.409 210.800 C 72.601 211.570,72.874 212.920,73.014 213.800 C 73.155 214.680,73.426 216.120,73.618 217.000 C 73.810 217.880,74.161 219.663,74.399 220.963 C 74.636 222.263,74.964 223.564,75.126 223.854 C 75.330 224.219,80.104 219.698,90.555 209.245 C 106.745 193.051,106.233 193.708,104.285 191.600 C 102.216 189.362,81.200 162.786,81.200 162.408 C 81.200 161.653,70.196 161.882,69.558 162.650 M131.200 162.503 C 131.200 162.934,127.458 167.924,124.664 171.219 C 124.189 171.780,123.172 173.040,122.406 174.019 C 120.727 176.162,120.219 176.795,118.400 179.007 C 117.630 179.943,114.680 183.617,111.845 187.171 L 106.691 193.632 107.645 194.654 C 110.080 197.261,136.847 223.813,137.140 223.912 C 137.322 223.973,138.034 221.183,138.721 217.712 C 139.408 214.240,140.428 209.150,140.987 206.400 C 141.546 203.650,142.197 200.410,142.434 199.200 C 142.671 197.990,143.016 196.280,143.200 195.400 C 143.384 194.520,143.744 192.720,144.000 191.400 C 144.256 190.080,144.622 188.280,144.813 187.400 C 145.004 186.520,145.350 184.855,145.580 183.700 C 145.811 182.545,146.180 180.700,146.400 179.600 C 146.620 178.500,146.982 176.745,147.203 175.700 C 148.759 168.373,149.238 165.328,149.018 164.158 L 148.770 162.833 146.264 163.067 C 144.262 163.254,143.627 163.170,143.108 162.650 C 142.257 161.800,131.200 161.663,131.200 162.503 M257.098 300.100 C 256.982 300.445,256.044 300.583,254.075 300.545 L 251.220 300.489 250.962 301.861 C 250.821 302.615,250.897 303.990,251.132 304.916 C 251.553 306.575,252.026 308.875,252.836 313.200 C 253.063 314.410,253.417 315.953,253.624 316.628 C 253.831 317.304,254.000 318.246,254.000 318.723 C 254.000 319.509,254.193 320.477,255.211 324.800 C 255.392 325.570,255.734 327.235,255.970 328.500 C 256.207 329.765,256.593 331.835,256.830 333.100 C 257.066 334.365,257.415 336.030,257.606 336.800 C 257.796 337.570,258.155 339.370,258.403 340.800 C 258.827 343.249,259.061 344.388,259.980 348.500 C 260.189 349.435,260.841 352.720,261.428 355.800 C 262.015 358.880,262.571 361.482,262.663 361.582 C 262.875 361.812,293.200 331.521,293.200 331.080 C 293.200 330.902,287.790 324.004,281.177 315.752 C 274.565 307.499,269.056 300.489,268.935 300.174 C 268.634 299.392,257.360 299.321,257.098 300.100 M318.453 300.464 C 317.940 301.286,309.442 312.021,307.239 314.631 C 306.667 315.307,305.660 316.560,305.000 317.414 C 304.340 318.267,302.629 320.414,301.198 322.183 C 296.132 328.447,294.351 330.852,294.483 331.250 C 294.910 332.529,324.600 361.543,324.912 360.985 C 325.099 360.652,325.429 359.439,325.646 358.289 C 326.221 355.251,327.341 349.648,327.945 346.800 C 328.154 345.810,328.539 343.920,328.800 342.600 C 329.061 341.280,329.421 339.480,329.600 338.600 C 329.779 337.720,330.139 335.920,330.400 334.600 C 330.661 333.280,331.021 331.480,331.200 330.600 C 331.379 329.720,331.739 327.920,332.000 326.600 C 332.261 325.280,332.621 323.480,332.800 322.600 C 333.110 321.079,333.700 318.108,334.388 314.600 C 334.561 313.720,335.179 310.622,335.762 307.715 C 337.179 300.658,337.127 300.494,333.504 300.553 C 331.555 300.585,330.615 300.443,330.500 300.100 C 330.163 299.090,319.102 299.424,318.453 300.464 " stroke="none" fill="#ebf3fb" fill-rule="evenodd"></path><path id="path1" d="M79.200 12.400 C 78.870 12.613,77.925 12.791,77.100 12.794 C 76.275 12.797,75.600 12.980,75.600 13.200 C 75.600 13.420,75.060 13.600,74.400 13.600 C 73.740 13.600,73.200 13.780,73.200 14.000 C 73.200 14.220,72.660 14.400,72.000 14.400 C 71.340 14.400,70.800 14.580,70.800 14.800 C 70.800 15.020,70.440 15.200,70.000 15.200 C 69.560 15.200,69.200 15.380,69.200 15.600 C 69.200 15.820,68.947 16.000,68.638 16.000 C 67.972 16.000,64.659 17.668,64.467 18.100 C 64.393 18.265,64.077 18.400,63.763 18.400 C 63.449 18.400,62.628 18.940,61.937 19.600 C 61.246 20.260,60.408 20.800,60.074 20.800 C 59.740 20.800,59.575 20.908,59.707 21.040 C 59.978 21.311,57.413 24.000,56.883 24.000 C 56.694 24.000,55.563 25.096,54.369 26.436 C 53.176 27.776,51.975 29.113,51.700 29.408 C 51.425 29.702,51.200 30.136,51.200 30.371 C 51.200 30.607,51.050 30.800,50.868 30.800 C 50.685 30.800,50.280 31.295,49.968 31.900 C 49.656 32.505,49.311 33.090,49.201 33.200 C 48.739 33.660,47.200 36.920,47.200 37.438 C 47.200 37.747,47.020 38.000,46.800 38.000 C 46.580 38.000,46.400 38.360,46.400 38.800 C 46.400 39.240,46.220 39.600,46.000 39.600 C 45.780 39.600,45.600 40.140,45.600 40.800 C 45.600 41.460,45.420 42.000,45.200 42.000 C 44.980 42.000,44.800 42.529,44.800 43.176 C 44.800 43.823,44.620 44.464,44.400 44.600 C 44.180 44.736,44.000 45.456,44.000 46.200 C 44.000 46.944,43.825 47.661,43.611 47.793 C 43.365 47.945,43.254 55.358,43.311 67.917 L 43.400 87.800 45.595 87.655 C 46.803 87.575,56.793 87.370,67.795 87.200 C 79.489 87.019,88.465 86.715,89.400 86.468 C 90.280 86.235,91.849 85.842,92.887 85.593 C 99.511 84.005,111.209 74.759,113.119 69.600 C 113.242 69.270,113.448 68.910,113.579 68.800 C 113.840 68.580,116.070 63.984,116.685 62.400 C 116.898 61.850,117.318 60.275,117.619 58.900 C 118.520 54.775,118.800 56.000,118.800 64.072 C 118.800 71.219,119.029 73.275,120.049 75.295 C 120.242 75.677,120.400 76.262,120.400 76.595 C 120.400 76.928,120.536 77.200,120.702 77.200 C 120.869 77.200,121.243 77.739,121.535 78.398 C 122.450 80.466,126.442 84.148,129.220 85.487 C 133.425 87.514,134.225 87.591,152.300 87.699 L 169.200 87.800 169.200 67.900 C 169.200 54.900,169.061 48.000,168.800 48.000 C 168.580 48.000,168.400 47.190,168.400 46.200 C 168.400 45.210,168.220 44.400,168.000 44.400 C 167.780 44.400,167.600 43.860,167.600 43.200 C 167.600 42.540,167.420 42.000,167.200 42.000 C 166.980 42.000,166.800 41.460,166.800 40.800 C 166.800 40.140,166.620 39.600,166.400 39.600 C 166.180 39.600,166.000 39.240,166.000 38.800 C 166.000 38.360,165.820 38.000,165.600 38.000 C 165.380 38.000,165.200 37.747,165.200 37.438 C 165.200 36.772,163.532 33.459,163.100 33.267 C 162.935 33.193,162.800 32.828,162.800 32.455 C 162.800 32.082,162.440 31.517,162.000 31.200 C 161.560 30.883,161.200 30.470,161.200 30.283 C 161.200 30.096,160.975 29.700,160.700 29.403 C 160.425 29.107,159.570 28.109,158.800 27.187 C 158.030 26.264,157.061 25.215,156.646 24.855 C 156.231 24.495,155.110 23.435,154.156 22.500 C 153.202 21.565,152.263 20.800,152.070 20.800 C 151.877 20.800,151.154 20.260,150.463 19.600 C 149.772 18.940,148.936 18.400,148.604 18.400 C 148.272 18.400,148.000 18.220,148.000 18.000 C 148.000 17.780,147.775 17.596,147.500 17.591 C 147.225 17.586,146.550 17.230,146.000 16.800 C 145.450 16.370,144.595 16.014,144.100 16.009 C 143.605 16.004,143.200 15.820,143.200 15.600 C 143.200 15.380,142.840 15.200,142.400 15.200 C 141.960 15.200,141.600 15.020,141.600 14.800 C 141.600 14.580,141.161 14.400,140.624 14.400 C 140.087 14.400,139.536 14.220,139.400 14.000 C 139.264 13.780,138.724 13.600,138.200 13.600 C 137.676 13.600,137.136 13.420,137.000 13.200 C 136.864 12.980,136.054 12.800,135.200 12.800 C 134.346 12.800,133.536 12.620,133.400 12.400 C 133.067 11.862,80.033 11.862,79.200 12.400 M266.600 150.000 C 266.464 150.220,265.654 150.400,264.800 150.400 C 263.946 150.400,263.136 150.580,263.000 150.800 C 262.864 151.020,262.324 151.200,261.800 151.200 C 261.276 151.200,260.736 151.380,260.600 151.600 C 260.464 151.820,259.913 152.000,259.376 152.000 C 258.839 152.000,258.400 152.180,258.400 152.400 C 258.400 152.620,258.040 152.800,257.600 152.800 C 257.160 152.800,256.800 152.980,256.800 153.200 C 256.800 153.420,256.457 153.600,256.038 153.600 C 255.131 153.600,252.000 155.208,252.000 155.674 C 252.000 155.853,251.680 156.000,251.288 156.000 C 250.897 156.000,250.317 156.360,250.000 156.800 C 249.683 157.240,249.193 157.600,248.912 157.600 C 248.630 157.600,248.400 157.780,248.400 158.000 C 248.400 158.220,248.212 158.400,247.983 158.400 C 247.509 158.400,247.250 158.611,244.207 161.483 C 242.993 162.628,242.000 163.663,242.000 163.782 C 242.000 163.901,241.280 164.741,240.400 165.648 C 239.520 166.555,238.800 167.505,238.800 167.760 C 238.800 168.015,238.440 168.483,238.000 168.800 C 237.560 169.117,237.200 169.697,237.200 170.088 C 237.200 170.480,237.053 170.800,236.874 170.800 C 236.408 170.800,234.800 173.931,234.800 174.838 C 234.800 175.257,234.620 175.600,234.400 175.600 C 234.180 175.600,234.000 175.960,234.000 176.400 C 234.000 176.840,233.820 177.200,233.600 177.200 C 233.380 177.200,233.200 177.650,233.200 178.200 C 233.200 178.750,233.020 179.200,232.800 179.200 C 232.580 179.200,232.400 179.729,232.400 180.376 C 232.400 181.023,232.220 181.664,232.000 181.800 C 231.780 181.936,231.600 182.757,231.600 183.624 C 231.600 184.491,231.420 185.200,231.200 185.200 C 230.939 185.200,230.800 192.100,230.800 205.100 L 230.800 225.000 252.700 224.870 C 265.361 224.794,274.760 224.583,274.980 224.370 C 275.189 224.166,275.956 224.000,276.685 224.000 C 277.414 224.000,278.323 223.838,278.705 223.639 C 279.087 223.440,280.210 223.042,281.200 222.754 C 290.728 219.980,301.338 209.379,303.972 200.000 C 304.250 199.010,304.640 197.887,304.839 197.505 C 305.038 197.123,305.200 196.373,305.200 195.838 C 305.200 194.523,305.605 193.556,306.042 193.826 C 306.239 193.948,306.400 197.716,306.400 202.200 C 306.400 207.204,306.555 210.448,306.800 210.600 C 307.020 210.736,307.200 211.276,307.200 211.800 C 307.200 212.324,307.380 212.864,307.600 213.000 C 307.820 213.136,308.000 213.597,308.000 214.024 C 308.000 214.451,308.136 214.800,308.302 214.800 C 308.469 214.800,308.850 215.354,309.150 216.032 C 310.008 217.970,314.297 221.867,317.014 223.177 C 320.770 224.988,323.177 225.194,340.700 225.197 L 356.800 225.200 356.800 205.624 C 356.800 193.004,356.658 185.959,356.400 185.800 C 356.180 185.664,356.000 184.854,356.000 184.000 C 356.000 183.146,355.820 182.336,355.600 182.200 C 355.380 182.064,355.200 181.459,355.200 180.856 C 355.200 180.253,355.051 179.589,354.870 179.380 C 354.688 179.171,354.299 178.235,354.006 177.300 C 353.712 176.365,353.321 175.600,353.136 175.600 C 352.951 175.600,352.800 175.347,352.800 175.038 C 352.800 174.372,351.132 171.059,350.700 170.867 C 350.535 170.793,350.400 170.477,350.400 170.163 C 350.400 169.849,349.860 169.028,349.200 168.337 C 348.540 167.646,348.000 166.914,348.000 166.709 C 348.000 166.505,347.280 165.646,346.400 164.800 C 345.520 163.954,344.800 163.069,344.800 162.831 C 344.800 162.594,344.661 162.400,344.491 162.400 C 344.321 162.400,343.344 161.635,342.318 160.700 C 339.616 158.236,338.829 157.600,338.484 157.600 C 338.315 157.600,337.917 157.240,337.600 156.800 C 337.283 156.360,336.703 156.000,336.312 156.000 C 335.920 156.000,335.600 155.820,335.600 155.600 C 335.600 155.380,335.375 155.196,335.100 155.191 C 334.825 155.186,334.150 154.830,333.600 154.400 C 333.050 153.970,332.195 153.614,331.700 153.609 C 331.205 153.604,330.800 153.420,330.800 153.200 C 330.800 152.980,330.440 152.800,330.000 152.800 C 329.560 152.800,329.200 152.620,329.200 152.400 C 329.200 152.180,328.660 152.000,328.000 152.000 C 327.340 152.000,326.800 151.820,326.800 151.600 C 326.800 151.380,326.260 151.200,325.600 151.200 C 324.940 151.200,324.400 151.020,324.400 150.800 C 324.400 150.580,323.680 150.400,322.800 150.400 C 321.920 150.400,321.200 150.220,321.200 150.000 C 321.200 149.737,311.875 149.600,294.024 149.600 C 276.337 149.600,266.761 149.740,266.600 150.000 M60.600 163.200 C 60.464 163.420,60.723 163.600,61.176 163.600 C 61.629 163.600,62.000 163.420,62.000 163.200 C 62.000 162.980,61.741 162.800,61.424 162.800 C 61.107 162.800,60.736 162.980,60.600 163.200 M150.400 163.200 C 150.400 163.420,150.760 163.600,151.200 163.600 C 151.640 163.600,152.000 163.420,152.000 163.200 C 152.000 162.980,151.640 162.800,151.200 162.800 C 150.760 162.800,150.400 162.980,150.400 163.200 M156.200 164.800 C 156.336 165.020,156.717 165.200,157.047 165.200 C 157.377 165.200,157.536 165.020,157.400 164.800 C 157.264 164.580,156.883 164.400,156.553 164.400 C 156.223 164.400,156.064 164.580,156.200 164.800 M160.615 166.424 C 160.896 166.879,162.000 166.927,162.000 166.485 C 162.000 166.312,161.636 166.143,161.191 166.109 C 160.747 166.076,160.487 166.218,160.615 166.424 M169.693 170.800 C 169.968 171.240,170.453 171.600,170.772 171.600 C 171.184 171.600,171.104 171.370,170.492 170.800 C 170.020 170.360,169.534 170.000,169.413 170.000 C 169.292 170.000,169.418 170.360,169.693 170.800 M172.800 172.618 C 172.800 172.994,174.839 174.894,175.034 174.700 C 175.385 174.349,174.713 173.200,174.157 173.200 C 173.851 173.200,173.600 173.020,173.600 172.800 C 173.600 172.580,173.420 172.400,173.200 172.400 C 172.980 172.400,172.800 172.498,172.800 172.618 M176.000 175.018 C 176.000 175.475,178.061 177.273,178.305 177.028 C 178.446 176.887,178.083 176.328,177.498 175.786 C 176.454 174.818,176.000 174.585,176.000 175.018 M178.672 177.061 C 178.523 177.211,178.399 177.618,178.398 177.967 C 178.396 178.315,176.622 180.670,174.455 183.200 C 166.048 193.015,156.110 201.189,144.144 208.135 C 140.648 210.164,140.914 209.760,140.025 214.400 C 139.835 215.390,139.466 217.280,139.203 218.600 C 138.941 219.920,138.590 221.774,138.423 222.720 C 137.876 225.830,137.600 225.744,132.791 220.977 C 130.363 218.570,128.291 216.524,128.187 216.432 C 128.083 216.340,127.053 216.681,125.899 217.191 C 124.744 217.700,123.185 218.384,122.434 218.709 C 119.746 219.873,107.983 223.601,102.739 224.951 C 75.006 232.093,45.520 233.144,17.400 227.993 C 16.300 227.792,14.635 227.506,13.700 227.359 L 12.000 227.091 12.000 238.746 L 12.000 250.400 106.200 250.400 L 200.400 250.400 200.400 232.600 C 200.400 221.000,200.261 214.800,200.000 214.800 C 199.780 214.800,199.600 213.911,199.600 212.824 C 199.600 211.737,199.420 210.736,199.200 210.600 C 198.980 210.464,198.800 209.733,198.800 208.976 C 198.800 208.219,198.620 207.600,198.400 207.600 C 198.180 207.600,198.000 207.060,198.000 206.400 C 198.000 205.740,197.820 205.200,197.600 205.200 C 197.380 205.200,197.200 204.660,197.200 204.000 C 197.200 203.340,197.020 202.800,196.800 202.800 C 196.580 202.800,196.400 202.260,196.400 201.600 C 196.400 200.940,196.220 200.400,196.000 200.400 C 195.780 200.400,195.600 200.040,195.600 199.600 C 195.600 199.160,195.420 198.800,195.200 198.800 C 194.980 198.800,194.800 198.440,194.800 198.000 C 194.800 197.560,194.620 197.200,194.400 197.200 C 194.180 197.200,194.000 196.840,194.000 196.400 C 194.000 195.960,193.864 195.600,193.698 195.600 C 193.531 195.600,193.141 195.015,192.830 194.300 C 192.519 193.585,192.160 192.910,192.032 192.800 C 191.904 192.690,191.517 192.060,191.171 191.400 C 189.945 189.061,189.392 188.201,188.700 187.557 C 188.315 187.199,188.000 186.711,188.000 186.473 C 188.000 185.832,178.991 176.742,178.672 177.061 M29.404 180.796 C 28.774 181.454,28.335 182.056,28.429 182.134 C 28.523 182.212,29.113 181.674,29.739 180.938 C 31.154 179.277,30.945 179.188,29.404 180.796 M21.300 190.998 C 20.557 191.842,20.694 192.073,21.600 191.507 C 22.040 191.232,22.400 190.871,22.400 190.704 C 22.400 190.227,21.849 190.375,21.300 190.998 M16.292 200.642 C 16.131 200.802,16.000 201.209,16.000 201.547 C 16.000 201.997,16.118 202.042,16.445 201.715 C 16.690 201.470,16.821 201.063,16.737 200.810 C 16.652 200.557,16.452 200.481,16.292 200.642 M13.012 210.917 C 12.841 211.312,12.813 211.747,12.951 211.884 C 13.357 212.290,13.684 211.720,13.497 210.931 C 13.332 210.233,13.310 210.232,13.012 210.917 M12.243 215.033 C 11.896 215.937,11.943 216.800,12.339 216.800 C 12.526 216.800,12.694 216.260,12.712 215.600 C 12.750 214.262,12.606 214.087,12.243 215.033 M248.000 300.800 C 248.000 301.020,248.360 301.200,248.800 301.200 C 249.240 301.200,249.600 301.020,249.600 300.800 C 249.600 300.580,249.240 300.400,248.800 300.400 C 248.360 300.400,248.000 300.580,248.000 300.800 M338.000 300.800 C 338.000 301.020,338.371 301.200,338.824 301.200 C 339.277 301.200,339.536 301.020,339.400 300.800 C 339.264 300.580,338.893 300.400,338.576 300.400 C 338.259 300.400,338.000 300.580,338.000 300.800 M244.800 301.600 C 244.800 301.820,245.070 302.000,245.400 302.000 C 245.730 302.000,246.000 301.820,246.000 301.600 C 246.000 301.380,245.730 301.200,245.400 301.200 C 245.070 301.200,244.800 301.380,244.800 301.600 M348.200 304.000 C 348.336 304.220,348.707 304.400,349.024 304.400 C 349.341 304.400,349.600 304.220,349.600 304.000 C 349.600 303.780,349.229 303.600,348.776 303.600 C 348.323 303.600,348.064 303.780,348.200 304.000 M351.600 305.600 C 351.600 305.820,351.870 306.000,352.200 306.000 C 352.530 306.000,352.800 305.820,352.800 305.600 C 352.800 305.380,352.530 305.200,352.200 305.200 C 351.870 305.200,351.600 305.380,351.600 305.600 M354.800 307.200 C 354.800 307.420,355.070 307.600,355.400 307.600 C 355.730 307.600,356.000 307.420,356.000 307.200 C 356.000 306.980,355.730 306.800,355.400 306.800 C 355.070 306.800,354.800 306.980,354.800 307.200 M230.000 308.000 C 230.000 308.220,230.270 308.400,230.600 308.400 C 230.930 308.400,231.200 308.220,231.200 308.000 C 231.200 307.780,230.930 307.600,230.600 307.600 C 230.270 307.600,230.000 307.780,230.000 308.000 M356.851 308.333 C 357.103 308.737,357.555 309.067,357.855 309.067 C 358.587 309.067,358.541 308.795,357.700 308.157 C 356.701 307.399,356.317 307.479,356.851 308.333 M226.871 309.778 C 226.081 310.337,225.718 310.826,225.974 310.984 C 226.212 311.131,226.514 310.969,226.646 310.625 C 226.778 310.281,227.117 310.000,227.400 310.000 C 227.683 310.000,228.018 309.730,228.145 309.400 C 228.429 308.658,228.476 308.644,226.871 309.778 M361.445 311.197 C 362.300 311.855,363.450 312.768,364.000 313.225 C 364.550 313.682,365.270 314.217,365.599 314.413 C 366.124 314.725,366.109 314.936,365.477 316.109 C 363.542 319.702,353.369 330.136,346.400 335.674 C 342.387 338.863,331.689 346.000,330.921 346.000 C 330.224 346.000,328.451 347.770,328.223 348.693 C 327.747 350.629,326.538 356.760,326.070 359.616 C 325.445 363.430,325.099 363.358,320.241 358.405 C 315.587 353.660,315.512 353.620,313.273 354.763 C 311.520 355.657,300.084 359.763,296.840 360.663 C 289.856 362.600,285.255 363.731,280.800 364.607 C 272.614 366.216,271.954 366.330,268.200 366.795 C 266.220 367.040,263.340 367.406,261.800 367.608 C 246.311 369.646,222.392 368.792,205.400 365.595 C 204.080 365.347,202.235 365.043,201.300 364.920 L 199.600 364.696 199.600 376.348 L 199.600 388.000 293.800 388.000 L 388.000 388.000 388.000 370.224 C 388.000 358.804,387.857 352.359,387.600 352.200 C 387.380 352.064,387.200 351.164,387.200 350.200 C 387.200 349.236,387.020 348.336,386.800 348.200 C 386.580 348.064,386.400 347.333,386.400 346.576 C 386.400 345.819,386.220 345.200,386.000 345.200 C 385.780 345.200,385.600 344.671,385.600 344.024 C 385.600 343.377,385.420 342.736,385.200 342.600 C 384.980 342.464,384.800 341.913,384.800 341.376 C 384.800 340.839,384.620 340.400,384.400 340.400 C 384.180 340.400,384.000 339.860,384.000 339.200 C 384.000 338.540,383.820 338.000,383.600 338.000 C 383.380 338.000,383.200 337.640,383.200 337.200 C 383.200 336.760,383.020 336.400,382.800 336.400 C 382.580 336.400,382.400 336.040,382.400 335.600 C 382.400 335.160,382.220 334.800,382.000 334.800 C 381.780 334.800,381.600 334.440,381.600 334.000 C 381.600 333.560,381.420 333.200,381.200 333.200 C 380.980 333.200,380.800 332.840,380.800 332.400 C 380.800 331.960,380.620 331.600,380.400 331.600 C 380.180 331.600,380.000 331.255,380.000 330.833 C 380.000 330.412,379.855 330.007,379.677 329.933 C 379.499 329.860,378.745 328.900,378.002 327.800 C 377.258 326.700,376.324 325.509,375.925 325.153 C 375.526 324.797,375.200 324.209,375.200 323.845 C 375.200 323.121,364.311 312.000,363.602 312.000 C 363.361 312.000,362.714 311.550,362.164 311.000 C 361.614 310.450,360.877 310.000,360.527 310.000 C 360.149 310.000,360.522 310.487,361.445 311.197 M222.474 313.127 C 221.119 314.521,221.720 314.674,223.157 313.301 C 223.829 312.659,224.159 312.142,223.890 312.153 C 223.620 312.164,222.983 312.602,222.474 313.127 M213.000 322.545 C 212.560 323.038,212.142 323.702,212.071 324.021 C 211.944 324.585,212.656 323.931,213.949 322.295 C 214.752 321.278,213.939 321.493,213.000 322.545 M209.696 327.005 C 208.976 328.116,208.915 328.400,209.396 328.400 C 209.728 328.400,210.000 328.099,210.000 327.731 C 210.000 327.364,210.298 326.734,210.662 326.331 C 211.026 325.929,211.161 325.602,210.962 325.605 C 210.763 325.608,210.193 326.238,209.696 327.005 M207.600 330.600 C 207.600 330.930,207.780 331.200,208.000 331.200 C 208.220 331.200,208.400 330.930,208.400 330.600 C 208.400 330.270,208.220 330.000,208.000 330.000 C 207.780 330.000,207.600 330.270,207.600 330.600 M203.708 338.772 C 203.740 339.197,203.909 339.456,204.083 339.349 C 204.527 339.075,204.480 338.000,204.025 338.000 C 203.819 338.000,203.676 338.348,203.708 338.772 M200.400 348.800 C 200.400 349.240,200.580 349.600,200.800 349.600 C 201.020 349.600,201.200 349.240,201.200 348.800 C 201.200 348.360,201.020 348.000,200.800 348.000 C 200.580 348.000,200.400 348.360,200.400 348.800 M199.812 352.517 C 199.641 352.912,199.613 353.347,199.751 353.484 C 200.157 353.890,200.484 353.320,200.297 352.531 C 200.132 351.833,200.110 351.832,199.812 352.517 " stroke="none" fill="#c37c5f" fill-rule="evenodd"></path><path id="path2" d="M118.000 58.576 C 118.000 59.333,117.820 60.064,117.600 60.200 C 117.380 60.336,117.200 60.876,117.200 61.400 C 117.200 61.924,117.020 62.464,116.800 62.600 C 116.580 62.736,116.400 63.109,116.400 63.428 C 116.400 65.622,111.887 72.580,107.834 76.635 C 103.875 80.596,96.859 85.200,94.783 85.200 C 94.378 85.200,93.936 85.380,93.800 85.600 C 93.664 85.820,93.124 86.000,92.600 86.000 C 92.076 86.000,91.548 86.161,91.426 86.358 C 90.975 87.087,87.426 87.305,72.000 87.549 L 56.200 87.800 56.095 101.231 C 56.011 111.942,56.120 115.546,56.635 119.031 C 56.990 121.434,57.369 124.345,57.477 125.500 C 57.585 126.655,57.837 127.600,58.037 127.600 C 58.237 127.600,58.400 128.140,58.400 128.800 C 58.400 129.460,58.579 130.000,58.797 130.000 C 59.016 130.000,59.135 130.394,59.061 130.876 C 58.986 131.366,59.613 132.941,60.487 134.456 C 61.345 135.944,62.074 137.517,62.106 137.953 C 62.139 138.388,62.309 138.656,62.483 138.549 C 62.780 138.365,62.967 138.987,62.837 139.730 C 62.806 139.911,62.965 139.945,63.190 139.806 C 63.416 139.667,63.600 139.698,63.601 139.876 C 63.601 140.054,64.141 140.830,64.800 141.600 C 65.459 142.370,65.999 143.185,65.999 143.412 C 66.000 143.638,66.350 144.076,66.779 144.385 C 67.207 144.693,67.466 145.093,67.355 145.273 C 67.244 145.453,67.356 145.600,67.605 145.600 C 68.169 145.600,69.200 146.604,69.200 147.153 C 69.200 147.627,71.075 149.592,71.306 149.361 C 71.391 149.276,72.580 150.276,73.949 151.582 C 75.318 152.889,76.792 154.070,77.225 154.208 C 77.657 154.345,77.891 154.652,77.744 154.891 C 77.597 155.129,77.650 155.216,77.863 155.085 C 78.076 154.953,78.779 155.203,79.425 155.640 C 80.071 156.077,81.185 156.687,81.900 156.997 C 82.615 157.306,83.200 157.710,83.200 157.894 C 83.200 158.079,83.565 158.257,84.010 158.291 C 84.456 158.324,85.384 158.633,86.072 158.976 C 86.760 159.319,87.645 159.600,88.038 159.600 C 88.431 159.600,88.864 159.780,89.000 160.000 C 89.136 160.220,89.687 160.400,90.224 160.400 C 90.761 160.400,91.200 160.580,91.200 160.800 C 91.200 161.020,91.740 161.200,92.400 161.200 C 93.060 161.200,93.600 161.349,93.600 161.532 C 93.600 162.007,97.809 162.112,98.674 161.658 C 99.073 161.449,100.210 161.063,101.200 160.800 C 102.190 160.537,103.313 160.160,103.695 159.961 C 104.077 159.762,104.589 159.600,104.834 159.600 C 105.760 159.600,112.341 156.156,115.712 153.906 C 125.538 147.350,133.266 136.517,135.902 125.600 C 137.555 118.755,137.600 118.144,137.600 102.769 L 137.600 87.600 135.700 87.594 C 131.235 87.580,125.495 84.389,122.400 80.200 C 119.286 75.985,118.800 73.931,118.800 64.991 C 118.800 60.064,118.653 57.200,118.400 57.200 C 118.180 57.200,118.000 57.819,118.000 58.576 M156.300 87.817 C 156.135 87.991,155.999 94.538,155.998 102.367 C 155.997 113.090,155.852 117.439,155.408 120.000 C 155.084 121.870,154.770 123.760,154.709 124.200 C 154.385 126.574,171.901 125.027,173.320 122.557 C 173.496 122.251,173.829 122.000,174.060 122.000 C 174.589 122.000,178.400 118.135,178.400 117.598 C 178.400 117.379,178.580 117.200,178.800 117.200 C 179.020 117.200,179.200 116.829,179.200 116.376 C 179.200 115.923,179.380 115.664,179.600 115.800 C 179.820 115.936,180.000 115.687,180.000 115.247 C 180.000 114.807,180.180 114.336,180.400 114.200 C 180.620 114.064,180.800 113.549,180.800 113.056 C 180.800 112.563,180.990 111.970,181.223 111.737 C 182.072 110.888,181.259 98.400,180.355 98.400 C 180.160 98.400,180.000 98.113,180.000 97.762 C 180.000 96.196,174.297 90.141,171.915 89.177 C 171.192 88.885,170.491 88.487,170.359 88.294 C 170.051 87.846,156.702 87.393,156.300 87.817 M65.600 162.600 C 65.169 163.120,65.370 163.200,67.102 163.200 C 68.392 163.200,69.279 162.987,69.600 162.600 C 70.031 162.080,69.830 162.000,68.098 162.000 C 66.808 162.000,65.921 162.213,65.600 162.600 M81.200 162.408 C 81.200 162.786,102.216 189.362,104.285 191.600 C 106.233 193.708,106.745 193.051,90.555 209.245 C 80.104 219.698,75.330 224.219,75.126 223.854 C 74.964 223.564,74.636 222.263,74.399 220.963 C 74.161 219.663,73.810 217.880,73.618 217.000 C 73.426 216.120,73.155 214.680,73.014 213.800 C 72.874 212.920,72.601 211.570,72.409 210.800 C 72.217 210.030,71.866 208.410,71.629 207.200 C 71.391 205.990,70.906 203.560,70.549 201.800 C 70.192 200.040,69.750 197.722,69.566 196.649 C 69.237 194.728,68.800 193.705,68.800 194.856 C 68.800 195.180,69.724 200.025,70.854 205.623 C 73.117 216.840,73.338 217.960,73.939 221.281 C 74.825 226.173,73.471 227.093,90.603 209.956 C 99.033 201.523,106.082 194.573,106.267 194.511 C 106.452 194.449,113.441 201.239,121.800 209.600 C 130.158 217.960,137.113 224.800,137.255 224.800 C 137.628 224.800,138.010 223.692,138.430 221.400 C 138.631 220.300,138.986 218.500,139.220 217.400 C 139.453 216.300,139.814 214.500,140.021 213.400 C 140.228 212.300,140.590 210.590,140.824 209.600 C 141.058 208.610,141.419 206.945,141.625 205.900 C 142.271 202.627,142.750 200.264,143.145 198.400 C 143.354 197.410,143.739 195.520,144.000 194.200 C 144.261 192.880,144.621 191.080,144.800 190.200 C 144.979 189.320,145.313 187.610,145.541 186.400 C 145.769 185.190,146.127 183.390,146.335 182.400 C 149.775 166.052,150.281 162.800,149.382 162.800 C 148.897 162.800,148.818 163.090,149.015 164.141 C 149.238 165.330,148.769 168.328,147.203 175.700 C 146.982 176.745,146.632 178.455,146.426 179.500 C 145.802 182.667,145.180 185.712,144.813 187.400 C 144.622 188.280,144.256 190.080,144.000 191.400 C 143.744 192.720,143.384 194.520,143.200 195.400 C 143.016 196.280,142.671 197.990,142.434 199.200 C 142.197 200.410,141.546 203.650,140.987 206.400 C 140.428 209.150,139.408 214.240,138.721 217.712 C 138.034 221.183,137.322 223.973,137.140 223.912 C 136.847 223.813,110.080 197.261,107.645 194.654 L 106.691 193.632 111.845 187.171 C 114.680 183.617,117.630 179.943,118.400 179.007 C 120.219 176.795,120.727 176.162,122.406 174.019 C 123.172 173.040,124.189 171.780,124.664 171.219 C 127.746 167.584,131.196 162.913,131.176 162.403 C 131.158 161.940,131.043 161.974,130.676 162.550 C 130.414 162.962,129.604 164.042,128.875 164.950 C 128.147 165.857,127.334 166.870,127.070 167.200 C 126.805 167.530,125.961 168.606,125.194 169.590 C 124.428 170.575,123.572 171.625,123.294 171.925 C 123.016 172.224,122.297 173.129,121.696 173.935 C 121.096 174.741,120.498 175.490,120.367 175.600 C 120.236 175.710,118.296 178.140,116.054 181.000 C 113.813 183.860,111.576 186.652,111.085 187.204 C 110.593 187.757,109.747 188.837,109.204 189.604 C 106.625 193.252,106.232 193.357,104.400 190.890 C 102.532 188.375,97.953 182.667,95.875 180.263 C 94.954 179.198,94.130 178.131,94.043 177.893 C 93.957 177.655,93.282 176.856,92.543 176.117 C 91.805 175.378,91.200 174.612,91.200 174.415 C 91.200 174.218,90.966 173.819,90.679 173.529 C 90.150 172.991,87.573 169.824,85.400 167.040 C 84.740 166.195,83.708 164.940,83.106 164.252 C 82.505 163.563,82.010 162.775,82.006 162.500 C 82.003 162.225,81.820 162.000,81.600 162.000 C 81.380 162.000,81.200 162.184,81.200 162.408 M142.800 162.337 C 142.800 162.883,143.839 163.200,145.633 163.200 C 148.221 163.200,147.647 162.155,145.000 162.048 C 143.790 161.999,142.800 162.129,142.800 162.337 M62.649 163.417 C 62.424 164.002,62.834 166.334,63.635 169.028 C 63.836 169.704,64.000 170.673,64.000 171.182 C 64.000 171.691,64.167 172.758,64.372 173.554 C 64.576 174.349,64.952 176.080,65.207 177.400 C 65.975 181.384,66.092 181.818,66.264 181.355 C 66.355 181.110,65.701 177.282,64.809 172.847 C 63.895 168.298,63.297 164.352,63.438 163.792 C 63.708 162.714,63.040 162.397,62.649 163.417 M66.480 183.000 C 66.480 183.660,66.624 184.650,66.800 185.200 C 67.111 186.172,67.120 186.167,67.120 185.000 C 67.120 184.340,66.976 183.350,66.800 182.800 C 66.489 181.828,66.480 181.833,66.480 183.000 M67.200 186.761 C 67.200 187.918,68.589 194.140,68.711 193.533 C 68.785 193.166,68.556 191.461,68.201 189.745 C 67.595 186.812,67.200 185.634,67.200 186.761 M305.600 195.710 C 305.600 196.503,305.420 197.264,305.200 197.400 C 304.980 197.536,304.800 198.076,304.800 198.600 C 304.800 199.124,304.620 199.664,304.400 199.800 C 304.180 199.936,304.000 200.381,304.000 200.790 C 304.000 202.163,300.375 208.580,298.007 211.399 C 293.686 216.542,284.894 222.800,281.990 222.800 C 281.581 222.800,281.136 222.980,281.000 223.200 C 280.864 223.420,280.324 223.600,279.800 223.600 C 279.276 223.600,278.748 223.761,278.626 223.958 C 278.171 224.694,274.588 224.898,259.283 225.060 L 243.566 225.227 243.721 241.113 C 243.830 252.217,244.033 257.662,244.395 259.200 C 244.680 260.410,244.887 262.154,244.855 263.075 C 244.822 263.997,244.977 264.862,245.198 264.999 C 245.419 265.135,245.600 265.599,245.600 266.029 C 245.600 266.459,245.757 267.123,245.950 267.505 C 247.448 270.480,248.000 271.753,248.000 272.238 C 248.000 272.547,248.180 272.800,248.400 272.800 C 248.620 272.800,248.800 273.087,248.800 273.438 C 248.800 274.092,250.320 276.494,250.886 276.733 C 251.058 276.807,251.200 277.146,251.200 277.486 C 251.200 277.827,251.516 278.397,251.903 278.753 C 252.289 279.109,252.860 279.895,253.170 280.500 C 253.481 281.105,253.885 281.600,254.068 281.600 C 254.250 281.600,254.400 281.900,254.400 282.267 C 254.400 282.633,254.508 282.825,254.641 282.693 C 254.934 282.400,256.755 284.092,256.546 284.463 C 256.465 284.608,257.504 285.688,258.857 286.863 C 260.209 288.039,261.945 289.585,262.714 290.300 C 263.483 291.015,264.357 291.600,264.656 291.600 C 264.955 291.600,265.200 291.780,265.200 292.000 C 265.200 292.220,265.560 292.400,266.000 292.400 C 266.440 292.400,266.800 292.552,266.800 292.737 C 266.800 292.923,267.655 293.508,268.700 294.037 C 269.745 294.567,270.660 295.135,270.733 295.300 C 270.807 295.465,271.212 295.600,271.633 295.600 C 272.055 295.600,272.400 295.780,272.400 296.000 C 272.400 296.220,272.760 296.400,273.200 296.400 C 273.640 296.400,274.000 296.541,274.000 296.713 C 274.000 296.885,274.495 297.066,275.100 297.116 C 275.705 297.166,276.260 297.385,276.333 297.603 C 276.407 297.822,276.992 298.000,277.633 298.000 C 278.275 298.000,278.800 298.160,278.800 298.356 C 278.800 298.693,279.750 298.924,283.341 299.461 C 284.188 299.588,285.268 299.512,285.741 299.292 C 286.213 299.072,288.400 298.323,290.600 297.628 C 294.471 296.406,296.246 295.626,300.285 293.375 C 302.150 292.336,304.397 290.864,304.800 290.417 C 304.910 290.295,305.630 289.724,306.400 289.149 C 311.325 285.467,317.061 278.299,319.965 272.200 C 321.215 269.574,321.468 268.989,322.345 266.700 C 323.217 264.421,323.964 261.341,324.787 256.633 C 325.020 255.296,325.200 247.943,325.200 239.733 L 325.200 225.200 323.528 225.200 C 317.899 225.200,310.776 220.348,307.968 214.600 L 306.600 211.800 306.400 203.332 C 306.290 198.675,306.065 194.730,305.900 194.565 C 305.735 194.401,305.600 194.916,305.600 195.710 M343.473 240.673 C 343.366 250.474,343.126 257.085,342.822 258.600 C 341.934 263.033,341.271 262.585,348.900 262.710 C 353.277 262.781,355.600 262.677,355.600 262.410 C 355.600 262.184,356.039 262.000,356.576 262.000 C 357.113 262.000,357.664 261.820,357.800 261.600 C 357.936 261.380,358.397 261.200,358.824 261.200 C 359.251 261.200,359.600 261.020,359.600 260.800 C 359.600 260.580,359.825 260.400,360.100 260.400 C 360.375 260.399,361.069 259.994,361.643 259.500 C 365.131 256.492,366.000 255.644,366.000 255.246 C 366.000 255.001,366.180 254.800,366.400 254.800 C 366.620 254.800,366.804 254.485,366.809 254.100 C 366.814 253.715,367.170 252.950,367.600 252.400 C 368.030 251.850,368.386 251.006,368.391 250.524 C 368.396 250.042,368.580 249.536,368.800 249.400 C 369.034 249.255,369.200 246.937,369.200 243.800 C 369.200 240.663,369.034 238.345,368.800 238.200 C 368.580 238.064,368.400 237.423,368.400 236.776 C 368.400 236.129,368.220 235.600,368.000 235.600 C 367.780 235.600,367.600 235.407,367.600 235.172 C 367.600 233.377,361.070 226.806,358.810 226.325 C 358.485 226.256,358.007 226.005,357.748 225.767 C 357.457 225.500,354.663 225.298,350.460 225.240 L 343.643 225.146 343.473 240.673 M253.078 299.856 C 252.607 300.326,253.236 300.800,254.324 300.795 C 255.803 300.787,257.200 300.379,257.200 299.953 C 257.200 299.552,253.470 299.464,253.078 299.856 M268.935 300.174 C 269.056 300.489,274.565 307.499,281.177 315.752 C 287.790 324.004,293.200 330.902,293.200 331.080 C 293.200 331.521,262.875 361.812,262.663 361.582 C 262.571 361.482,262.015 358.880,261.428 355.800 C 260.414 350.484,260.206 349.469,259.255 345.200 C 259.034 344.210,258.651 342.230,258.403 340.800 C 258.155 339.370,257.796 337.570,257.606 336.800 C 257.415 336.030,257.066 334.365,256.830 333.100 C 256.593 331.835,256.207 329.765,255.970 328.500 C 255.734 327.235,255.392 325.570,255.211 324.800 C 254.193 320.477,254.000 319.509,254.000 318.723 C 254.000 318.246,253.831 317.304,253.624 316.628 C 253.417 315.953,253.057 314.410,252.823 313.200 C 251.410 305.891,251.139 304.606,250.978 304.445 C 250.675 304.141,250.781 305.566,251.194 307.323 C 251.411 308.245,252.489 313.590,253.592 319.200 C 254.694 324.810,255.866 330.750,256.197 332.400 C 256.527 334.050,256.993 336.390,257.231 337.600 C 257.470 338.810,257.816 340.520,258.000 341.400 C 258.184 342.280,258.544 344.080,258.800 345.400 C 259.056 346.720,259.416 348.520,259.600 349.400 C 259.906 350.859,260.208 352.380,261.229 357.600 C 261.909 361.073,261.996 361.405,262.387 362.000 C 262.703 362.480,265.836 359.547,278.092 347.300 C 286.514 338.885,293.582 332.000,293.800 332.000 C 294.018 332.000,301.063 338.865,309.455 347.255 C 326.084 363.880,325.156 363.191,325.798 359.393 C 325.946 358.517,326.216 357.260,326.398 356.600 C 326.910 354.741,327.270 351.797,326.946 352.121 C 326.786 352.281,326.517 353.264,326.348 354.306 C 325.725 358.153,325.243 360.395,324.912 360.985 C 324.600 361.543,294.910 332.529,294.483 331.250 C 294.351 330.852,296.132 328.447,301.198 322.183 C 302.629 320.414,304.340 318.267,305.000 317.414 C 305.660 316.560,306.669 315.307,307.242 314.631 C 310.046 311.317,318.797 300.163,318.799 299.900 C 318.799 299.735,318.530 299.600,318.200 299.600 C 317.870 299.600,317.600 299.830,317.600 300.111 C 317.600 300.539,312.796 306.980,312.014 307.600 C 311.875 307.710,311.329 308.430,310.800 309.200 C 310.271 309.970,309.559 310.870,309.219 311.200 C 308.879 311.531,307.972 312.611,307.206 313.600 C 305.530 315.762,305.022 316.395,303.200 318.593 C 302.430 319.521,300.720 321.679,299.400 323.388 C 298.080 325.097,296.719 326.823,296.375 327.222 C 296.031 327.622,295.404 328.411,294.980 328.975 C 294.007 330.271,293.585 330.263,292.595 328.928 C 292.158 328.338,291.426 327.477,290.968 327.014 C 290.511 326.552,289.971 325.885,289.768 325.534 C 289.566 325.182,288.831 324.199,288.135 323.347 C 287.439 322.496,285.226 319.730,283.216 317.200 C 281.207 314.670,279.044 311.970,278.409 311.200 C 277.774 310.430,276.748 309.170,276.130 308.400 C 275.511 307.630,274.824 306.800,274.603 306.555 C 274.381 306.310,273.120 304.653,271.800 302.873 C 269.590 299.893,268.394 298.766,268.935 300.174 M330.400 299.975 C 330.400 300.437,333.779 300.984,334.372 300.618 C 335.363 300.005,334.658 299.600,332.600 299.600 C 331.390 299.600,330.400 299.769,330.400 299.975 M250.028 301.500 C 250.069 303.091,250.731 304.593,250.777 303.200 C 250.796 302.650,250.919 301.795,251.052 301.300 C 251.229 300.638,251.122 300.400,250.647 300.400 C 250.201 300.400,250.009 300.742,250.028 301.500 M336.568 301.415 C 336.709 301.975,336.347 304.801,335.762 307.715 C 333.674 318.122,333.367 319.912,333.725 319.586 C 333.855 319.469,334.417 317.039,334.976 314.186 C 335.534 311.334,336.186 308.010,336.424 306.800 C 336.662 305.590,337.024 303.949,337.228 303.154 C 337.759 301.089,337.691 300.400,336.957 300.400 C 336.468 300.400,336.374 300.643,336.568 301.415 M333.031 321.400 C 332.881 322.280,332.603 323.720,332.412 324.600 C 332.221 325.480,331.856 327.280,331.600 328.600 C 331.344 329.920,330.984 331.720,330.800 332.600 C 330.616 333.480,330.256 335.280,330.000 336.600 C 329.744 337.920,329.384 339.720,329.200 340.600 C 329.016 341.480,328.660 343.280,328.408 344.600 C 328.157 345.920,327.783 347.553,327.576 348.228 C 327.369 348.904,327.221 349.984,327.246 350.628 C 327.278 351.415,327.349 351.537,327.464 351.000 C 327.557 350.560,327.975 348.760,328.392 347.000 C 329.793 341.082,333.661 320.782,333.481 320.288 C 333.383 320.020,333.180 320.520,333.031 321.400 " stroke="none" fill="#ebbb9c" fill-rule="evenodd"></path><path id="path3" d="M117.646 58.667 C 117.621 58.924,117.484 59.464,117.341 59.867 C 117.140 60.436,117.194 60.497,117.579 60.142 C 117.852 59.891,117.989 59.351,117.884 58.942 C 117.779 58.534,117.672 58.410,117.646 58.667 M112.937 69.804 C 112.683 70.352,112.637 70.701,112.835 70.578 C 113.363 70.252,114.082 68.799,113.714 68.803 C 113.541 68.805,113.192 69.255,112.937 69.804 M110.664 73.167 C 109.213 75.070,106.374 77.863,103.561 80.155 C 102.566 80.967,102.469 81.131,103.200 80.766 C 105.039 79.849,113.263 71.200,112.296 71.200 C 112.224 71.200,111.489 72.085,110.664 73.167 M120.788 77.978 C 121.417 79.153,121.992 79.346,121.463 78.204 C 121.208 77.655,120.859 77.205,120.686 77.203 C 120.513 77.201,120.559 77.550,120.788 77.978 M122.437 80.200 C 123.364 81.612,124.568 82.857,125.800 83.677 C 126.975 84.460,126.973 84.453,125.702 83.338 C 124.989 82.712,123.844 81.570,123.158 80.800 C 122.472 80.030,122.148 79.760,122.437 80.200 M97.865 83.447 C 97.240 83.786,96.806 84.139,96.900 84.233 C 97.087 84.420,99.600 83.246,99.600 82.971 C 99.600 82.662,99.018 82.822,97.865 83.447 M92.400 85.662 C 91.630 85.871,90.280 86.233,89.400 86.466 C 88.460 86.715,79.409 87.020,67.448 87.205 C 44.477 87.561,43.590 87.627,40.603 89.198 C 38.360 90.378,34.661 93.694,33.813 95.285 C 33.545 95.788,32.937 96.880,32.463 97.712 C 31.988 98.544,31.600 99.568,31.600 99.989 C 31.600 100.409,31.420 100.864,31.200 101.000 C 30.617 101.360,30.709 110.310,31.313 112.000 C 33.237 117.381,35.719 120.404,40.600 123.312 L 43.400 124.980 50.553 125.123 L 57.706 125.266 57.440 124.133 C 56.300 119.282,55.994 114.078,56.095 101.231 L 56.200 87.800 72.000 87.549 C 87.426 87.305,90.975 87.087,91.426 86.358 C 91.548 86.161,92.076 86.000,92.600 86.000 C 93.124 86.000,93.664 85.820,93.800 85.600 C 93.936 85.380,93.992 85.218,93.924 85.241 C 93.856 85.263,93.170 85.453,92.400 85.662 M137.600 102.769 C 137.600 118.144,137.555 118.755,135.902 125.600 C 133.266 136.517,125.538 147.350,115.712 153.906 C 112.341 156.156,105.760 159.600,104.834 159.600 C 104.589 159.600,104.077 159.762,103.695 159.961 C 103.313 160.160,102.190 160.537,101.200 160.800 C 100.210 161.063,99.068 161.453,98.661 161.667 C 98.255 161.880,97.085 162.027,96.061 161.992 C 95.038 161.957,91.455 161.945,88.100 161.964 C 81.382 162.004,81.211 162.082,83.106 164.252 C 83.708 164.940,84.740 166.195,85.400 167.040 C 87.573 169.824,90.150 172.991,90.679 173.529 C 90.966 173.819,91.200 174.218,91.200 174.415 C 91.200 174.612,91.804 175.378,92.543 176.117 C 93.282 176.855,93.957 177.655,94.043 177.893 C 94.129 178.131,94.954 179.198,95.875 180.263 C 97.953 182.667,102.532 188.375,104.400 190.890 C 106.232 193.357,106.625 193.252,109.204 189.604 C 109.747 188.837,110.593 187.757,111.085 187.204 C 111.576 186.652,113.813 183.860,116.054 181.000 C 118.296 178.140,120.236 175.710,120.367 175.600 C 120.498 175.490,121.096 174.741,121.696 173.935 C 122.297 173.129,123.016 172.224,123.294 171.925 C 123.572 171.625,124.428 170.575,125.194 169.590 C 127.014 167.255,127.586 166.542,128.841 165.043 C 129.414 164.359,130.095 163.395,130.355 162.900 L 130.828 162.000 124.814 162.000 C 121.071 162.000,118.800 161.849,118.800 161.600 C 118.800 161.380,119.419 161.200,120.176 161.200 C 120.933 161.200,121.664 161.020,121.800 160.800 C 121.936 160.580,122.397 160.400,122.824 160.400 C 123.251 160.400,123.600 160.220,123.600 160.000 C 123.600 159.780,124.140 159.600,124.800 159.600 C 125.460 159.600,126.000 159.420,126.000 159.200 C 126.000 158.980,126.272 158.800,126.605 158.800 C 127.303 158.800,128.862 157.988,129.294 157.400 C 129.456 157.180,129.591 157.139,129.594 157.308 C 129.597 157.478,130.344 157.208,131.254 156.708 C 133.874 155.270,134.348 154.971,135.129 154.264 C 135.533 153.899,136.059 153.600,136.298 153.600 C 136.538 153.600,136.793 153.458,136.867 153.285 C 136.940 153.112,137.802 152.347,138.782 151.585 C 141.097 149.785,143.200 147.725,143.200 147.256 C 143.200 147.052,143.496 146.772,143.857 146.633 C 144.219 146.495,144.407 146.274,144.275 146.142 C 144.144 146.010,144.748 145.219,145.618 144.383 C 146.488 143.547,147.200 142.618,147.200 142.320 C 147.200 142.021,147.560 141.517,148.000 141.200 C 148.440 140.883,148.800 140.273,148.800 139.845 C 148.800 139.417,148.927 139.194,149.082 139.349 C 149.346 139.613,150.452 137.887,151.036 136.300 C 151.177 135.915,151.452 135.600,151.647 135.600 C 151.841 135.600,152.000 135.240,152.000 134.800 C 152.000 134.360,152.141 134.000,152.313 134.000 C 152.485 134.000,152.875 133.145,153.180 132.100 C 153.712 130.276,153.916 129.762,154.800 128.005 C 155.326 126.961,155.311 125.316,154.773 124.983 C 154.538 124.838,154.461 124.422,154.601 124.060 C 155.484 121.781,155.728 118.112,155.951 103.700 L 156.200 87.599 146.900 87.600 L 137.600 87.600 137.600 102.769 M64.893 142.400 C 65.168 142.840,65.531 143.200,65.700 143.200 C 65.869 143.200,65.782 142.840,65.507 142.400 C 65.232 141.960,64.869 141.600,64.700 141.600 C 64.531 141.600,64.618 141.960,64.893 142.400 M68.093 146.400 C 68.562 147.151,69.200 147.480,69.200 146.971 C 69.200 146.673,68.125 145.600,67.825 145.600 C 67.698 145.600,67.818 145.960,68.093 146.400 M62.000 163.160 C 62.000 163.358,61.235 163.616,60.300 163.734 C 57.475 164.090,56.000 164.472,56.000 164.845 C 56.000 165.040,55.359 165.200,54.576 165.200 C 53.729 165.200,53.253 165.362,53.400 165.600 C 53.538 165.824,53.226 166.000,52.690 166.000 C 52.164 166.000,51.598 166.135,51.433 166.300 C 51.150 166.584,51.004 166.629,49.976 166.750 C 49.743 166.778,49.688 167.025,49.853 167.300 C 50.028 167.591,49.839 167.550,49.400 167.200 C 48.986 166.870,48.765 166.798,48.910 167.040 C 49.054 167.282,48.774 167.664,48.286 167.889 C 44.918 169.446,43.600 170.170,43.600 170.463 C 43.600 170.648,43.351 170.800,43.046 170.800 C 42.080 170.800,40.289 171.893,40.872 172.126 C 41.162 172.242,40.927 172.351,40.349 172.368 C 39.268 172.401,38.202 173.269,38.670 173.737 C 38.899 173.966,38.536 174.061,37.770 173.974 C 37.643 173.959,37.238 174.294,36.870 174.717 C 36.501 175.139,35.799 175.612,35.308 175.767 C 34.818 175.922,34.458 176.263,34.508 176.524 C 34.559 176.786,34.285 176.947,33.900 176.882 C 33.485 176.813,33.200 177.016,33.200 177.382 C 33.200 177.722,33.043 178.000,32.850 178.000 C 32.520 178.000,30.153 180.325,28.472 182.300 C 28.051 182.795,27.576 183.200,27.417 183.200 C 26.940 183.200,25.628 184.955,25.613 185.612 C 25.606 185.948,25.250 186.476,24.821 186.785 C 24.393 187.093,24.134 187.493,24.245 187.673 C 24.356 187.853,24.246 188.000,24.000 188.000 C 23.754 188.000,23.651 188.160,23.772 188.355 C 23.892 188.550,23.633 188.803,23.196 188.917 C 22.686 189.050,22.400 189.463,22.400 190.066 C 22.400 190.584,22.040 191.232,21.600 191.507 C 21.160 191.782,20.800 192.283,20.800 192.620 C 20.800 192.957,20.440 193.620,20.000 194.092 C 19.560 194.564,19.200 195.277,19.200 195.675 C 19.200 196.074,19.020 196.400,18.800 196.400 C 18.580 196.400,18.394 196.715,18.387 197.100 C 18.370 198.039,17.408 199.261,16.974 198.894 C 16.783 198.732,16.890 198.950,17.213 199.377 C 17.580 199.863,17.613 200.041,17.300 199.853 C 16.953 199.645,16.800 199.859,16.800 200.553 C 16.800 201.103,16.620 201.664,16.400 201.800 C 16.180 201.936,16.000 202.407,16.000 202.847 C 16.000 203.287,15.820 203.536,15.600 203.400 C 15.367 203.256,15.200 203.663,15.200 204.376 C 15.200 205.049,15.020 205.600,14.800 205.600 C 14.580 205.600,14.400 206.219,14.400 206.976 C 14.400 207.733,14.220 208.464,14.000 208.600 C 13.780 208.736,13.600 209.557,13.600 210.424 C 13.600 211.291,13.450 212.000,13.266 212.000 C 12.970 212.000,12.695 214.125,12.736 216.100 C 12.744 216.485,12.626 216.800,12.475 216.800 C 12.324 216.800,12.141 219.114,12.069 221.941 L 11.938 227.083 13.669 227.355 C 14.621 227.504,16.300 227.792,17.400 227.993 C 45.520 233.144,75.006 232.093,102.739 224.951 C 107.983 223.601,119.746 219.873,122.434 218.709 C 123.185 218.384,124.748 217.699,125.907 217.187 L 128.014 216.257 129.507 217.619 C 130.328 218.368,125.511 213.450,118.802 206.690 C 112.093 199.930,106.452 194.449,106.267 194.511 C 106.082 194.573,99.033 201.523,90.603 209.956 C 73.471 227.093,74.823 226.174,73.941 221.281 C 73.197 217.156,72.863 215.457,71.843 210.600 C 71.021 206.685,68.834 195.682,66.356 183.000 C 66.141 181.900,65.810 180.280,65.620 179.400 C 65.221 177.554,64.471 173.804,63.980 171.200 C 63.794 170.210,63.428 168.410,63.168 167.200 C 62.907 165.990,62.692 164.505,62.690 163.900 C 62.687 163.295,62.531 162.800,62.343 162.800 C 62.154 162.800,62.000 162.962,62.000 163.160 M150.004 163.400 C 149.998 164.062,147.807 175.406,146.335 182.400 C 146.127 183.390,145.769 185.190,145.541 186.400 C 145.313 187.610,144.979 189.320,144.800 190.200 C 144.621 191.080,144.261 192.880,144.000 194.200 C 143.739 195.520,143.354 197.410,143.145 198.400 C 142.752 200.251,142.282 202.575,141.625 205.900 C 141.418 206.945,141.124 208.315,140.970 208.943 C 140.646 210.268,140.358 210.368,145.367 207.407 C 156.770 200.665,167.138 191.996,174.881 182.729 C 177.733 179.315,179.594 176.262,178.355 177.028 C 178.148 177.156,177.461 176.707,176.828 176.030 C 176.196 175.354,175.463 174.800,175.200 174.800 C 174.937 174.800,174.217 174.260,173.600 173.600 C 172.983 172.940,172.281 172.400,172.040 172.400 C 171.798 172.400,171.600 172.220,171.600 172.000 C 171.600 171.780,171.283 171.600,170.896 171.600 C 170.509 171.600,169.968 171.240,169.693 170.800 C 169.418 170.360,168.835 170.000,168.397 170.000 C 167.958 170.000,167.600 169.820,167.600 169.600 C 167.600 169.380,167.105 169.197,166.500 169.194 C 165.643 169.189,165.532 169.102,166.000 168.800 C 166.468 168.498,166.357 168.411,165.500 168.406 C 164.895 168.403,164.400 168.220,164.400 168.000 C 164.400 167.780,164.128 167.600,163.795 167.600 C 163.462 167.600,162.832 167.420,162.395 167.200 C 161.958 166.980,161.242 166.620,160.805 166.400 C 160.368 166.180,159.738 166.000,159.405 166.000 C 159.072 166.000,158.800 165.820,158.800 165.600 C 158.800 165.380,158.344 165.200,157.786 165.200 C 157.228 165.200,156.328 164.909,155.786 164.554 C 155.243 164.198,153.863 163.834,152.718 163.745 C 151.573 163.655,150.496 163.361,150.324 163.091 C 150.115 162.761,150.010 162.862,150.004 163.400 M305.442 194.235 C 305.309 194.582,305.200 195.380,305.200 196.009 C 305.200 196.638,305.041 197.251,304.846 197.371 C 304.651 197.492,304.414 198.123,304.318 198.774 C 304.223 199.425,304.292 199.867,304.472 199.755 C 304.653 199.644,304.800 199.124,304.800 198.600 C 304.800 198.076,304.980 197.536,305.200 197.400 C 305.420 197.264,305.603 196.488,305.606 195.676 C 305.611 194.576,305.711 194.353,306.000 194.800 C 306.334 195.317,306.389 195.307,306.394 194.724 C 306.402 193.799,305.740 193.459,305.442 194.235 M302.386 203.901 C 301.545 205.587,301.540 205.600,301.747 205.600 C 302.005 205.600,303.242 203.108,303.069 202.936 C 302.995 202.862,302.688 203.296,302.386 203.901 M300.708 206.900 C 300.387 207.395,299.907 208.250,299.640 208.800 C 298.960 210.203,300.194 208.706,301.041 207.100 C 301.739 205.774,301.523 205.644,300.708 206.900 M306.428 210.676 C 306.518 211.715,307.144 212.596,307.172 211.724 C 307.187 211.242,307.020 210.736,306.800 210.600 C 306.580 210.464,306.413 210.498,306.428 210.676 M295.000 214.089 C 292.751 216.382,292.357 216.905,293.674 215.849 C 295.220 214.610,298.769 210.768,298.327 210.813 C 298.257 210.820,296.760 212.294,295.000 214.089 M308.677 216.037 C 309.755 217.881,311.874 220.261,313.320 221.250 C 314.060 221.757,313.566 221.101,312.148 219.695 C 310.799 218.358,309.450 216.710,309.150 216.032 C 308.850 215.354,308.458 214.800,308.280 214.800 C 308.101 214.800,308.280 215.356,308.677 216.037 M289.400 218.685 C 286.834 220.465,286.596 220.749,288.600 219.638 C 290.609 218.525,291.792 217.654,291.571 217.453 C 291.477 217.368,290.500 217.922,289.400 218.685 M138.629 219.829 C 138.481 220.415,138.438 220.972,138.532 221.066 C 138.627 221.160,138.824 220.758,138.971 220.171 C 139.119 219.585,139.162 219.028,139.068 218.934 C 138.973 218.840,138.776 219.242,138.629 219.829 M132.783 220.900 C 134.441 222.666,134.800 222.984,134.800 222.683 C 134.800 222.619,133.945 221.764,132.900 220.783 L 131.000 219.000 132.783 220.900 M284.632 221.402 C 283.550 221.951,282.380 222.414,282.032 222.432 C 281.595 222.453,281.559 222.527,281.917 222.670 C 282.390 222.860,286.800 220.964,286.800 220.571 C 286.800 220.310,286.737 220.334,284.632 221.402 M138.025 223.200 C 137.928 224.750,137.284 225.016,136.121 223.990 L 135.000 223.000 135.970 224.100 C 137.241 225.542,138.949 224.779,138.258 223.078 C 138.135 222.776,138.049 222.821,138.025 223.200 M280.000 223.088 C 279.450 223.187,278.829 223.432,278.620 223.634 C 278.411 223.835,277.567 224.000,276.744 224.000 C 275.921 224.000,275.147 224.163,275.024 224.362 C 274.743 224.815,278.056 224.431,278.580 223.949 C 278.789 223.757,279.363 223.600,279.856 223.600 C 280.349 223.600,280.864 223.420,281.000 223.200 C 281.136 222.980,281.192 222.825,281.124 222.854 C 281.056 222.884,280.550 222.990,280.000 223.088 M232.784 225.211 C 228.355 225.730,223.075 229.435,220.830 233.600 C 220.296 234.590,219.736 235.490,219.585 235.600 C 218.720 236.230,217.950 249.600,218.779 249.600 C 219.011 249.600,219.200 249.924,219.200 250.320 C 219.200 251.214,220.094 253.193,220.500 253.197 C 220.665 253.199,220.800 253.470,220.800 253.800 C 220.800 254.130,220.980 254.400,221.200 254.400 C 221.420 254.400,221.600 254.648,221.600 254.952 C 221.600 255.255,222.307 256.200,223.172 257.052 C 225.376 259.224,225.880 259.600,226.583 259.600 C 226.922 259.600,227.200 259.747,227.200 259.926 C 227.200 260.385,230.325 262.000,231.214 262.000 C 231.620 262.000,232.064 262.180,232.200 262.400 C 232.348 262.640,235.019 262.800,238.867 262.800 L 245.287 262.800 244.987 261.700 C 244.029 258.181,243.867 255.539,243.724 241.105 L 243.566 225.209 259.083 225.100 C 273.532 224.998,273.251 224.987,255.000 224.948 C 244.220 224.924,234.223 225.043,232.784 225.211 M321.700 225.076 C 322.085 225.176,322.715 225.176,323.100 225.076 C 323.485 224.975,323.170 224.893,322.400 224.893 C 321.630 224.893,321.315 224.975,321.700 225.076 M325.200 239.733 C 325.200 253.391,325.061 255.754,323.949 261.000 C 321.711 271.562,314.542 283.062,306.400 289.149 C 305.630 289.724,304.910 290.295,304.800 290.417 C 304.397 290.864,302.150 292.336,300.285 293.375 C 296.239 295.630,294.470 296.406,290.600 297.622 C 288.400 298.313,286.287 299.041,285.905 299.239 C 284.949 299.736,282.519 299.692,281.525 299.160 C 280.928 298.840,280.778 298.840,280.975 299.160 C 281.168 299.472,279.556 299.600,275.424 299.600 C 272.221 299.600,269.600 299.705,269.600 299.833 C 269.600 300.036,274.256 306.267,274.806 306.800 C 274.920 306.910,275.517 307.630,276.134 308.400 C 276.750 309.170,277.774 310.430,278.409 311.200 C 279.044 311.970,281.207 314.670,283.216 317.200 C 285.226 319.730,287.439 322.496,288.135 323.347 C 288.831 324.199,289.566 325.182,289.768 325.534 C 289.971 325.885,290.511 326.552,290.968 327.014 C 291.426 327.477,292.158 328.338,292.595 328.928 C 293.585 330.263,294.007 330.271,294.980 328.975 C 295.404 328.411,296.031 327.622,296.375 327.222 C 296.719 326.823,298.080 325.097,299.400 323.388 C 300.720 321.679,302.430 319.521,303.200 318.593 C 305.022 316.395,305.530 315.762,307.206 313.600 C 307.972 312.611,308.879 311.531,309.219 311.200 C 309.559 310.870,310.271 309.970,310.800 309.200 C 311.329 308.430,311.875 307.710,312.014 307.600 C 312.796 306.980,317.600 300.539,317.600 300.111 C 317.600 299.721,316.276 299.600,312.000 299.600 C 308.533 299.600,306.400 299.448,306.400 299.200 C 306.400 298.980,306.763 298.800,307.206 298.800 C 308.333 298.800,311.200 297.869,311.200 297.503 C 311.200 297.336,311.740 297.200,312.400 297.200 C 313.060 297.200,313.600 297.020,313.600 296.800 C 313.600 296.580,313.960 296.400,314.400 296.400 C 314.840 296.400,315.200 296.220,315.200 296.000 C 315.200 295.780,315.560 295.600,316.000 295.600 C 316.440 295.600,316.800 295.420,316.800 295.200 C 316.800 294.980,317.160 294.800,317.600 294.800 C 318.040 294.800,318.400 294.620,318.400 294.400 C 318.400 294.180,318.720 294.000,319.112 294.000 C 319.503 294.000,320.083 293.640,320.400 293.200 C 320.717 292.760,321.173 292.400,321.413 292.400 C 321.653 292.400,322.243 292.033,322.725 291.584 C 323.206 291.136,323.600 290.900,323.600 291.060 C 323.600 291.220,323.947 291.002,324.371 290.575 C 324.794 290.149,325.912 289.170,326.853 288.400 C 329.417 286.304,334.507 280.867,334.709 280.010 C 334.768 279.756,335.173 279.166,335.609 278.699 C 336.044 278.231,336.400 277.696,336.400 277.508 C 336.400 277.320,336.751 276.790,337.180 276.329 C 337.857 275.603,339.509 272.600,339.232 272.600 C 339.178 272.600,339.610 271.650,340.193 270.488 C 340.777 269.326,341.356 267.751,341.479 266.988 C 341.603 266.225,341.871 265.600,342.075 265.600 C 342.279 265.600,342.415 264.565,342.377 263.300 C 342.338 262.035,342.531 259.920,342.805 258.600 C 343.132 257.026,343.362 250.868,343.473 240.700 L 343.643 225.200 334.422 225.200 L 325.200 225.200 325.200 239.733 M249.580 300.680 C 249.481 300.944,248.635 301.204,247.700 301.258 C 246.765 301.312,246.000 301.501,246.000 301.678 C 246.000 301.855,245.580 302.000,245.067 302.000 C 244.553 302.000,244.014 302.120,243.867 302.266 C 243.721 302.412,243.109 302.585,242.506 302.649 C 241.904 302.713,241.349 302.953,241.272 303.183 C 241.196 303.412,240.608 303.600,239.967 303.600 C 239.325 303.600,238.800 303.780,238.800 304.000 C 238.800 304.220,238.440 304.400,238.000 304.400 C 237.560 304.400,237.200 304.610,237.200 304.867 C 237.200 305.123,237.080 305.213,236.932 305.066 C 236.785 304.919,236.335 305.097,235.932 305.461 C 235.350 305.988,235.199 306.009,235.194 305.562 C 235.190 305.226,235.070 305.161,234.894 305.400 C 234.440 306.018,232.083 307.600,231.616 307.600 C 231.387 307.600,231.200 307.760,231.200 307.955 C 231.200 308.151,230.561 308.431,229.779 308.578 C 228.997 308.724,228.258 309.104,228.136 309.422 C 228.014 309.740,227.683 310.000,227.400 310.000 C 227.117 310.000,226.778 310.281,226.646 310.625 C 226.514 310.969,226.243 311.150,226.045 311.028 C 225.847 310.905,224.864 311.614,223.861 312.602 C 222.858 313.591,221.886 314.400,221.701 314.400 C 221.192 314.400,215.523 320.003,214.417 321.600 C 213.884 322.370,212.942 323.497,212.324 324.103 C 211.706 324.710,211.200 325.363,211.200 325.555 C 211.200 325.746,210.930 326.126,210.600 326.400 C 210.270 326.674,210.000 327.236,210.000 327.649 C 210.000 328.062,209.738 328.400,209.418 328.400 C 209.070 328.400,208.731 328.962,208.574 329.800 C 208.429 330.570,208.151 331.200,207.955 331.200 C 207.760 331.200,207.600 331.481,207.600 331.824 C 207.600 332.167,207.457 332.359,207.283 332.251 C 207.109 332.144,206.939 332.418,206.905 332.861 C 206.872 333.305,206.447 334.012,205.961 334.434 C 205.445 334.881,205.295 335.200,205.601 335.200 C 205.981 335.200,205.943 335.400,205.461 335.932 C 205.097 336.335,204.919 336.785,205.066 336.932 C 205.213 337.080,205.123 337.200,204.867 337.200 C 204.610 337.200,204.400 337.639,204.400 338.176 C 204.400 338.713,204.220 339.264,204.000 339.400 C 203.780 339.536,203.600 339.982,203.600 340.390 C 203.600 340.799,203.427 341.193,203.216 341.267 C 203.004 341.340,202.589 342.350,202.293 343.511 C 201.997 344.671,201.662 345.528,201.549 345.415 C 201.435 345.302,201.301 346.152,201.249 347.305 C 201.198 348.457,200.986 349.460,200.778 349.533 C 200.570 349.607,200.400 350.552,200.400 351.633 C 200.400 352.715,200.262 353.600,200.093 353.600 C 199.924 353.600,199.729 356.095,199.659 359.144 L 199.533 364.688 201.267 364.916 C 202.220 365.041,204.080 365.347,205.400 365.595 C 222.392 368.792,246.311 369.646,261.800 367.608 C 263.340 367.406,266.220 367.040,268.200 366.795 C 271.954 366.330,272.614 366.216,280.800 364.607 C 285.255 363.731,289.856 362.600,296.840 360.663 C 300.084 359.763,311.520 355.657,313.273 354.763 C 314.095 354.343,315.089 354.000,315.481 354.000 C 315.916 354.000,311.906 349.710,305.200 343.000 C 299.153 336.950,294.025 332.000,293.805 332.000 C 293.584 332.000,286.514 338.885,278.092 347.300 C 265.836 359.547,262.703 362.480,262.387 362.000 C 261.996 361.405,261.909 361.073,261.229 357.600 C 260.208 352.380,259.906 350.859,259.600 349.400 C 259.416 348.520,259.056 346.720,258.800 345.400 C 258.544 344.080,258.184 342.280,258.000 341.400 C 257.816 340.520,257.470 338.810,257.231 337.600 C 256.407 333.418,255.597 329.389,255.019 326.600 C 254.484 324.022,250.655 304.825,250.031 301.600 C 249.883 300.830,249.680 300.416,249.580 300.680 M337.250 302.907 C 336.969 304.278,336.571 306.210,336.366 307.200 C 336.161 308.190,335.630 310.890,335.187 313.200 C 334.743 315.510,334.211 318.120,334.003 319.000 C 333.796 319.880,332.636 325.730,331.427 332.000 C 330.217 338.270,329.041 344.168,328.814 345.106 C 328.212 347.588,328.278 347.741,329.562 346.827 C 330.201 346.372,330.812 346.000,330.921 346.000 C 331.689 346.000,342.387 338.863,346.400 335.674 C 353.369 330.136,363.542 319.702,365.477 316.109 C 366.109 314.936,366.124 314.725,365.599 314.413 C 365.270 314.217,364.550 313.682,364.000 313.225 C 363.450 312.768,362.331 311.880,361.513 311.251 C 360.695 310.622,360.155 309.971,360.313 309.804 C 360.471 309.637,360.195 309.625,359.700 309.777 C 359.048 309.978,358.800 309.891,358.800 309.462 C 358.800 309.126,358.498 308.916,358.100 308.976 C 357.715 309.033,357.165 308.747,356.877 308.340 C 356.590 307.933,356.005 307.600,355.577 307.600 C 355.150 307.600,354.800 307.420,354.800 307.200 C 354.800 306.980,354.530 306.800,354.200 306.800 C 353.870 306.800,353.600 306.620,353.600 306.400 C 353.600 306.180,353.150 306.000,352.600 306.000 C 352.050 306.000,351.600 305.820,351.600 305.600 C 351.600 305.380,351.229 305.200,350.776 305.200 C 350.323 305.200,350.064 305.020,350.200 304.800 C 350.336 304.580,350.074 304.400,349.618 304.400 C 348.818 304.400,348.435 304.260,346.505 303.262 C 346.013 303.008,345.248 302.800,344.805 302.800 C 344.362 302.800,344.000 302.620,344.000 302.400 C 344.000 302.180,343.460 302.000,342.800 302.000 C 342.140 302.000,341.600 301.855,341.600 301.678 C 341.600 301.501,340.840 301.312,339.910 301.257 C 338.981 301.202,338.117 300.990,337.991 300.786 C 337.865 300.582,337.532 301.536,337.250 302.907 M327.246 352.067 C 327.221 352.434,327.096 353.064,326.970 353.467 C 326.752 354.162,326.763 354.163,327.197 353.487 C 327.448 353.096,327.573 352.466,327.473 352.087 C 327.311 351.468,327.288 351.466,327.246 352.067 M321.600 359.715 C 324.755 362.990,326.082 363.155,325.966 360.256 C 325.936 359.531,325.882 359.563,325.609 360.469 C 324.962 362.609,324.792 362.570,321.651 359.541 L 318.600 356.600 321.600 359.715 " stroke="none" fill="#e08872" fill-rule="evenodd"></path><path id="path4" d="M71.100 296.439 C 59.275 308.306,49.600 318.282,49.600 318.608 C 49.600 319.118,51.338 319.200,62.162 319.200 L 74.725 319.200 74.948 325.100 C 75.172 331.025,75.208 331.423,75.751 334.000 C 75.914 334.770,76.099 335.670,76.163 336.000 C 76.227 336.330,76.377 336.870,76.498 337.200 C 76.618 337.530,77.140 339.194,77.658 340.898 C 78.176 342.602,78.735 343.997,78.900 343.998 C 79.065 343.999,79.200 344.540,79.200 345.200 C 79.200 345.860,79.380 346.400,79.600 346.400 C 79.820 346.400,80.000 346.760,80.000 347.200 C 80.000 347.640,80.180 348.000,80.400 348.000 C 80.620 348.000,80.800 348.360,80.800 348.800 C 80.800 349.240,80.980 349.600,81.200 349.600 C 81.420 349.600,81.600 349.960,81.600 350.400 C 81.600 350.840,81.738 351.200,81.906 351.200 C 82.074 351.200,82.513 351.896,82.882 352.747 C 83.250 353.599,83.788 354.544,84.076 354.847 C 84.364 355.151,84.862 355.907,85.181 356.526 C 85.501 357.145,86.266 358.179,86.881 358.822 C 87.497 359.466,88.000 360.188,88.000 360.428 C 88.000 360.667,88.720 361.554,89.600 362.400 C 90.480 363.246,91.200 364.131,91.200 364.369 C 91.200 364.606,91.380 364.800,91.600 364.800 C 91.820 364.800,92.000 365.013,92.000 365.274 C 92.000 366.155,100.305 373.704,102.451 374.773 C 103.083 375.087,103.600 375.492,103.600 375.673 C 103.600 375.853,103.920 376.000,104.312 376.000 C 104.703 376.000,105.283 376.360,105.600 376.800 C 105.917 377.240,106.457 377.600,106.800 377.600 C 107.143 377.600,107.683 377.960,108.000 378.400 C 108.317 378.840,108.897 379.200,109.288 379.200 C 109.680 379.200,110.000 379.346,110.000 379.525 C 110.000 379.704,110.630 380.098,111.400 380.400 C 112.170 380.702,112.800 381.096,112.800 381.275 C 112.800 381.454,113.160 381.600,113.600 381.600 C 114.040 381.600,114.400 381.780,114.400 382.000 C 114.400 382.220,114.760 382.400,115.200 382.400 C 115.640 382.400,116.000 382.580,116.000 382.800 C 116.000 383.020,116.540 383.200,117.200 383.200 C 117.860 383.200,118.400 383.336,118.400 383.503 C 118.400 383.834,121.224 384.800,122.194 384.800 C 122.527 384.800,122.800 384.980,122.800 385.200 C 122.800 385.420,123.430 385.600,124.200 385.600 C 124.970 385.600,125.600 385.780,125.600 386.000 C 125.600 386.220,126.219 386.400,126.976 386.400 C 127.733 386.400,128.464 386.580,128.600 386.800 C 128.736 387.020,129.827 387.200,131.024 387.200 C 132.221 387.200,133.200 387.381,133.200 387.603 C 133.200 388.424,180.565 387.923,180.724 387.100 C 180.846 386.466,180.424 386.400,176.253 386.400 C 173.614 386.400,171.542 386.229,171.400 386.000 C 171.264 385.780,170.364 385.600,169.400 385.600 C 168.436 385.600,167.548 385.439,167.426 385.242 C 167.305 385.045,166.529 384.782,165.703 384.658 C 162.122 384.117,161.200 383.891,161.200 383.556 C 161.200 383.360,160.660 383.200,160.000 383.200 C 159.340 383.200,158.800 383.020,158.800 382.800 C 158.800 382.580,158.350 382.400,157.800 382.400 C 157.250 382.400,156.800 382.220,156.800 382.000 C 156.800 381.780,156.559 381.600,156.263 381.600 C 155.564 381.600,147.441 377.566,147.267 377.132 C 147.193 376.949,146.886 376.800,146.584 376.800 C 146.083 376.800,143.692 375.392,142.517 374.406 C 142.251 374.183,141.886 374.000,141.705 374.000 C 141.524 374.000,141.117 373.640,140.800 373.200 C 140.483 372.760,140.085 372.400,139.916 372.400 C 139.191 372.400,129.200 362.716,129.200 362.013 C 129.200 361.786,129.020 361.600,128.800 361.600 C 128.580 361.600,128.400 361.402,128.400 361.160 C 128.400 360.919,127.860 360.217,127.200 359.600 C 126.540 358.983,126.000 358.281,126.000 358.040 C 126.000 357.798,125.847 357.600,125.661 357.600 C 125.474 357.600,124.997 356.880,124.600 356.000 C 124.203 355.120,123.726 354.400,123.539 354.400 C 123.353 354.400,123.200 354.040,123.200 353.600 C 123.200 353.160,123.065 352.799,122.900 352.797 C 122.735 352.795,122.413 352.390,122.183 351.897 C 121.954 351.404,121.384 350.280,120.916 349.400 C 120.448 348.520,119.826 347.215,119.535 346.500 C 119.243 345.785,118.869 345.200,118.702 345.200 C 118.536 345.200,118.400 344.750,118.400 344.200 C 118.400 343.650,118.220 343.200,118.000 343.200 C 117.780 343.200,117.600 342.750,117.600 342.200 C 117.600 341.650,117.420 341.200,117.200 341.200 C 116.980 341.200,116.800 340.660,116.800 340.000 C 116.800 339.340,116.620 338.800,116.400 338.800 C 116.180 338.800,116.000 338.260,116.000 337.600 C 116.000 336.940,115.820 336.400,115.600 336.400 C 115.380 336.400,115.200 335.601,115.200 334.624 C 115.200 333.647,115.020 332.736,114.800 332.600 C 114.580 332.464,114.400 331.564,114.400 330.600 C 114.400 329.636,114.220 328.736,114.000 328.600 C 113.771 328.458,113.600 326.396,113.600 323.776 L 113.600 319.200 125.800 319.200 C 140.402 319.200,139.797 319.698,133.100 313.190 C 130.405 310.572,127.480 307.698,126.600 306.805 C 125.720 305.912,122.030 302.219,118.400 298.597 C 110.063 290.280,110.131 290.349,102.039 282.129 C 98.319 278.350,95.168 275.365,95.038 275.496 C 94.907 275.626,94.800 275.523,94.800 275.267 C 94.800 272.904,92.527 274.934,71.100 296.439 " stroke="none" fill="#8b94a3" fill-rule="evenodd"></path></g></svg>