<svg xmlns="http://www.w3.org/2000/svg" viewBox="0 0 409.6 409.6"><defs><style>.clas-21{fill:#fefefe;}.clas-22{fill:#e7932e;}.clas-23{fill:#f6a738;}.clas-24{fill:#f6a739;}.clas-25{fill:#fdc83e;}.clas-26{fill:#fdc83f;}.clas-27{fill:#f6a638;}.clas-28{fill:#eeb637;}.clas-29{fill:#eeb535;}.clas-210{fill:#f7b455;}.clas-211{fill:#fefdfc;}.clas-212{fill:#fefefd;}.clas-213{fill:#fddc8e;}.clas-214{fill:#fcd88d;}.clas-215{fill:#fdda89;}.clas-216{fill:#fcd88e;}</style></defs><g id="Layer_2" data-name="Layer 2"><g id="Layer_1-2" data-name="Layer 1"><path class="clas-21" d="M409.6,396.82V409.6H0V0H409.6V122.08c-1.61-1.59-3-3.66-4.87-4.71q-42.14-23-84.4-45.73-53.61-29-107.2-58c-2.68-1.45-5.35-2.35-8.29-.79L170.8,31c-.48.22-1,.42-1.44.67Q90.17,73.15,11,114.72C-.81,121,1.65,117.12,1.3,131.24c-.09,3.63,1.57,5,5,5,4.52,0,9,.12,13.54.19,0,5.95-.08,11.9,0,17.85.07,4.12,2,6.06,6.13,6.13,5.55.11,11.1,0,16.65.07,2,0,4.07.46,6.1.7,0,5.67-.11,11.33-.1,17s2,7.62,7.59,7.72l3.55.05q0,68.25.07,136.48a14.15,14.15,0,0,1-.18,1.58H56.91c-6.47,0-8.25,1.78-8.25,8.22,0,5.56.08,11.11.12,16.67-7,.08-14.09,0-21.13.27-8.63.32-11.43,3.29-11.5,11.73,0,4.26,0,8.51-.07,12.77-1.73,0-3.46,0-5.19,0-6.72.18-10,3.49-10.15,10.13,0,2.53,0,5.06,0,7.59,0,6.83.07,6.91,6.91,6.91H360.13c1.59,0,3.19-.09,4.78-.14,13.73.06,27.47.17,41.2.13C407.28,398.33,408.44,397.35,409.6,396.82Z"/><path class="clas-21" d="M409.6,133.26v246c-2.22-2.77-4.53-5.41-8.46-5.54-2.22-.08-4.45,0-6.68-.07q-.07-6.54-.13-13.08c-.07-8-3.54-11.49-11.65-11.54l-21-.11c0-6.08.1-12.16,0-18.24-.07-4.42-2.23-6.46-6.64-6.61-1.45-.05-2.91,0-4.36,0a14.15,14.15,0,0,1-.18-1.58q0-68.24.07-136.48c.92,0,1.84-.05,2.76-.05,6.6-.05,8.38-1.85,8.38-8.52,0-5.41-.08-10.81-.12-16.21a25.11,25.11,0,0,1,3.79-.61c6.22-.06,12.44,0,18.66-.06,4.64-.07,6.45-1.91,6.53-6.55.09-5.82,0-11.65.06-17.47,4.25-.05,8.5-.25,12.74-.08C406.16,136.56,408.2,135.68,409.6,133.26Z"/><path class="clas-22" d="M409.6,133.26c-1.4,2.42-3.44,3.3-6.26,3.18-4.24-.17-8.49,0-12.74.08-3.32,0-6.63,0-9.94-.09-6.06-.21-12.11-.52-18.17-.79a13,13,0,0,0-2.05-1.76q-15-8.19-30.12-16.31Q301.08,101.76,271.83,86,230.3,63.54,188.75,41.17c-6.06-3.28-12-6.79-17.95-10.2l34-18.13c2.94-1.56,5.61-.66,8.29.79q53.6,29,107.2,58,42.21,22.85,84.4,45.73c1.91,1,3.26,3.12,4.87,4.71Z"/><path class="clas-22" d="M394.46,373.64c2.23,0,4.46,0,6.68.07,3.93.13,6.24,2.77,8.46,5.54v17.57c-1.16.53-2.32,1.51-3.49,1.52-13.73,0-27.47-.07-41.2-.13q0-11.88,0-23.75c0-.26,0-.52,0-.79Z"/><path class="clas-23" d="M170.8,31c6,3.41,11.89,6.92,17.95,10.2Q230.26,63.61,271.83,86q29.26,15.78,58.49,31.62,15.07,8.15,30.12,16.31a13,13,0,0,1,2.05,1.76,19.34,19.34,0,0,1-3.7.77c-4.36.1-8.71,0-13.07,0l-325.87,0c-4.51-.07-9-.19-13.54-.19-3.44,0-5.1-1.41-5-5C1.65,117.12-.81,121,11,114.72Q90.12,73,169.36,31.64C169.83,31.39,170.32,31.19,170.8,31Z"/><path class="clas-24" d="M364.89,374.46q0,11.88,0,23.75c-1.59.05-3.19.14-4.78.14H7.65c-6.84,0-6.91-.08-6.91-6.91,0-2.53,0-5.06,0-7.59.11-6.64,3.43-9.95,10.15-10.13,1.73-.05,3.46,0,5.19,0l1.41,0a31.35,31.35,0,0,0,5,.75Q193.67,374.48,364.89,374.46Z"/><path class="clas-25" d="M17.49,373.67l-1.41,0c0-4.26,0-8.51.07-12.77.07-8.44,2.87-11.41,11.5-11.73,7-.25,14.09-.19,21.13-.27h.73l10.15.05H91.94l10.15,0,1.22,0h32.06l.39,0,10.15,0,32.29,0,10.15-.06.85,0h31.94l.85,0,9.41.73a20.42,20.42,0,0,1,3.82-.73c9.74,0,19.47,0,29.21.05l10.14-.05.39,0H307l1.23,0,9.35,0,32.1-.07v24.74Z"/><path class="clas-25" d="M19.85,136.47l325.87,0v24l-38.71.78a25.92,25.92,0,0,0-4.14-.69c-9.34-.07-18.68-.05-28-.05a25.86,25.86,0,0,1-4.65.69c-4.07-.12-8.14-.73-12.21-.69-12.28.12-24.56.46-36.84.72a16.44,16.44,0,0,0-3.35-.67q-12.63-.09-25.26,0a16.67,16.67,0,0,0-3.36.67l-54.22,0a9.47,9.47,0,0,0-2.53-.7q-13.26-.08-26.53,0a10.74,10.74,0,0,0-2.58.69H48.76c-2-.24-4.06-.66-6.1-.7-5.55-.1-11.1,0-16.65-.07-4.12-.07-6.06-2-6.13-6.13C19.77,148.37,19.85,142.42,19.85,136.47Z"/><path class="clas-26" d="M59.69,324.05a14.15,14.15,0,0,0,.18-1.58q0-68.24-.07-136.48l32.2.1q0,65.15,0,130.29c0,2.52.1,5,.15,7.56Z"/><path class="clas-23" d="M92,186.09,59.8,186l-3.55-.05c-5.55-.1-7.57-2.11-7.59-7.72s.06-11.33.1-17h54.56c.05,4.1.14,8.21.14,12.32C103.47,184.16,103.24,186.11,92,186.09Z"/><path class="clas-27" d="M59.69,324.05l32.41-.11c1.05,0,2.11.09,3.16.11,6.22.07,7.73,1.32,8,7.52.24,5.78.07,11.57.07,17.35l-1.22,0-10.15,0H59.66l-10.15-.05h-.73c0-5.56-.12-11.11-.12-16.67,0-6.44,1.78-8.19,8.25-8.22Z"/><path class="clas-26" d="M350.54,186q0,68.25-.07,136.48a14.15,14.15,0,0,0,.18,1.58l-32.42-.11c0-.66.15-1.32.15-2q0-67.93,0-135.87Z"/><path class="clas-23" d="M350.54,186l-32.2.1c-1.06-.05-2.12-.13-3.18-.15-6.12-.1-7.94-1.61-8.17-7.64-.21-5.69,0-11.4,0-17.09l38.71-.78,15.84.78c0,5.4.11,10.8.12,16.21,0,6.67-1.78,8.47-8.38,8.52C352.38,185.94,351.46,186,350.54,186Z"/><path class="clas-27" d="M318.23,323.94l32.42.11c1.45,0,2.91,0,4.36,0,4.41.15,6.57,2.19,6.64,6.61.11,6.08,0,12.16,0,18.24h-12l-32.1.07-9.35,0-1.23,0c0-4.34-.18-8.68-.14-13C307,325,307.51,323.83,318.23,323.94Z"/><path class="clas-28" d="M349.7,348.91h12l21,.11c8.11.05,11.58,3.5,11.65,11.54q0,6.54.13,13.08l-29.55,0-15.21,0Z"/><path class="clas-29" d="M361.56,161.21l-15.84-.78v-24c4.36,0,8.71.06,13.07,0a19.34,19.34,0,0,0,3.7-.77c6.06.27,12.11.58,18.17.79,3.31.11,6.62.06,9.94.09,0,5.82,0,11.65-.06,17.47-.08,4.64-1.89,6.48-6.53,6.55-6.22.1-12.44,0-18.66.06A25.11,25.11,0,0,0,361.56,161.21Z"/><path class="clas-210" d="M349.7,373.65l15.21,0c0,.27,0,.53,0,.79q-171.22,0-342.45,0a31.35,31.35,0,0,1-5-.75Z"/><path class="clas-211" d="M189.18,161.19a16.67,16.67,0,0,1,3.36-.67q12.63-.09,25.26,0a16.44,16.44,0,0,1,3.35.67c-.05,5.69-.15,11.38-.14,17.07s1.89,7.57,7.59,7.68c1.2,0,2.39.06,3.58.1q0,68,0,136c0,.66-.11,1.32-.17,2l-3.18,0c-6.16.06-7.86,1.69-7.86,7.74,0,5.7.08,11.41.13,17.12H189.2c.05-4.51.13-9,.14-13.54,0-10.91-.27-11.2-11.06-11.36-.05-.66-.16-1.32-.16-2q0-68,0-136c1.19,0,2.38-.08,3.57-.1,5.7-.11,7.59-2,7.6-7.68S189.24,166.88,189.18,161.19Z"/><path class="clas-212" d="M318.23,323.94c-10.72-.11-11.23,1.06-11.35,12,0,4.33.09,8.67.14,13H275.35c0-6.1.17-12.2.11-18.3,0-4.46-2.13-6.43-6.64-6.57-1.46-.05-2.92,0-4.38,0a14.27,14.27,0,0,1-.16-1.59q0-68.22.05-136.45c1.85,0,4,.47,5.49-.25,2.06-1,5.13-2.79,5.23-4.41.44-6.93-.05-13.92-.2-20.88,9.34,0,18.68,0,28,.05a25.92,25.92,0,0,1,4.14.69c0,5.69-.23,11.4,0,17.09.23,6,2.05,7.54,8.17,7.64,1.06,0,2.12.1,3.18.15q0,67.93,0,135.87C318.38,322.62,318.28,323.28,318.23,323.94Z"/><path class="clas-212" d="M103.31,348.92c0-5.78.17-11.57-.07-17.35-.25-6.2-1.76-7.45-8-7.52-1.05,0-2.11-.07-3.16-.11,0-2.52-.15-5-.15-7.56q0-65.15,0-130.29c11.24,0,11.47-1.93,11.46-12.56,0-4.11-.09-8.22-.14-12.32a10.74,10.74,0,0,1,2.58-.69q13.26-.08,26.53,0a9.47,9.47,0,0,1,2.53.7c0,5.67-.11,11.35-.1,17s2,7.59,7.59,7.68L146,186q0,68.22.05,136.45c0,.53-.11,1.06-.16,1.59h-3.19c-6.06.05-7.85,1.78-7.85,7.77,0,5.71.08,11.41.13,17.11Z"/><path class="clas-27" d="M264.44,324.05c1.46,0,2.92,0,4.38,0,4.51.14,6.6,2.11,6.64,6.57.06,6.1-.06,12.2-.11,18.3H275l-.38,0-10.15.05c-9.74,0-19.47-.09-29.21-.05a20.42,20.42,0,0,0-3.82.73l-9.41-.73-.85,0c0-5.71-.14-11.42-.13-17.12,0-6.05,1.7-7.68,7.86-7.74l3.18,0Z"/><path class="clas-27" d="M135,348.93c-.05-5.7-.14-11.4-.13-17.11,0-6,1.79-7.72,7.85-7.77h3.19l32.39,0c10.78.16,11.07.45,11.05,11.36,0,4.51-.09,9-.14,13.54l-.85,0L178.2,349l-32.29,0-10.15,0-.39,0Z"/><path class="clas-213" d="M49.51,348.94l10.15.05Z"/><path class="clas-214" d="M91.94,349l10.15,0Z"/><path class="clas-214" d="M135.76,348.94l10.15,0Z"/><path class="clas-215" d="M178.2,349l10.15-.06Z"/><path class="clas-216" d="M264.43,349l10.15-.05Z"/><path class="clas-215" d="M222,348.94l9.41.73Z"/><path class="clas-216" d="M308.25,348.94l9.35,0Z"/><path class="clas-23" d="M274.85,160.47c.15,7,.64,13.95.2,20.88-.1,1.62-3.17,3.44-5.23,4.41-1.53.72-3.64.21-5.49.25l-32.15,0c-1.19,0-2.38-.08-3.58-.1-5.7-.11-7.58-2-7.59-7.68s.09-11.38.14-17.07c12.28-.26,24.56-.6,36.84-.72,4.07,0,8.14.57,12.21.69A25.86,25.86,0,0,0,274.85,160.47Z"/><path class="clas-23" d="M146,186l-3.56-.08c-5.61-.09-7.58-2-7.59-7.68s.06-11.36.1-17l54.22,0c.06,5.69.16,11.38.15,17.07s-1.9,7.57-7.6,7.68c-1.19,0-2.38.06-3.57.1Z"/><path class="clas-25" d="M146,186l32.15,0q0,68,0,136c0,.66.11,1.32.16,2l-32.38,0c0-.53.16-1.06.16-1.59Q146,254.24,146,186Z"/><path class="clas-25" d="M232.18,186l32.15,0q0,68.22-.05,136.45a14.27,14.27,0,0,0,.16,1.59l-32.39,0c.06-.66.17-1.32.17-2Q232.21,254,232.18,186Z"/></g></g></svg>