<svg xmlns="http://www.w3.org/2000/svg" viewBox="0 0 511.03 511.03"><defs><style>.clas-31{fill:#fefefe;}.clas-32{fill:#663434;}.clas-33{fill:#2d4cac;}.clas-34{fill:#9fb2ee;}.clas-35{fill:#7f93e5;}.clas-36{fill:#542828;}.clas-37{fill:#fbd1ad;}.clas-38{fill:#f7bc91;}.clas-39{fill:#f6bb90;}.clas-310{fill:#c7d1f7;}.clas-311{fill:#f3ac7d;}.clas-312{fill:#f1ac7e;}</style></defs><g id="Layer_2" data-name="Layer 2"><g id="Layer_1-2" data-name="Layer 1"><path class="clas-31" d="M268,0H511V511H0V0H239.08l-11,2.27c-22.56,4.19-42.61,12.44-54.54,33.8a234.66,234.66,0,0,0-100.06,67Q4.34,181.32,11.87,285.77a235.59,235.59,0,0,0,31,100.74,25,25,0,0,0,1.2,2.69c27.72,46.62,66.41,80.82,116.37,102,28.85,12.22,59,19.07,90.48,18.71,14.31-.92,28.7-1.18,42.91-2.92,25-3.06,48.46-11.36,70.87-22.62a237.94,237.94,0,0,0,82-67.09c7.67-9.86,13.84-20.89,20.7-31.39.78-1.26,1.64-2.49,2.33-3.8,24.09-45.4,33.79-93.62,27.53-144.73-8-65.64-38.14-119.31-89.08-161.28a215.39,215.39,0,0,0-59.66-35.27,18,18,0,0,1-1.83-1.66c-16.21-19.31-37.43-30-61.55-35.6C279.44,2.21,273.69,1.17,268,0Z"/><path class="clas-32" d="M268,0c5.72,1.17,11.47,2.21,17.16,3.53,24.12,5.61,45.34,16.29,61.55,35.6a18,18,0,0,0,1.83,1.66,30.83,30.83,0,0,0,1.65,3c11.86,16.8,16.33,35.69,15.17,55.91-.94,16.32-2.69,32.59-4.08,48.88-2.71.39-5.42.9-8.14,1.12a21.42,21.42,0,0,1-4.26-.45c-2-5.21-4.35-10.33-6-15.65a80.15,80.15,0,0,1-3.63-15.72c-.7-7.06.08-14.27-.66-21.32C335.94,72,323,60.13,298.4,60.66c-9.48.21-19.09,2.21-28.29,4.68-10.3,2.76-20.16,3.28-30.27-.18-3.42-1.17-7.05-1.73-10.59-2.56l-2.14-1c-1.62-2.21-3.29-4.4-4.86-6.65-10.61-15.14-9.19-34.42,3.41-48.12,1.13-1.23,1.63-3,2.42-4.59l11-2.27Z"/><path class="clas-33" d="M42.88,386.51a235.59,235.59,0,0,1-31-100.74Q4.27,181.54,73.48,103.08a234.66,234.66,0,0,1,100.06-67c-1.39,5.75-3.3,11.43-4,17.25-.49,4.17-1.85,6.82-5.22,9.38a42.51,42.51,0,0,0-10.12,10.57c-6.47,10.09-7.71,21.88-7.43,33.36.34,14,2.5,27.87,3.87,41.8-9.54,2.33-13.46,7.22-12.17,17,.71,5.4,3.17,10.58,4.84,15.86,1.32,4.37,3,8.67,3.9,13.13,2.79,13.47,5,15.78,18,18,.93,23.26,8.6,44.24,21.53,63.41,2.77,4.1,5.77,8,8.66,12.05-1,6.69-1.7,13.46-3.22,20-2.17,9.35-5,18.57-13,24.93-3.55-2-6.88-4.94-10.7-5.9-9.73-2.43-16.22,3.72-17.29,15.52l-23.81,9.72c-13.29,5.42-26.26,12-40,16-14.68,4.29-29.24,8.16-41.78,17.34A10.36,10.36,0,0,1,42.88,386.51Z"/><path class="clas-33" d="M361.24,148.57c1.4-16.29,3.15-32.56,4.09-48.88,1.16-20.22-3.31-39.11-15.17-55.91a30.83,30.83,0,0,1-1.65-3,215.39,215.39,0,0,1,59.66,35.27c50.94,42,81,95.64,89.08,161.28,6.26,51.11-3.44,99.33-27.53,144.73-.69,1.31-1.55,2.54-2.33,3.8-1.28-.74-2.63-1.38-3.84-2.22-10.34-7.19-21.85-11.56-33.95-14.85a272.27,272.27,0,0,1-27.73-9.1c-14.79-5.78-29.35-12.17-44-18.31C358,335.12,356,330,350,327.11S338.78,326,333.92,330a48,48,0,0,1-4.1,2.75c-3.33-5.61-7.82-10.85-9.7-16.9-2.81-9-3.76-18.6-5.5-27.94.88-1.37,1.67-2.82,2.67-4.11,16.53-21.08,26.15-44.8,27.44-71.71,10.49-.38,14.87-3.87,17.41-13.74,1.47-5.68,3-11.33,4.57-17,1.5-4,3.36-7.89,4.43-12C373.83,159.11,370.29,152,361.24,148.57Z"/><path class="clas-34" d="M357.87,341.39c14.65,6.14,29.21,12.53,44,18.31a272.27,272.27,0,0,0,27.73,9.1c12.1,3.29,23.61,7.66,33.95,14.85,1.21.84,2.56,1.48,3.84,2.22-6.86,10.5-13,21.53-20.7,31.39a237.94,237.94,0,0,1-82,67.09c-22.41,11.26-45.9,19.56-70.87,22.62-14.21,1.74-28.6,2-42.91,2.92-8.25-5.79-16.39-11.61-22.54-19.91-11.87-16.05-17-34.06-15-53.7a69.66,69.66,0,0,1,21.46-44.16c2.32-2.22,4.11-5,6.15-7.51,9.69,0,19.42.59,29.05-.17,27.68-2.16,52.59-12.21,75.11-28.2C350.5,352.44,357.22,349.4,357.87,341.39Z"/><path class="clas-35" d="M241,384.61c-2,2.51-3.83,5.29-6.15,7.51a69.66,69.66,0,0,0-21.46,44.16c-2,19.64,3.13,37.65,15,53.7,6.15,8.3,14.29,14.12,22.54,19.91-31.52.36-61.63-6.49-90.48-18.71-50-21.16-88.65-55.36-116.37-102a25,25,0,0,1-1.2-2.69,10.36,10.36,0,0,0,2.74-1c12.54-9.18,27.1-13,41.78-17.34,13.71-4,26.68-10.55,40-16l23.81-9.72c1.38,5.31,5.09,8.66,9.34,11.78C184.53,371.89,211.08,382.7,241,384.61Z"/><path class="clas-36" d="M150.66,148.43c-1.37-13.93-3.53-27.84-3.87-41.8-.28-11.48,1-23.27,7.43-33.36A42.51,42.51,0,0,1,164.34,62.7c3.37-2.56,4.73-5.21,5.22-9.38.68-5.82,2.59-11.5,4-17.25,11.93-21.36,32-29.61,54.54-33.8-.79,1.55-1.29,3.36-2.42,4.59-12.6,13.7-14,33-3.41,48.12,1.57,2.25,3.24,4.44,4.86,6.65-7.71-.29-15.47-1.23-23.14-.73-14.53,1-24.74,8.36-29.62,22.41-3.86,11.12-4.21,22.63-3.92,34.25.1,3.9,0,8.11-1.35,11.68-2.72,7.19-6.35,14-9.66,21.15Z"/><path class="clas-37" d="M344.73,212.07c-1.29,26.91-10.91,50.63-27.44,71.71-1,1.29-1.79,2.74-2.67,4.11-3.1,3-6.14,6.06-9.32,9-9.12,8.31-18.93,15.39-31,19.07a23.17,23.17,0,0,1-17.63-1.24c-10.82-5.15-18.61-13.62-25.64-22.95-19.24-25.54-26.76-54.82-27.93-86.28-.41-11.18-1.83-22.34-3.22-33.46-1.43-11.53-1.17-22.88,3.48-33.59,3.51-8.08,4.83-16.23,5-25a166.66,166.66,0,0,1,3.08-30.92c2-9.44,7-17.58,17.79-19.88,3.54.83,7.17,1.39,10.59,2.56,10.11,3.46,20,2.94,30.27.18,9.2-2.47,18.81-4.47,28.29-4.68C323,60.13,335.94,72,338.54,96.55c.74,7,0,14.26.66,21.32a80.15,80.15,0,0,0,3.63,15.72c1.67,5.32,4,10.44,6,15.65.29,6.6.74,13.21.8,19.82a90.4,90.4,0,0,1-1,10.22c-.59,1-1.55,1.86-1.7,2.88-.87,6-1.73,11.94-2.22,17.94C344.41,204.06,344.71,208.07,344.73,212.07Z"/><path class="clas-38" d="M229.25,62.6C218.5,64.9,213.46,73,211.46,82.48a166.66,166.66,0,0,0-3.08,30.92c-.18,8.77-1.5,16.92-5,25-4.65,10.71-4.91,22.06-3.48,33.59,1.39,11.12,2.81,22.28,3.22,33.46,1.17,31.46,8.69,60.74,27.93,86.28,7,9.33,14.82,17.8,25.64,22.95a23.17,23.17,0,0,0,17.63,1.24c12.06-3.68,21.87-10.76,31-19.07,3.18-2.9,6.22-6,9.32-9,1.74,9.34,2.69,18.93,5.5,27.94,1.88,6.05,6.37,11.29,9.7,16.9a19.3,19.3,0,0,1-2.15,2c-19,13-39.69,20.95-62.76,22.43a37.46,37.46,0,0,0-2.14-3.22c-5.06-6.16-7.56-13.3-6.58-21.14.58-4.6,2.6-9,4.06-13.79-1.33-.08-2.77-.27-4.21-.22a60.43,60.43,0,0,1-39.87-12.53c-7.34-5.57-13.88-12.2-20.77-18.35-2.89-4-5.89-8-8.66-12.05-12.93-19.17-20.6-40.15-21.52-63.41-1.09-10.51-2.17-21-3.34-32.37-6.82,5-12.68,3.29-18.55,1.26-1.67-5.28-4.13-10.46-4.84-15.86-1.29-9.83,2.63-14.72,12.17-17l8.76,2c3.31-7.12,6.94-14,9.66-21.15,1.35-3.57,1.45-7.78,1.35-11.68-.29-11.62.06-23.13,3.92-34.25,4.88-14,15.09-21.46,29.62-22.41,7.67-.5,15.43.44,23.14.73Z"/><path class="clas-39" d="M348.65,179.28a90.4,90.4,0,0,0,1-10.22c-.06-6.61-.51-13.22-.8-19.82a21.42,21.42,0,0,0,4.26.45c2.72-.22,5.43-.73,8.14-1.12,9,3.43,12.58,10.54,9.89,20.77-1.07,4.11-2.93,8-4.43,12l-4.1,1.41C357.29,184.61,352,183.3,348.65,179.28Z"/><path class="clas-310" d="M264.91,357.16c23.07-1.48,43.8-9.47,62.76-22.43a19.3,19.3,0,0,0,2.15-2,48,48,0,0,0,4.1-2.75c4.86-4,10.12-5.73,16.11-2.87s8,8,7.84,14.28c-.65,8-7.37,11.05-12.71,14.85-22.52,16-47.43,26-75.11,28.2-9.63.76-19.36.15-29.05.17-29.92-1.91-56.47-12.72-80.48-30.33-4.25-3.12-8-6.47-9.34-11.78,1.07-11.8,7.56-17.95,17.29-15.52,3.82,1,7.15,3.88,10.7,5.9C204.67,351.88,233.42,359.36,264.91,357.16Z"/><path class="clas-311" d="M264.91,357.16c-31.49,2.2-60.24-5.28-85.74-24.28,8.05-6.36,10.84-15.58,13-24.93,1.52-6.58,2.18-13.35,3.22-20,6.89,6.15,13.43,12.78,20.77,18.35A60.43,60.43,0,0,0,256,318.79c1.44-.05,2.88.14,4.21.22-1.46,4.78-3.48,9.19-4.06,13.79-1,7.84,1.52,15,6.58,21.14A37.46,37.46,0,0,1,264.91,357.16Z"/><path class="clas-312" d="M143.33,181.34c5.87,2,11.73,3.7,18.55-1.26,1.17,11.34,2.25,21.86,3.34,32.37-13-2.2-15.2-4.51-18-18C146.31,190,144.65,185.71,143.33,181.34Z"/><path class="clas-312" d="M348.65,179.28c3.36,4,8.64,5.33,14,3.47l4.1-1.41c-1.53,5.66-3.1,11.31-4.57,17-2.54,9.87-6.92,13.36-17.41,13.74,0-4-.32-8,0-12,.49-6,1.35-12,2.22-17.94C347.1,181.14,348.06,180.24,348.65,179.28Z"/></g></g></svg>