<svg xmlns="http://www.w3.org/2000/svg" viewBox="0 0 409.6 409.6"><defs><style>.cls-111{fill:#e0eef9;}.cls-112{fill:#fefefe;}.cls-113{fill:#bbd3e7;}.cls-114{fill:#364b60;}.cls-115{fill:#fd8e32;}.cls-116{fill:#5d6d7e;}.cls-117{fill:#364b5f;}.cls-118{fill:#5d6e7f;}.cls-119{fill:#fdc856;}.cls-1110{fill:#cde1f1;}.cls-1111{fill:#fdfdfe;}</style></defs><g id="Layer_2" data-name="Layer 2"><g id="Layer_1-2" data-name="Layer 1"><path class="cls-111" d="M409.6,193.17v24a5.31,5.31,0,0,0-.74,1.76c-.24,14.64-3.19,28.85-7.33,42.78-2.35,7.94-5.72,15.58-8.62,23.35-1.2-1-2.46-2-3.58-3.14q-71.22-71.2-142.46-142.4c-1.22-1.22-3-1.91-4.46-2.85-.59-.72-1.19-1.43-1.76-2.16-18.5-24-42.73-34.66-72.87-30.75-46.24,6-76.21,54.88-61.11,99,5.67,16.59,16,29.48,30,39.67.94,1.5,1.65,3.23,2.87,4.46q71.15,71.27,142.36,142.47c1.12,1.11,2.1,2.37,3.14,3.57a9.68,9.68,0,0,1-1.61,1.12,201.07,201.07,0,0,1-52.67,14c-4.53.59-9.07,1.08-13.6,1.61H193.21a18.81,18.81,0,0,0-3-.77c-4.09-.34-8.23-.29-12.27-.92-22.66-3.53-44.44-9.78-65-20.34a211.56,211.56,0,0,1-55.28-41.05,201.47,201.47,0,0,1-42-64.67A198.36,198.36,0,0,1,.81,206.26c0-5.29.57-10.58.73-15.88.46-15.49,3.65-30.51,8.21-45.2A203.21,203.21,0,0,1,64,57.5,206.42,206.42,0,0,1,116.31,21,197.89,197.89,0,0,1,195.92.89a211.17,211.17,0,0,1,36.51,1.64,197.65,197.65,0,0,1,65,20.22,210.59,210.59,0,0,1,55.26,41.07A202.43,202.43,0,0,1,394.08,127a190.07,190.07,0,0,1,14,54.08C408.48,185.14,409.08,189.15,409.6,193.17Z"/><path class="cls-112" d="M409.6,193.17c-.52-4-1.12-8-1.55-12.06a190.07,190.07,0,0,0-14-54.08,202.43,202.43,0,0,0-41.41-63.21,210.59,210.59,0,0,0-55.26-41.07,197.65,197.65,0,0,0-65-20.22A211.17,211.17,0,0,0,195.92.89,197.89,197.89,0,0,0,116.31,21,206.42,206.42,0,0,0,64,57.5,203.21,203.21,0,0,0,9.75,145.18C5.19,159.87,2,174.89,1.54,190.38,1.38,195.68.8,201,.81,206.26a198.36,198.36,0,0,0,14.86,75.59,201.47,201.47,0,0,0,42.05,64.67A211.56,211.56,0,0,0,113,387.57c20.53,10.56,42.31,16.81,65,20.34,4,.63,8.18.58,12.27.92a18.81,18.81,0,0,1,3,.77H0V0H409.6Z"/><path class="cls-112" d="M392.91,285c2.9-7.77,6.27-15.41,8.62-23.35,4.14-13.93,7.09-28.14,7.33-42.78a5.31,5.31,0,0,1,.74-1.76V409.6H217.16c4.53-.53,9.07-1,13.6-1.61a201.07,201.07,0,0,0,52.67-14,9.18,9.18,0,0,0,1.61-1.13c6-2.74,12.15-5.23,18-8.27,17.68-9.22,33.31-21.35,47.32-35.4a190.35,190.35,0,0,0,32.75-43.38C386.76,299.1,389.66,292,392.91,285Z"/><path class="cls-113" d="M392.91,285c-3.25,7-6.15,14.08-9.81,20.81a190.35,190.35,0,0,1-32.75,43.38c-14,14.05-29.64,26.18-47.32,35.4-5.84,3-12,5.53-18,8.27-1-1.19-2-2.45-3.14-3.56q-71.19-71.24-142.36-142.47c-1.22-1.23-1.93-3-2.87-4.46a6.64,6.64,0,0,1,1.11.4q44.5,26,86.91-3.3a8.48,8.48,0,0,1,2.84-.74L238.24,250c-4.65,5.8-4.59,8,.34,12,13.79,13.85,27.4,27.87,41.42,41.47,6.18,6,16.33,5.26,22.46-.71s7.08-16.44,1-22.74c-13.59-14-27.61-27.64-41.46-41.42-4-4.94-6.21-5-12-.35L238.77,227.5a25.27,25.27,0,0,1,1.94-4.44c13.15-19.07,17.51-40,11.7-62.37-2.16-8.33-6.6-16.06-10-24.06,1.5.94,3.25,1.63,4.47,2.85q71.26,71.16,142.46,142.4C390.45,283,391.71,284,392.91,285Z"/><path class="cls-114" d="M227.53,238.75a8.48,8.48,0,0,0-2.84.74q-42.42,29.4-86.91,3.3a6.64,6.64,0,0,0-1.11-.4c-14-10.19-24.33-23.08-30-39.67-15.1-44.12,14.87-93,61.11-99,30.14-3.91,54.37,6.77,72.87,30.75.57.73,1.17,1.44,1.76,2.16,3.4,8,7.84,15.73,10,24.06,5.81,22.41,1.45,43.3-11.7,62.37a25.27,25.27,0,0,0-1.94,4.44Zm19.16-59.94c-.66-37.66-29.51-67.62-67.66-67.67-38.44,0-67.86,29.74-67.85,67.72s29.89,67.38,67.53,67.74C216,247,246.7,216,246.69,178.81Z"/><path class="cls-115" d="M262,238.56C275.83,252.34,289.85,266,303.44,280c6.1,6.3,5.24,16.7-1,22.74s-16.28,6.7-22.46.71c-14-13.6-27.63-27.62-41.42-41.47L257,243.7a38.86,38.86,0,0,0,2.9,3.71q17.87,17.94,35.79,35.84c4.23,4.25,4.83,7.81,2.14,12.49-.94,1.64-2.48,3.52.07,4.56.95.38,3.27-1.05,4.11-2.25,3.95-5.6,3.05-12.39-2.51-18-12.41-12.59-25-25-37.49-37.52a13.87,13.87,0,0,0-2.28-1.51Z"/><path class="cls-116" d="M227.53,238.75l11.24-11.25L250,238.21,238.24,250Z"/><path class="cls-117" d="M238.24,250,250,238.21c5.79-4.66,8-4.59,12,.35L259.71,241,257,243.7,238.58,262C233.65,257.91,233.59,255.75,238.24,250Z"/><path class="cls-118" d="M246.69,178.81c0,37.23-30.71,68.14-68,67.79-37.64-.36-67.52-29.63-67.53-67.74S140.59,111.1,179,111.14C217.18,111.19,246,141.15,246.69,178.81Zm-68,62.32a62.33,62.33,0,1,0-62.2-62.63A62.3,62.3,0,0,0,178.73,241.13Z"/><path class="cls-119" d="M257,243.7l2.73-2.71A13.87,13.87,0,0,1,262,242.5C274.52,255,287.07,267.43,299.48,280c5.56,5.64,6.46,12.43,2.51,18-.84,1.2-3.16,2.63-4.11,2.25-2.55-1-1-2.92-.07-4.56,2.69-4.68,2.09-8.24-2.14-12.49q-17.88-17.94-35.79-35.84A38.86,38.86,0,0,1,257,243.7Z"/><path class="cls-1110" d="M178.73,241.13a62.33,62.33,0,1,1,62.43-62A62.33,62.33,0,0,1,178.73,241.13Zm-32-93.9c-1.48-1.48-2.78-3.85-4.49-4.19-1.88-.39-5.09.44-6.06,1.87-3.33,4.9-6.62,10-8.66,15.54a51.6,51.6,0,0,0,.83,38.41c.69,1.68,3.35,3.72,4.91,3.57,1.88-.18,3.94-2.24,5.18-4,.66-.94-.19-3-.46-4.52-.95-5.45-2.87-10.92-2.73-16.33a41.53,41.53,0,0,1,9.3-25.72C145.42,150.79,145.77,149.29,146.72,147.23Zm7.74-5.58c1.59-.59,3.14-1.28,4.76-1.75,5.06-1.47,10.13-2.86,15.2-4.26,1.15-.31,2.82-.19,3.37-.92,1.38-1.85,3.05-4,3.13-6.15.09-2.44-1.91-4.33-4.87-4.08-2.77.23-5.66.11-8.26.91a130.12,130.12,0,0,0-15.59,5.79c-2.37,1.07-4.2,3.19-3.2,6.49C149.85,140.48,151.52,141.59,154.46,141.65Z"/><path class="cls-1111" d="M146.72,147.23c-.95,2.06-1.3,3.56-2.18,4.62a41.53,41.53,0,0,0-9.3,25.72C135.1,183,137,188.45,138,193.9c.27,1.53,1.12,3.58.46,4.52-1.24,1.77-3.3,3.83-5.18,4-1.56.15-4.22-1.89-4.91-3.57a51.6,51.6,0,0,1-.83-38.41c2-5.51,5.33-10.64,8.66-15.54,1-1.43,4.18-2.26,6.06-1.87C143.94,143.38,145.24,145.75,146.72,147.23Z"/><path class="cls-1111" d="M154.46,141.65c-2.94-.06-4.61-1.17-5.46-4-1-3.3.83-5.42,3.2-6.49a130.12,130.12,0,0,1,15.59-5.79c2.6-.8,5.49-.68,8.26-.91,3-.25,5,1.64,4.87,4.08-.08,2.11-1.75,4.3-3.13,6.15-.55.73-2.22.61-3.37.92-5.07,1.4-10.14,2.79-15.2,4.26C157.6,140.37,156.05,141.06,154.46,141.65Z"/></g></g></svg>